ISO-10303-21;
HEADER;
/* Generated by software containing ST-Developer
 * from STEP Tools, Inc. (www.steptools.com) 
 */
/* OPTION: using custom renumber hook */

FILE_DESCRIPTION(
/* description */ ('STEP AP242 Edition 2',
'CAx-IF Rec.Pracs.---Representation and Presentation of Product Manufa
cturing Information (PMI)---4.0---2014-10-13',
'CAx-IF Rec.Pracs.---3D Tessellated Geometry---0.4---2014-09-14','2;1',
'CAx-IF Rec.Pracs.---User Defined Attributes---1.5---2016-08-15'),
/* implementation_level */ '2;1');

FILE_NAME(
/* name */ 'Part Studio 1 - top bearing cap',
/* time_stamp */ '2026-09-23T17:24:04Z',
/* author */ (''),
/* organization */ (''),
/* preprocessor_version */ 'ST-DEVELOPER v20',
/* originating_system */ 'ONSHAPE BY PTC INC, 1.221',
/* authorisation */ '  ');

FILE_SCHEMA (('AP242_MANAGED_MODEL_BASED_3D_ENGINEERING_MIM_LF { 1 0 10303 442 3 1 4 }'));
ENDSEC;

DATA;
#10=SHAPE_REPRESENTATION_RELATIONSHIP('','',#948,#11);
#11=ADVANCED_BREP_SHAPE_REPRESENTATION('',(#946),#1624);
#12=B_SPLINE_SURFACE_WITH_KNOTS('',3,1,((#1541,#1542),(#1543,#1544),(#1545,
#1546),(#1547,#1548),(#1549,#1550),(#1551,#1552)),
 .SURF_OF_LINEAR_EXTRUSION.,.F.,.F.,.F.,(4,1,1,4),(2,2),(-1.65047006883182E-11,
0.251499999987649,0.502999999991804,1.00600000000011),(0.,1.),
 .UNSPECIFIED.);
#13=B_SPLINE_SURFACE_WITH_KNOTS('',3,1,((#1582,#1583),(#1584,#1585),(#1586,
#1587),(#1588,#1589),(#1590,#1591),(#1592,#1593)),
 .SURF_OF_LINEAR_EXTRUSION.,.F.,.F.,.F.,(4,1,1,4),(2,2),(-8.97071438070944E-12,
0.251499999993394,0.502999999995759,1.00600000000049),(0.,1.),
 .UNSPECIFIED.);
#14=ELLIPSE('',#969,0.002,0.0014142135623731);
#15=ELLIPSE('',#972,0.002,0.0014142135623731);
#16=PLANE('',#961);
#17=PLANE('',#964);
#18=PLANE('',#974);
#19=PLANE('',#975);
#20=PLANE('',#981);
#21=PLANE('',#985);
#22=PLANE('',#986);
#23=PLANE('',#987);
#24=PLANE('',#988);
#25=PLANE('',#989);
#26=PLANE('',#990);
#27=PLANE('',#991);
#28=PLANE('',#992);
#29=PLANE('',#993);
#30=PLANE('',#994);
#31=PLANE('',#995);
#32=PLANE('',#996);
#33=PLANE('',#997);
#34=PLANE('',#998);
#35=PLANE('',#999);
#36=PLANE('',#1000);
#37=PLANE('',#1001);
#38=PLANE('',#1002);
#39=PLANE('',#1003);
#40=PLANE('',#1004);
#41=PLANE('',#1005);
#42=PLANE('',#1006);
#43=PLANE('',#1007);
#44=PLANE('',#1008);
#45=PLANE('',#1009);
#46=PLANE('',#1010);
#47=PLANE('',#1011);
#48=PLANE('',#1013);
#49=PLANE('',#1015);
#50=PLANE('',#1016);
#51=PLANE('',#1017);
#52=PLANE('',#1018);
#53=PLANE('',#1019);
#54=PLANE('',#1020);
#55=PLANE('',#1021);
#56=TOROIDAL_SURFACE('',#954,0.0364393398282202,0.00106066017177982);
#57=B_SPLINE_CURVE_WITH_KNOTS('',3,(#1275,#1276,#1277,#1278),
 .UNSPECIFIED.,.F.,.F.,(4,4),(0.,1.),.UNSPECIFIED.);
#58=B_SPLINE_CURVE_WITH_KNOTS('',3,(#1281,#1282,#1283,#1284),
 .UNSPECIFIED.,.F.,.F.,(4,4),(0.,0.00210136992431381),.UNSPECIFIED.);
#59=B_SPLINE_CURVE_WITH_KNOTS('',3,(#1286,#1287,#1288,#1289),
 .UNSPECIFIED.,.F.,.F.,(4,4),(0.,1.),.UNSPECIFIED.);
#60=B_SPLINE_CURVE_WITH_KNOTS('',3,(#1291,#1292,#1293,#1294),
 .UNSPECIFIED.,.F.,.F.,(4,4),(0.,0.00210076989761015),.UNSPECIFIED.);
#61=B_SPLINE_CURVE_WITH_KNOTS('',3,(#1298,#1299,#1300,#1301,#1302),
 .UNSPECIFIED.,.F.,.F.,(4,1,4),(0.0160440743647814,0.0183704295938627,0.020696784822944),
 .UNSPECIFIED.);
#62=B_SPLINE_CURVE_WITH_KNOTS('',3,(#1305,#1306,#1307,#1308),
 .UNSPECIFIED.,.F.,.F.,(4,4),(0.00123618345335886,0.00188969509661791),
 .UNSPECIFIED.);
#63=B_SPLINE_CURVE_WITH_KNOTS('',3,(#1312,#1313,#1314,#1315),
 .UNSPECIFIED.,.F.,.F.,(4,4),(0.00123618345336021,0.00188969509661791),
 .UNSPECIFIED.);
#64=B_SPLINE_CURVE_WITH_KNOTS('',3,(#1363,#1364,#1365,#1366,#1367,#1368,
#1369,#1370,#1371,#1372,#1373,#1374),.UNSPECIFIED.,.F.,.F.,(4,1,1,1,1,1,
1,1,1,4),(0.,0.25,0.375,0.5,0.625,0.6875,0.75,0.8125,0.875,1.),
 .UNSPECIFIED.);
#65=B_SPLINE_CURVE_WITH_KNOTS('',3,(#1383,#1384,#1385,#1386,#1387,#1388,
#1389,#1390,#1391,#1392,#1393,#1394),.UNSPECIFIED.,.F.,.F.,(4,1,1,1,1,1,
1,1,1,4),(0.,0.25,0.375,0.5,0.625,0.6875,0.75,0.8125,0.875,1.),
 .UNSPECIFIED.);
#66=B_SPLINE_CURVE_WITH_KNOTS('',3,(#1397,#1398,#1399,#1400,#1401,#1402,
#1403,#1404,#1405,#1406,#1407,#1408),.UNSPECIFIED.,.F.,.F.,(4,1,1,1,1,1,
1,1,1,4),(0.,0.125,0.1875,0.25,0.3125,0.375,0.5,0.625,0.75,1.),
 .UNSPECIFIED.);
#67=B_SPLINE_CURVE_WITH_KNOTS('',3,(#1412,#1413,#1414,#1415,#1416,#1417,
#1418,#1419,#1420,#1421,#1422,#1423),.UNSPECIFIED.,.F.,.F.,(4,1,1,1,1,1,
1,1,1,4),(0.,0.125,0.1875,0.25,0.3125,0.375,0.5,0.625,0.75,1.),
 .UNSPECIFIED.);
#68=B_SPLINE_CURVE_WITH_KNOTS('',3,(#1553,#1554,#1555,#1556),
 .UNSPECIFIED.,.F.,.F.,(4,4),(0.,1.),.UNSPECIFIED.);
#69=B_SPLINE_CURVE_WITH_KNOTS('',3,(#1578,#1579,#1580,#1581),
 .UNSPECIFIED.,.F.,.F.,(4,4),(0.,1.),.UNSPECIFIED.);
#70=CIRCLE('',#951,0.00185203600602645);
#71=CIRCLE('',#952,0.00185203600602645);
#72=CIRCLE('',#955,0.0364393398282202);
#73=CIRCLE('',#956,0.0375);
#74=CIRCLE('',#958,0.0375);
#75=CIRCLE('',#959,0.0375);
#76=CIRCLE('',#960,0.0375);
#77=CIRCLE('',#962,0.002);
#78=CIRCLE('',#963,0.002);
#79=CIRCLE('',#965,0.002);
#80=CIRCLE('',#966,0.002);
#81=CIRCLE('',#967,0.03505);
#82=CIRCLE('',#976,0.02495);
#83=CIRCLE('',#977,0.03505);
#84=CIRCLE('',#980,0.02495);
#85=CIRCLE('',#982,0.00265);
#86=CIRCLE('',#984,0.00265);
#87=ORIENTED_EDGE('',*,*,#343,.F.);
#88=ORIENTED_EDGE('',*,*,#344,.T.);
#89=ORIENTED_EDGE('',*,*,#345,.F.);
#90=ORIENTED_EDGE('',*,*,#346,.T.);
#91=ORIENTED_EDGE('',*,*,#347,.F.);
#92=ORIENTED_EDGE('',*,*,#348,.T.);
#93=ORIENTED_EDGE('',*,*,#349,.F.);
#94=ORIENTED_EDGE('',*,*,#350,.T.);
#95=ORIENTED_EDGE('',*,*,#351,.F.);
#96=ORIENTED_EDGE('',*,*,#352,.T.);
#97=ORIENTED_EDGE('',*,*,#353,.T.);
#98=ORIENTED_EDGE('',*,*,#354,.F.);
#99=ORIENTED_EDGE('',*,*,#355,.F.);
#100=ORIENTED_EDGE('',*,*,#356,.T.);
#101=ORIENTED_EDGE('',*,*,#345,.T.);
#102=ORIENTED_EDGE('',*,*,#357,.T.);
#103=ORIENTED_EDGE('',*,*,#358,.F.);
#104=ORIENTED_EDGE('',*,*,#354,.T.);
#105=ORIENTED_EDGE('',*,*,#359,.T.);
#106=ORIENTED_EDGE('',*,*,#360,.T.);
#107=ORIENTED_EDGE('',*,*,#347,.T.);
#108=ORIENTED_EDGE('',*,*,#361,.F.);
#109=ORIENTED_EDGE('',*,*,#362,.T.);
#110=ORIENTED_EDGE('',*,*,#363,.T.);
#111=ORIENTED_EDGE('',*,*,#357,.F.);
#112=ORIENTED_EDGE('',*,*,#344,.F.);
#113=ORIENTED_EDGE('',*,*,#364,.T.);
#114=ORIENTED_EDGE('',*,*,#365,.F.);
#115=ORIENTED_EDGE('',*,*,#366,.F.);
#116=ORIENTED_EDGE('',*,*,#367,.F.);
#117=ORIENTED_EDGE('',*,*,#368,.T.);
#118=ORIENTED_EDGE('',*,*,#348,.F.);
#119=ORIENTED_EDGE('',*,*,#360,.F.);
#120=ORIENTED_EDGE('',*,*,#356,.F.);
#121=ORIENTED_EDGE('',*,*,#350,.F.);
#122=ORIENTED_EDGE('',*,*,#369,.F.);
#123=ORIENTED_EDGE('',*,*,#370,.T.);
#124=ORIENTED_EDGE('',*,*,#371,.T.);
#125=ORIENTED_EDGE('',*,*,#372,.T.);
#126=ORIENTED_EDGE('',*,*,#373,.F.);
#127=ORIENTED_EDGE('',*,*,#346,.F.);
#128=ORIENTED_EDGE('',*,*,#374,.T.);
#129=ORIENTED_EDGE('',*,*,#375,.T.);
#130=ORIENTED_EDGE('',*,*,#376,.T.);
#131=ORIENTED_EDGE('',*,*,#377,.F.);
#132=ORIENTED_EDGE('',*,*,#378,.F.);
#133=ORIENTED_EDGE('',*,*,#379,.F.);
#134=ORIENTED_EDGE('',*,*,#380,.T.);
#135=ORIENTED_EDGE('',*,*,#381,.F.);
#136=ORIENTED_EDGE('',*,*,#382,.T.);
#137=ORIENTED_EDGE('',*,*,#383,.F.);
#138=ORIENTED_EDGE('',*,*,#384,.T.);
#139=ORIENTED_EDGE('',*,*,#385,.F.);
#140=ORIENTED_EDGE('',*,*,#386,.T.);
#141=ORIENTED_EDGE('',*,*,#387,.F.);
#142=ORIENTED_EDGE('',*,*,#388,.T.);
#143=ORIENTED_EDGE('',*,*,#389,.F.);
#144=ORIENTED_EDGE('',*,*,#390,.T.);
#145=ORIENTED_EDGE('',*,*,#391,.F.);
#146=ORIENTED_EDGE('',*,*,#382,.F.);
#147=ORIENTED_EDGE('',*,*,#392,.F.);
#148=ORIENTED_EDGE('',*,*,#390,.F.);
#149=ORIENTED_EDGE('',*,*,#351,.T.);
#150=ORIENTED_EDGE('',*,*,#392,.T.);
#151=ORIENTED_EDGE('',*,*,#381,.T.);
#152=ORIENTED_EDGE('',*,*,#385,.T.);
#153=ORIENTED_EDGE('',*,*,#387,.T.);
#154=ORIENTED_EDGE('',*,*,#393,.T.);
#155=ORIENTED_EDGE('',*,*,#394,.F.);
#156=ORIENTED_EDGE('',*,*,#374,.F.);
#157=ORIENTED_EDGE('',*,*,#394,.T.);
#158=ORIENTED_EDGE('',*,*,#393,.F.);
#159=ORIENTED_EDGE('',*,*,#395,.T.);
#160=ORIENTED_EDGE('',*,*,#396,.T.);
#161=ORIENTED_EDGE('',*,*,#397,.T.);
#162=ORIENTED_EDGE('',*,*,#395,.F.);
#163=ORIENTED_EDGE('',*,*,#398,.T.);
#164=ORIENTED_EDGE('',*,*,#399,.T.);
#165=ORIENTED_EDGE('',*,*,#400,.F.);
#166=ORIENTED_EDGE('',*,*,#397,.F.);
#167=ORIENTED_EDGE('',*,*,#400,.T.);
#168=ORIENTED_EDGE('',*,*,#401,.T.);
#169=ORIENTED_EDGE('',*,*,#398,.F.);
#170=ORIENTED_EDGE('',*,*,#396,.F.);
#171=ORIENTED_EDGE('',*,*,#399,.F.);
#172=ORIENTED_EDGE('',*,*,#401,.F.);
#173=ORIENTED_EDGE('',*,*,#402,.T.);
#174=ORIENTED_EDGE('',*,*,#403,.T.);
#175=ORIENTED_EDGE('',*,*,#404,.F.);
#176=ORIENTED_EDGE('',*,*,#405,.T.);
#177=ORIENTED_EDGE('',*,*,#404,.T.);
#178=ORIENTED_EDGE('',*,*,#406,.T.);
#179=ORIENTED_EDGE('',*,*,#379,.T.);
#180=ORIENTED_EDGE('',*,*,#407,.T.);
#181=ORIENTED_EDGE('',*,*,#389,.T.);
#182=ORIENTED_EDGE('',*,*,#408,.T.);
#183=ORIENTED_EDGE('',*,*,#409,.F.);
#184=ORIENTED_EDGE('',*,*,#410,.F.);
#185=ORIENTED_EDGE('',*,*,#409,.T.);
#186=ORIENTED_EDGE('',*,*,#411,.T.);
#187=ORIENTED_EDGE('',*,*,#412,.F.);
#188=ORIENTED_EDGE('',*,*,#413,.F.);
#189=ORIENTED_EDGE('',*,*,#412,.T.);
#190=ORIENTED_EDGE('',*,*,#414,.T.);
#191=ORIENTED_EDGE('',*,*,#415,.F.);
#192=ORIENTED_EDGE('',*,*,#416,.F.);
#193=ORIENTED_EDGE('',*,*,#415,.T.);
#194=ORIENTED_EDGE('',*,*,#417,.T.);
#195=ORIENTED_EDGE('',*,*,#418,.F.);
#196=ORIENTED_EDGE('',*,*,#419,.T.);
#197=ORIENTED_EDGE('',*,*,#418,.T.);
#198=ORIENTED_EDGE('',*,*,#420,.T.);
#199=ORIENTED_EDGE('',*,*,#421,.F.);
#200=ORIENTED_EDGE('',*,*,#422,.F.);
#201=ORIENTED_EDGE('',*,*,#421,.T.);
#202=ORIENTED_EDGE('',*,*,#423,.T.);
#203=ORIENTED_EDGE('',*,*,#424,.F.);
#204=ORIENTED_EDGE('',*,*,#425,.T.);
#205=ORIENTED_EDGE('',*,*,#424,.T.);
#206=ORIENTED_EDGE('',*,*,#426,.T.);
#207=ORIENTED_EDGE('',*,*,#427,.F.);
#208=ORIENTED_EDGE('',*,*,#428,.T.);
#209=ORIENTED_EDGE('',*,*,#427,.T.);
#210=ORIENTED_EDGE('',*,*,#429,.T.);
#211=ORIENTED_EDGE('',*,*,#430,.F.);
#212=ORIENTED_EDGE('',*,*,#431,.F.);
#213=ORIENTED_EDGE('',*,*,#430,.T.);
#214=ORIENTED_EDGE('',*,*,#432,.T.);
#215=ORIENTED_EDGE('',*,*,#402,.F.);
#216=ORIENTED_EDGE('',*,*,#433,.T.);
#217=ORIENTED_EDGE('',*,*,#407,.F.);
#218=ORIENTED_EDGE('',*,*,#391,.T.);
#219=ORIENTED_EDGE('',*,*,#410,.T.);
#220=ORIENTED_EDGE('',*,*,#413,.T.);
#221=ORIENTED_EDGE('',*,*,#416,.T.);
#222=ORIENTED_EDGE('',*,*,#419,.F.);
#223=ORIENTED_EDGE('',*,*,#422,.T.);
#224=ORIENTED_EDGE('',*,*,#425,.F.);
#225=ORIENTED_EDGE('',*,*,#428,.F.);
#226=ORIENTED_EDGE('',*,*,#431,.T.);
#227=ORIENTED_EDGE('',*,*,#433,.F.);
#228=ORIENTED_EDGE('',*,*,#405,.F.);
#229=ORIENTED_EDGE('',*,*,#434,.T.);
#230=ORIENTED_EDGE('',*,*,#435,.T.);
#231=ORIENTED_EDGE('',*,*,#383,.T.);
#232=ORIENTED_EDGE('',*,*,#436,.T.);
#233=ORIENTED_EDGE('',*,*,#437,.T.);
#234=ORIENTED_EDGE('',*,*,#438,.T.);
#235=ORIENTED_EDGE('',*,*,#439,.T.);
#236=ORIENTED_EDGE('',*,*,#440,.T.);
#237=ORIENTED_EDGE('',*,*,#441,.T.);
#238=ORIENTED_EDGE('',*,*,#442,.T.);
#239=ORIENTED_EDGE('',*,*,#443,.T.);
#240=ORIENTED_EDGE('',*,*,#444,.T.);
#241=ORIENTED_EDGE('',*,*,#386,.F.);
#242=ORIENTED_EDGE('',*,*,#380,.F.);
#243=ORIENTED_EDGE('',*,*,#445,.F.);
#244=ORIENTED_EDGE('',*,*,#445,.T.);
#245=ORIENTED_EDGE('',*,*,#406,.F.);
#246=ORIENTED_EDGE('',*,*,#446,.F.);
#247=ORIENTED_EDGE('',*,*,#436,.F.);
#248=ORIENTED_EDGE('',*,*,#446,.T.);
#249=ORIENTED_EDGE('',*,*,#403,.F.);
#250=ORIENTED_EDGE('',*,*,#447,.F.);
#251=ORIENTED_EDGE('',*,*,#437,.F.);
#252=ORIENTED_EDGE('',*,*,#447,.T.);
#253=ORIENTED_EDGE('',*,*,#432,.F.);
#254=ORIENTED_EDGE('',*,*,#448,.F.);
#255=ORIENTED_EDGE('',*,*,#438,.F.);
#256=ORIENTED_EDGE('',*,*,#448,.T.);
#257=ORIENTED_EDGE('',*,*,#429,.F.);
#258=ORIENTED_EDGE('',*,*,#449,.F.);
#259=ORIENTED_EDGE('',*,*,#439,.F.);
#260=ORIENTED_EDGE('',*,*,#449,.T.);
#261=ORIENTED_EDGE('',*,*,#426,.F.);
#262=ORIENTED_EDGE('',*,*,#450,.F.);
#263=ORIENTED_EDGE('',*,*,#440,.F.);
#264=ORIENTED_EDGE('',*,*,#450,.T.);
#265=ORIENTED_EDGE('',*,*,#423,.F.);
#266=ORIENTED_EDGE('',*,*,#451,.F.);
#267=ORIENTED_EDGE('',*,*,#441,.F.);
#268=ORIENTED_EDGE('',*,*,#451,.T.);
#269=ORIENTED_EDGE('',*,*,#420,.F.);
#270=ORIENTED_EDGE('',*,*,#452,.F.);
#271=ORIENTED_EDGE('',*,*,#442,.F.);
#272=ORIENTED_EDGE('',*,*,#452,.T.);
#273=ORIENTED_EDGE('',*,*,#417,.F.);
#274=ORIENTED_EDGE('',*,*,#453,.F.);
#275=ORIENTED_EDGE('',*,*,#443,.F.);
#276=ORIENTED_EDGE('',*,*,#453,.T.);
#277=ORIENTED_EDGE('',*,*,#414,.F.);
#278=ORIENTED_EDGE('',*,*,#454,.F.);
#279=ORIENTED_EDGE('',*,*,#444,.F.);
#280=ORIENTED_EDGE('',*,*,#454,.T.);
#281=ORIENTED_EDGE('',*,*,#411,.F.);
#282=ORIENTED_EDGE('',*,*,#455,.F.);
#283=ORIENTED_EDGE('',*,*,#434,.F.);
#284=ORIENTED_EDGE('',*,*,#455,.T.);
#285=ORIENTED_EDGE('',*,*,#408,.F.);
#286=ORIENTED_EDGE('',*,*,#456,.F.);
#287=ORIENTED_EDGE('',*,*,#435,.F.);
#288=ORIENTED_EDGE('',*,*,#456,.T.);
#289=ORIENTED_EDGE('',*,*,#388,.F.);
#290=ORIENTED_EDGE('',*,*,#384,.F.);
#291=ORIENTED_EDGE('',*,*,#369,.T.);
#292=ORIENTED_EDGE('',*,*,#349,.T.);
#293=ORIENTED_EDGE('',*,*,#368,.F.);
#294=ORIENTED_EDGE('',*,*,#457,.T.);
#295=ORIENTED_EDGE('',*,*,#370,.F.);
#296=ORIENTED_EDGE('',*,*,#457,.F.);
#297=ORIENTED_EDGE('',*,*,#367,.T.);
#298=ORIENTED_EDGE('',*,*,#458,.T.);
#299=ORIENTED_EDGE('',*,*,#371,.F.);
#300=ORIENTED_EDGE('',*,*,#458,.F.);
#301=ORIENTED_EDGE('',*,*,#366,.T.);
#302=ORIENTED_EDGE('',*,*,#459,.T.);
#303=ORIENTED_EDGE('',*,*,#372,.F.);
#304=ORIENTED_EDGE('',*,*,#459,.F.);
#305=ORIENTED_EDGE('',*,*,#365,.T.);
#306=ORIENTED_EDGE('',*,*,#460,.T.);
#307=ORIENTED_EDGE('',*,*,#364,.F.);
#308=ORIENTED_EDGE('',*,*,#343,.T.);
#309=ORIENTED_EDGE('',*,*,#373,.T.);
#310=ORIENTED_EDGE('',*,*,#460,.F.);
#311=ORIENTED_EDGE('',*,*,#375,.F.);
#312=ORIENTED_EDGE('',*,*,#461,.F.);
#313=ORIENTED_EDGE('',*,*,#462,.T.);
#314=ORIENTED_EDGE('',*,*,#463,.F.);
#315=ORIENTED_EDGE('',*,*,#361,.T.);
#316=ORIENTED_EDGE('',*,*,#359,.F.);
#317=ORIENTED_EDGE('',*,*,#353,.F.);
#318=ORIENTED_EDGE('',*,*,#464,.T.);
#319=ORIENTED_EDGE('',*,*,#378,.T.);
#320=ORIENTED_EDGE('',*,*,#465,.F.);
#321=ORIENTED_EDGE('',*,*,#466,.F.);
#322=ORIENTED_EDGE('',*,*,#461,.T.);
#323=ORIENTED_EDGE('',*,*,#377,.T.);
#324=ORIENTED_EDGE('',*,*,#467,.F.);
#325=ORIENTED_EDGE('',*,*,#355,.T.);
#326=ORIENTED_EDGE('',*,*,#358,.T.);
#327=ORIENTED_EDGE('',*,*,#363,.F.);
#328=ORIENTED_EDGE('',*,*,#468,.T.);
#329=ORIENTED_EDGE('',*,*,#469,.F.);
#330=ORIENTED_EDGE('',*,*,#465,.T.);
#331=ORIENTED_EDGE('',*,*,#470,.F.);
#332=ORIENTED_EDGE('',*,*,#462,.F.);
#333=ORIENTED_EDGE('',*,*,#466,.T.);
#334=ORIENTED_EDGE('',*,*,#469,.T.);
#335=ORIENTED_EDGE('',*,*,#470,.T.);
#336=ORIENTED_EDGE('',*,*,#468,.F.);
#337=ORIENTED_EDGE('',*,*,#362,.F.);
#338=ORIENTED_EDGE('',*,*,#463,.T.);
#339=ORIENTED_EDGE('',*,*,#467,.T.);
#340=ORIENTED_EDGE('',*,*,#376,.F.);
#341=ORIENTED_EDGE('',*,*,#464,.F.);
#342=ORIENTED_EDGE('',*,*,#352,.F.);
#343=EDGE_CURVE('',#471,#472,#552,.T.);
#344=EDGE_CURVE('',#471,#473,#70,.F.);
#345=EDGE_CURVE('',#474,#473,#553,.T.);
#346=EDGE_CURVE('',#474,#472,#71,.F.);
#347=EDGE_CURVE('',#475,#476,#57,.F.);
#348=EDGE_CURVE('',#475,#477,#58,.F.);
#349=EDGE_CURVE('',#478,#477,#59,.T.);
#350=EDGE_CURVE('',#478,#476,#60,.F.);
#351=EDGE_CURVE('',#479,#479,#72,.T.);
#352=EDGE_CURVE('',#480,#481,#61,.T.);
#353=EDGE_CURVE('',#481,#482,#62,.T.);
#354=EDGE_CURVE('',#483,#482,#73,.F.);
#355=EDGE_CURVE('',#480,#483,#63,.T.);
#356=EDGE_CURVE('',#476,#474,#74,.T.);
#357=EDGE_CURVE('',#473,#484,#75,.T.);
#358=EDGE_CURVE('',#483,#484,#554,.F.);
#359=EDGE_CURVE('',#482,#485,#555,.F.);
#360=EDGE_CURVE('',#485,#475,#76,.T.);
#361=EDGE_CURVE('',#486,#485,#556,.T.);
#362=EDGE_CURVE('',#486,#487,#557,.T.);
#363=EDGE_CURVE('',#487,#484,#558,.T.);
#364=EDGE_CURVE('',#471,#488,#559,.T.);
#365=EDGE_CURVE('',#489,#488,#77,.T.);
#366=EDGE_CURVE('',#490,#489,#560,.T.);
#367=EDGE_CURVE('',#491,#490,#78,.T.);
#368=EDGE_CURVE('',#491,#477,#561,.T.);
#369=EDGE_CURVE('',#492,#478,#562,.T.);
#370=EDGE_CURVE('',#492,#493,#79,.T.);
#371=EDGE_CURVE('',#493,#494,#563,.T.);
#372=EDGE_CURVE('',#494,#495,#80,.T.);
#373=EDGE_CURVE('',#472,#495,#564,.T.);
#374=EDGE_CURVE('',#496,#496,#81,.T.);
#375=EDGE_CURVE('',#497,#498,#565,.T.);
#376=EDGE_CURVE('',#498,#499,#566,.T.);
#377=EDGE_CURVE('',#500,#499,#567,.T.);
#378=EDGE_CURVE('',#497,#500,#568,.T.);
#379=EDGE_CURVE('',#501,#502,#569,.T.);
#380=EDGE_CURVE('',#501,#503,#64,.T.);
#381=EDGE_CURVE('',#504,#503,#570,.F.);
#382=EDGE_CURVE('',#504,#502,#14,.T.);
#383=EDGE_CURVE('',#505,#506,#571,.F.);
#384=EDGE_CURVE('',#505,#507,#65,.T.);
#385=EDGE_CURVE('',#503,#507,#572,.T.);
#386=EDGE_CURVE('',#503,#506,#66,.T.);
#387=EDGE_CURVE('',#507,#508,#573,.F.);
#388=EDGE_CURVE('',#507,#509,#67,.T.);
#389=EDGE_CURVE('',#510,#509,#574,.T.);
#390=EDGE_CURVE('',#510,#508,#15,.F.);
#391=EDGE_CURVE('',#502,#510,#575,.F.);
#392=EDGE_CURVE('',#508,#504,#576,.T.);
#393=EDGE_CURVE('',#511,#511,#82,.T.);
#394=EDGE_CURVE('',#512,#512,#83,.T.);
#395=EDGE_CURVE('',#513,#513,#84,.T.);
#396=EDGE_CURVE('',#514,#515,#577,.T.);
#397=EDGE_CURVE('',#515,#514,#85,.T.);
#398=EDGE_CURVE('',#515,#516,#578,.T.);
#399=EDGE_CURVE('',#516,#517,#86,.T.);
#400=EDGE_CURVE('',#514,#517,#579,.T.);
#401=EDGE_CURVE('',#517,#516,#580,.T.);
#402=EDGE_CURVE('',#518,#519,#581,.T.);
#403=EDGE_CURVE('',#519,#520,#582,.T.);
#404=EDGE_CURVE('',#521,#520,#583,.T.);
#405=EDGE_CURVE('',#521,#518,#584,.T.);
#406=EDGE_CURVE('',#520,#501,#585,.T.);
#407=EDGE_CURVE('',#502,#521,#586,.T.);
#408=EDGE_CURVE('',#509,#522,#587,.T.);
#409=EDGE_CURVE('',#523,#522,#588,.T.);
#410=EDGE_CURVE('',#510,#523,#589,.T.);
#411=EDGE_CURVE('',#522,#524,#590,.T.);
#412=EDGE_CURVE('',#525,#524,#591,.T.);
#413=EDGE_CURVE('',#523,#525,#592,.T.);
#414=EDGE_CURVE('',#524,#526,#593,.T.);
#415=EDGE_CURVE('',#527,#526,#594,.T.);
#416=EDGE_CURVE('',#525,#527,#595,.T.);
#417=EDGE_CURVE('',#526,#528,#596,.T.);
#418=EDGE_CURVE('',#529,#528,#597,.T.);
#419=EDGE_CURVE('',#529,#527,#598,.T.);
#420=EDGE_CURVE('',#528,#530,#599,.T.);
#421=EDGE_CURVE('',#531,#530,#600,.T.);
#422=EDGE_CURVE('',#529,#531,#601,.T.);
#423=EDGE_CURVE('',#530,#532,#602,.T.);
#424=EDGE_CURVE('',#533,#532,#603,.T.);
#425=EDGE_CURVE('',#533,#531,#604,.T.);
#426=EDGE_CURVE('',#532,#534,#605,.T.);
#427=EDGE_CURVE('',#535,#534,#606,.T.);
#428=EDGE_CURVE('',#535,#533,#607,.T.);
#429=EDGE_CURVE('',#534,#536,#608,.T.);
#430=EDGE_CURVE('',#537,#536,#609,.T.);
#431=EDGE_CURVE('',#535,#537,#610,.T.);
#432=EDGE_CURVE('',#536,#519,#611,.T.);
#433=EDGE_CURVE('',#518,#537,#612,.T.);
#434=EDGE_CURVE('',#538,#539,#613,.T.);
#435=EDGE_CURVE('',#539,#505,#614,.T.);
#436=EDGE_CURVE('',#506,#540,#615,.T.);
#437=EDGE_CURVE('',#540,#541,#616,.T.);
#438=EDGE_CURVE('',#541,#542,#617,.T.);
#439=EDGE_CURVE('',#542,#543,#618,.T.);
#440=EDGE_CURVE('',#543,#544,#619,.T.);
#441=EDGE_CURVE('',#544,#545,#620,.T.);
#442=EDGE_CURVE('',#545,#546,#621,.T.);
#443=EDGE_CURVE('',#546,#547,#622,.T.);
#444=EDGE_CURVE('',#547,#538,#623,.T.);
#445=EDGE_CURVE('',#506,#501,#68,.T.);
#446=EDGE_CURVE('',#540,#520,#624,.F.);
#447=EDGE_CURVE('',#541,#519,#625,.F.);
#448=EDGE_CURVE('',#542,#536,#626,.T.);
#449=EDGE_CURVE('',#543,#534,#627,.T.);
#450=EDGE_CURVE('',#544,#532,#628,.F.);
#451=EDGE_CURVE('',#545,#530,#629,.T.);
#452=EDGE_CURVE('',#546,#528,#630,.T.);
#453=EDGE_CURVE('',#547,#526,#631,.T.);
#454=EDGE_CURVE('',#538,#524,#632,.F.);
#455=EDGE_CURVE('',#539,#522,#633,.F.);
#456=EDGE_CURVE('',#505,#509,#69,.F.);
#457=EDGE_CURVE('',#491,#492,#634,.T.);
#458=EDGE_CURVE('',#490,#493,#635,.T.);
#459=EDGE_CURVE('',#489,#494,#636,.T.);
#460=EDGE_CURVE('',#488,#495,#637,.T.);
#461=EDGE_CURVE('',#548,#497,#638,.T.);
#462=EDGE_CURVE('',#548,#549,#639,.T.);
#463=EDGE_CURVE('',#486,#549,#640,.T.);
#464=EDGE_CURVE('',#481,#498,#641,.T.);
#465=EDGE_CURVE('',#550,#500,#642,.T.);
#466=EDGE_CURVE('',#548,#550,#643,.T.);
#467=EDGE_CURVE('',#480,#499,#644,.T.);
#468=EDGE_CURVE('',#487,#551,#645,.T.);
#469=EDGE_CURVE('',#550,#551,#646,.T.);
#470=EDGE_CURVE('',#549,#551,#647,.T.);
#471=VERTEX_POINT('',#1267);
#472=VERTEX_POINT('',#1268);
#473=VERTEX_POINT('',#1270);
#474=VERTEX_POINT('',#1272);
#475=VERTEX_POINT('',#1279);
#476=VERTEX_POINT('',#1280);
#477=VERTEX_POINT('',#1285);
#478=VERTEX_POINT('',#1290);
#479=VERTEX_POINT('',#1297);
#480=VERTEX_POINT('',#1303);
#481=VERTEX_POINT('',#1304);
#482=VERTEX_POINT('',#1309);
#483=VERTEX_POINT('',#1311);
#484=VERTEX_POINT('',#1319);
#485=VERTEX_POINT('',#1322);
#486=VERTEX_POINT('',#1326);
#487=VERTEX_POINT('',#1328);
#488=VERTEX_POINT('',#1331);
#489=VERTEX_POINT('',#1333);
#490=VERTEX_POINT('',#1335);
#491=VERTEX_POINT('',#1337);
#492=VERTEX_POINT('',#1341);
#493=VERTEX_POINT('',#1343);
#494=VERTEX_POINT('',#1345);
#495=VERTEX_POINT('',#1347);
#496=VERTEX_POINT('',#1350);
#497=VERTEX_POINT('',#1352);
#498=VERTEX_POINT('',#1353);
#499=VERTEX_POINT('',#1355);
#500=VERTEX_POINT('',#1357);
#501=VERTEX_POINT('',#1361);
#502=VERTEX_POINT('',#1362);
#503=VERTEX_POINT('',#1375);
#504=VERTEX_POINT('',#1377);
#505=VERTEX_POINT('',#1381);
#506=VERTEX_POINT('',#1382);
#507=VERTEX_POINT('',#1395);
#508=VERTEX_POINT('',#1411);
#509=VERTEX_POINT('',#1424);
#510=VERTEX_POINT('',#1426);
#511=VERTEX_POINT('',#1434);
#512=VERTEX_POINT('',#1436);
#513=VERTEX_POINT('',#1440);
#514=VERTEX_POINT('',#1443);
#515=VERTEX_POINT('',#1444);
#516=VERTEX_POINT('',#1448);
#517=VERTEX_POINT('',#1450);
#518=VERTEX_POINT('',#1457);
#519=VERTEX_POINT('',#1458);
#520=VERTEX_POINT('',#1460);
#521=VERTEX_POINT('',#1462);
#522=VERTEX_POINT('',#1469);
#523=VERTEX_POINT('',#1471);
#524=VERTEX_POINT('',#1475);
#525=VERTEX_POINT('',#1477);
#526=VERTEX_POINT('',#1481);
#527=VERTEX_POINT('',#1483);
#528=VERTEX_POINT('',#1487);
#529=VERTEX_POINT('',#1489);
#530=VERTEX_POINT('',#1493);
#531=VERTEX_POINT('',#1495);
#532=VERTEX_POINT('',#1499);
#533=VERTEX_POINT('',#1501);
#534=VERTEX_POINT('',#1505);
#535=VERTEX_POINT('',#1507);
#536=VERTEX_POINT('',#1511);
#537=VERTEX_POINT('',#1513);
#538=VERTEX_POINT('',#1521);
#539=VERTEX_POINT('',#1522);
#540=VERTEX_POINT('',#1525);
#541=VERTEX_POINT('',#1527);
#542=VERTEX_POINT('',#1529);
#543=VERTEX_POINT('',#1531);
#544=VERTEX_POINT('',#1533);
#545=VERTEX_POINT('',#1535);
#546=VERTEX_POINT('',#1537);
#547=VERTEX_POINT('',#1539);
#548=VERTEX_POINT('',#1605);
#549=VERTEX_POINT('',#1607);
#550=VERTEX_POINT('',#1612);
#551=VERTEX_POINT('',#1617);
#552=LINE('',#1266,#648);
#553=LINE('',#1271,#649);
#554=LINE('',#1320,#650);
#555=LINE('',#1321,#651);
#556=LINE('',#1325,#652);
#557=LINE('',#1327,#653);
#558=LINE('',#1329,#654);
#559=LINE('',#1330,#655);
#560=LINE('',#1334,#656);
#561=LINE('',#1338,#657);
#562=LINE('',#1340,#658);
#563=LINE('',#1344,#659);
#564=LINE('',#1348,#660);
#565=LINE('',#1351,#661);
#566=LINE('',#1354,#662);
#567=LINE('',#1356,#663);
#568=LINE('',#1358,#664);
#569=LINE('',#1360,#665);
#570=LINE('',#1376,#666);
#571=LINE('',#1380,#667);
#572=LINE('',#1396,#668);
#573=LINE('',#1410,#669);
#574=LINE('',#1425,#670);
#575=LINE('',#1429,#671);
#576=LINE('',#1430,#672);
#577=LINE('',#1442,#673);
#578=LINE('',#1447,#674);
#579=LINE('',#1451,#675);
#580=LINE('',#1453,#676);
#581=LINE('',#1456,#677);
#582=LINE('',#1459,#678);
#583=LINE('',#1461,#679);
#584=LINE('',#1463,#680);
#585=LINE('',#1465,#681);
#586=LINE('',#1466,#682);
#587=LINE('',#1468,#683);
#588=LINE('',#1470,#684);
#589=LINE('',#1472,#685);
#590=LINE('',#1474,#686);
#591=LINE('',#1476,#687);
#592=LINE('',#1478,#688);
#593=LINE('',#1480,#689);
#594=LINE('',#1482,#690);
#595=LINE('',#1484,#691);
#596=LINE('',#1486,#692);
#597=LINE('',#1488,#693);
#598=LINE('',#1490,#694);
#599=LINE('',#1492,#695);
#600=LINE('',#1494,#696);
#601=LINE('',#1496,#697);
#602=LINE('',#1498,#698);
#603=LINE('',#1500,#699);
#604=LINE('',#1502,#700);
#605=LINE('',#1504,#701);
#606=LINE('',#1506,#702);
#607=LINE('',#1508,#703);
#608=LINE('',#1510,#704);
#609=LINE('',#1512,#705);
#610=LINE('',#1514,#706);
#611=LINE('',#1516,#707);
#612=LINE('',#1517,#708);
#613=LINE('',#1520,#709);
#614=LINE('',#1523,#710);
#615=LINE('',#1524,#711);
#616=LINE('',#1526,#712);
#617=LINE('',#1528,#713);
#618=LINE('',#1530,#714);
#619=LINE('',#1532,#715);
#620=LINE('',#1534,#716);
#621=LINE('',#1536,#717);
#622=LINE('',#1538,#718);
#623=LINE('',#1540,#719);
#624=LINE('',#1558,#720);
#625=LINE('',#1560,#721);
#626=LINE('',#1562,#722);
#627=LINE('',#1564,#723);
#628=LINE('',#1566,#724);
#629=LINE('',#1568,#725);
#630=LINE('',#1570,#726);
#631=LINE('',#1572,#727);
#632=LINE('',#1574,#728);
#633=LINE('',#1576,#729);
#634=LINE('',#1595,#730);
#635=LINE('',#1597,#731);
#636=LINE('',#1599,#732);
#637=LINE('',#1601,#733);
#638=LINE('',#1604,#734);
#639=LINE('',#1606,#735);
#640=LINE('',#1608,#736);
#641=LINE('',#1609,#737);
#642=LINE('',#1611,#738);
#643=LINE('',#1613,#739);
#644=LINE('',#1615,#740);
#645=LINE('',#1616,#741);
#646=LINE('',#1618,#742);
#647=LINE('',#1620,#743);
#648=VECTOR('',#1026,1.);
#649=VECTOR('',#1029,1.);
#650=VECTOR('',#1046,1.);
#651=VECTOR('',#1047,1.);
#652=VECTOR('',#1052,1.);
#653=VECTOR('',#1053,1.);
#654=VECTOR('',#1054,1.);
#655=VECTOR('',#1055,1.);
#656=VECTOR('',#1058,1.);
#657=VECTOR('',#1061,1.);
#658=VECTOR('',#1064,1.);
#659=VECTOR('',#1067,1.);
#660=VECTOR('',#1070,1.);
#661=VECTOR('',#1073,1.);
#662=VECTOR('',#1074,1.);
#663=VECTOR('',#1075,1.);
#664=VECTOR('',#1076,1.);
#665=VECTOR('',#1079,1.);
#666=VECTOR('',#1080,1.);
#667=VECTOR('',#1085,1.);
#668=VECTOR('',#1086,1.);
#669=VECTOR('',#1089,1.);
#670=VECTOR('',#1090,1.);
#671=VECTOR('',#1095,1.);
#672=VECTOR('',#1096,1.);
#673=VECTOR('',#1113,1.);
#674=VECTOR('',#1118,1.);
#675=VECTOR('',#1121,1.);
#676=VECTOR('',#1124,1.);
#677=VECTOR('',#1129,1.);
#678=VECTOR('',#1130,1.);
#679=VECTOR('',#1131,1.);
#680=VECTOR('',#1132,1.);
#681=VECTOR('',#1135,1.);
#682=VECTOR('',#1136,1.);
#683=VECTOR('',#1139,1.);
#684=VECTOR('',#1140,1.);
#685=VECTOR('',#1141,1.);
#686=VECTOR('',#1144,1.);
#687=VECTOR('',#1145,1.);
#688=VECTOR('',#1146,1.);
#689=VECTOR('',#1149,1.);
#690=VECTOR('',#1150,1.);
#691=VECTOR('',#1151,1.);
#692=VECTOR('',#1154,1.);
#693=VECTOR('',#1155,1.);
#694=VECTOR('',#1156,1.);
#695=VECTOR('',#1159,1.);
#696=VECTOR('',#1160,1.);
#697=VECTOR('',#1161,1.);
#698=VECTOR('',#1164,1.);
#699=VECTOR('',#1165,1.);
#700=VECTOR('',#1166,1.);
#701=VECTOR('',#1169,1.);
#702=VECTOR('',#1170,1.);
#703=VECTOR('',#1171,1.);
#704=VECTOR('',#1174,1.);
#705=VECTOR('',#1175,1.);
#706=VECTOR('',#1176,1.);
#707=VECTOR('',#1179,1.);
#708=VECTOR('',#1180,1.);
#709=VECTOR('',#1185,1.);
#710=VECTOR('',#1186,1.);
#711=VECTOR('',#1187,1.);
#712=VECTOR('',#1188,1.);
#713=VECTOR('',#1189,1.);
#714=VECTOR('',#1190,1.);
#715=VECTOR('',#1191,1.);
#716=VECTOR('',#1192,1.);
#717=VECTOR('',#1193,1.);
#718=VECTOR('',#1194,1.);
#719=VECTOR('',#1195,1.);
#720=VECTOR('',#1198,1.);
#721=VECTOR('',#1201,1.);
#722=VECTOR('',#1204,1.);
#723=VECTOR('',#1207,1.);
#724=VECTOR('',#1210,1.);
#725=VECTOR('',#1213,1.);
#726=VECTOR('',#1216,1.);
#727=VECTOR('',#1219,1.);
#728=VECTOR('',#1222,1.);
#729=VECTOR('',#1225,1.);
#730=VECTOR('',#1230,1.);
#731=VECTOR('',#1233,1.);
#732=VECTOR('',#1236,1.);
#733=VECTOR('',#1239,1.);
#734=VECTOR('',#1244,1.);
#735=VECTOR('',#1245,1.);
#736=VECTOR('',#1246,1.);
#737=VECTOR('',#1247,1.);
#738=VECTOR('',#1250,1.);
#739=VECTOR('',#1251,1.);
#740=VECTOR('',#1254,1.);
#741=VECTOR('',#1255,1.);
#742=VECTOR('',#1256,1.);
#743=VECTOR('',#1259,1.);
#744=EDGE_LOOP('',(#87,#88,#89,#90));
#745=EDGE_LOOP('',(#91,#92,#93,#94));
#746=EDGE_LOOP('',(#95));
#747=EDGE_LOOP('',(#96,#97,#98,#99));
#748=EDGE_LOOP('',(#100,#101,#102,#103,#104,#105,#106,#107));
#749=EDGE_LOOP('',(#108,#109,#110,#111,#112,#113,#114,#115,#116,#117,#118,
#119));
#750=EDGE_LOOP('',(#120,#121,#122,#123,#124,#125,#126,#127));
#751=EDGE_LOOP('',(#128));
#752=EDGE_LOOP('',(#129,#130,#131,#132));
#753=EDGE_LOOP('',(#133,#134,#135,#136));
#754=EDGE_LOOP('',(#137,#138,#139,#140));
#755=EDGE_LOOP('',(#141,#142,#143,#144));
#756=EDGE_LOOP('',(#145,#146,#147,#148));
#757=EDGE_LOOP('',(#149));
#758=EDGE_LOOP('',(#150,#151,#152,#153));
#759=EDGE_LOOP('',(#154));
#760=EDGE_LOOP('',(#155));
#761=EDGE_LOOP('',(#156));
#762=EDGE_LOOP('',(#157));
#763=EDGE_LOOP('',(#158));
#764=EDGE_LOOP('',(#159));
#765=EDGE_LOOP('',(#160,#161));
#766=EDGE_LOOP('',(#162));
#767=EDGE_LOOP('',(#163,#164,#165,#166));
#768=EDGE_LOOP('',(#167,#168,#169,#170));
#769=EDGE_LOOP('',(#171,#172));
#770=EDGE_LOOP('',(#173,#174,#175,#176));
#771=EDGE_LOOP('',(#177,#178,#179,#180));
#772=EDGE_LOOP('',(#181,#182,#183,#184));
#773=EDGE_LOOP('',(#185,#186,#187,#188));
#774=EDGE_LOOP('',(#189,#190,#191,#192));
#775=EDGE_LOOP('',(#193,#194,#195,#196));
#776=EDGE_LOOP('',(#197,#198,#199,#200));
#777=EDGE_LOOP('',(#201,#202,#203,#204));
#778=EDGE_LOOP('',(#205,#206,#207,#208));
#779=EDGE_LOOP('',(#209,#210,#211,#212));
#780=EDGE_LOOP('',(#213,#214,#215,#216));
#781=EDGE_LOOP('',(#217,#218,#219,#220,#221,#222,#223,#224,#225,#226,#227,
#228));
#782=EDGE_LOOP('',(#229,#230,#231,#232,#233,#234,#235,#236,#237,#238,#239,
#240));
#783=EDGE_LOOP('',(#241,#242,#243));
#784=EDGE_LOOP('',(#244,#245,#246,#247));
#785=EDGE_LOOP('',(#248,#249,#250,#251));
#786=EDGE_LOOP('',(#252,#253,#254,#255));
#787=EDGE_LOOP('',(#256,#257,#258,#259));
#788=EDGE_LOOP('',(#260,#261,#262,#263));
#789=EDGE_LOOP('',(#264,#265,#266,#267));
#790=EDGE_LOOP('',(#268,#269,#270,#271));
#791=EDGE_LOOP('',(#272,#273,#274,#275));
#792=EDGE_LOOP('',(#276,#277,#278,#279));
#793=EDGE_LOOP('',(#280,#281,#282,#283));
#794=EDGE_LOOP('',(#284,#285,#286,#287));
#795=EDGE_LOOP('',(#288,#289,#290));
#796=EDGE_LOOP('',(#291,#292,#293,#294));
#797=EDGE_LOOP('',(#295,#296,#297,#298));
#798=EDGE_LOOP('',(#299,#300,#301,#302));
#799=EDGE_LOOP('',(#303,#304,#305,#306));
#800=EDGE_LOOP('',(#307,#308,#309,#310));
#801=EDGE_LOOP('',(#311,#312,#313,#314,#315,#316,#317,#318));
#802=EDGE_LOOP('',(#319,#320,#321,#322));
#803=EDGE_LOOP('',(#323,#324,#325,#326,#327,#328,#329,#330));
#804=EDGE_LOOP('',(#331,#332,#333,#334));
#805=EDGE_LOOP('',(#335,#336,#337,#338));
#806=EDGE_LOOP('',(#339,#340,#341,#342));
#807=FACE_BOUND('',#744,.T.);
#808=FACE_BOUND('',#745,.T.);
#809=FACE_BOUND('',#746,.T.);
#810=FACE_BOUND('',#747,.T.);
#811=FACE_BOUND('',#748,.T.);
#812=FACE_BOUND('',#749,.T.);
#813=FACE_BOUND('',#750,.T.);
#814=FACE_BOUND('',#751,.T.);
#815=FACE_BOUND('',#752,.T.);
#816=FACE_BOUND('',#753,.T.);
#817=FACE_BOUND('',#754,.T.);
#818=FACE_BOUND('',#755,.T.);
#819=FACE_BOUND('',#756,.T.);
#820=FACE_BOUND('',#757,.T.);
#821=FACE_BOUND('',#758,.T.);
#822=FACE_BOUND('',#759,.T.);
#823=FACE_BOUND('',#760,.T.);
#824=FACE_BOUND('',#761,.T.);
#825=FACE_BOUND('',#762,.T.);
#826=FACE_BOUND('',#763,.T.);
#827=FACE_BOUND('',#764,.T.);
#828=FACE_BOUND('',#765,.T.);
#829=FACE_BOUND('',#766,.T.);
#830=FACE_BOUND('',#767,.T.);
#831=FACE_BOUND('',#768,.T.);
#832=FACE_BOUND('',#769,.T.);
#833=FACE_BOUND('',#770,.T.);
#834=FACE_BOUND('',#771,.T.);
#835=FACE_BOUND('',#772,.T.);
#836=FACE_BOUND('',#773,.T.);
#837=FACE_BOUND('',#774,.T.);
#838=FACE_BOUND('',#775,.T.);
#839=FACE_BOUND('',#776,.T.);
#840=FACE_BOUND('',#777,.T.);
#841=FACE_BOUND('',#778,.T.);
#842=FACE_BOUND('',#779,.T.);
#843=FACE_BOUND('',#780,.T.);
#844=FACE_BOUND('',#781,.T.);
#845=FACE_BOUND('',#782,.T.);
#846=FACE_BOUND('',#783,.T.);
#847=FACE_BOUND('',#784,.T.);
#848=FACE_BOUND('',#785,.T.);
#849=FACE_BOUND('',#786,.T.);
#850=FACE_BOUND('',#787,.T.);
#851=FACE_BOUND('',#788,.T.);
#852=FACE_BOUND('',#789,.T.);
#853=FACE_BOUND('',#790,.T.);
#854=FACE_BOUND('',#791,.T.);
#855=FACE_BOUND('',#792,.T.);
#856=FACE_BOUND('',#793,.T.);
#857=FACE_BOUND('',#794,.T.);
#858=FACE_BOUND('',#795,.T.);
#859=FACE_BOUND('',#796,.T.);
#860=FACE_BOUND('',#797,.T.);
#861=FACE_BOUND('',#798,.T.);
#862=FACE_BOUND('',#799,.T.);
#863=FACE_BOUND('',#800,.T.);
#864=FACE_BOUND('',#801,.T.);
#865=FACE_BOUND('',#802,.T.);
#866=FACE_BOUND('',#803,.T.);
#867=FACE_BOUND('',#804,.T.);
#868=FACE_BOUND('',#805,.T.);
#869=FACE_BOUND('',#806,.T.);
#870=CYLINDRICAL_SURFACE('',#950,0.00185203600602645);
#871=CYLINDRICAL_SURFACE('',#953,0.00185203600601525);
#872=CYLINDRICAL_SURFACE('',#957,0.0375);
#873=CYLINDRICAL_SURFACE('',#968,0.0014142135623731);
#874=CYLINDRICAL_SURFACE('',#970,0.00141421356237317);
#875=CYLINDRICAL_SURFACE('',#971,0.0014142135623731);
#876=CYLINDRICAL_SURFACE('',#973,0.0014142135623731);
#877=CYLINDRICAL_SURFACE('',#978,0.03505);
#878=CYLINDRICAL_SURFACE('',#979,0.02495);
#879=CYLINDRICAL_SURFACE('',#983,0.00265);
#880=CYLINDRICAL_SURFACE('',#1012,0.002);
#881=CYLINDRICAL_SURFACE('',#1014,0.002);
#882=ADVANCED_FACE('',(#807),#870,.F.);
#883=ADVANCED_FACE('',(#808),#871,.F.);
#884=ADVANCED_FACE('',(#809,#810),#56,.T.);
#885=ADVANCED_FACE('',(#811),#872,.T.);
#886=ADVANCED_FACE('',(#812),#16,.F.);
#887=ADVANCED_FACE('',(#813,#814,#815),#17,.F.);
#888=ADVANCED_FACE('',(#816),#873,.F.);
#889=ADVANCED_FACE('',(#817),#874,.F.);
#890=ADVANCED_FACE('',(#818),#875,.F.);
#891=ADVANCED_FACE('',(#819),#876,.F.);
#892=ADVANCED_FACE('',(#820,#821),#18,.T.);
#893=ADVANCED_FACE('',(#822,#823),#19,.F.);
#894=ADVANCED_FACE('',(#824,#825),#877,.F.);
#895=ADVANCED_FACE('',(#826,#827),#878,.T.);
#896=ADVANCED_FACE('',(#828,#829),#20,.F.);
#897=ADVANCED_FACE('',(#830),#879,.F.);
#898=ADVANCED_FACE('',(#831),#21,.F.);
#899=ADVANCED_FACE('',(#832),#22,.F.);
#900=ADVANCED_FACE('',(#833),#23,.T.);
#901=ADVANCED_FACE('',(#834),#24,.T.);
#902=ADVANCED_FACE('',(#835),#25,.F.);
#903=ADVANCED_FACE('',(#836),#26,.F.);
#904=ADVANCED_FACE('',(#837),#27,.F.);
#905=ADVANCED_FACE('',(#838),#28,.T.);
#906=ADVANCED_FACE('',(#839),#29,.F.);
#907=ADVANCED_FACE('',(#840),#30,.T.);
#908=ADVANCED_FACE('',(#841),#31,.T.);
#909=ADVANCED_FACE('',(#842),#32,.F.);
#910=ADVANCED_FACE('',(#843),#33,.T.);
#911=ADVANCED_FACE('',(#844),#34,.T.);
#912=ADVANCED_FACE('',(#845),#35,.F.);
#913=ADVANCED_FACE('',(#846),#12,.F.);
#914=ADVANCED_FACE('',(#847),#36,.T.);
#915=ADVANCED_FACE('',(#848),#37,.T.);
#916=ADVANCED_FACE('',(#849),#38,.T.);
#917=ADVANCED_FACE('',(#850),#39,.F.);
#918=ADVANCED_FACE('',(#851),#40,.T.);
#919=ADVANCED_FACE('',(#852),#41,.T.);
#920=ADVANCED_FACE('',(#853),#42,.F.);
#921=ADVANCED_FACE('',(#854),#43,.T.);
#922=ADVANCED_FACE('',(#855),#44,.F.);
#923=ADVANCED_FACE('',(#856),#45,.F.);
#924=ADVANCED_FACE('',(#857),#46,.F.);
#925=ADVANCED_FACE('',(#858),#13,.T.);
#926=ADVANCED_FACE('',(#859),#47,.F.);
#927=ADVANCED_FACE('',(#860),#880,.T.);
#928=ADVANCED_FACE('',(#861),#48,.T.);
#929=ADVANCED_FACE('',(#862),#881,.T.);
#930=ADVANCED_FACE('',(#863),#49,.F.);
#931=ADVANCED_FACE('',(#864),#50,.T.);
#932=ADVANCED_FACE('',(#865),#51,.F.);
#933=ADVANCED_FACE('',(#866),#52,.F.);
#934=ADVANCED_FACE('',(#867),#53,.T.);
#935=ADVANCED_FACE('',(#868),#54,.F.);
#936=ADVANCED_FACE('',(#869),#55,.T.);
#937=CLOSED_SHELL('',(#882,#883,#884,#885,#886,#887,#888,#889,#890,#891,
#892,#893,#894,#895,#896,#897,#898,#899,#900,#901,#902,#903,#904,#905,#906,
#907,#908,#909,#910,#911,#912,#913,#914,#915,#916,#917,#918,#919,#920,#921,
#922,#923,#924,#925,#926,#927,#928,#929,#930,#931,#932,#933,#934,#935,#936));
#938=STYLED_ITEM('',(#939),#946);
#939=PRESENTATION_STYLE_ASSIGNMENT((#940));
#940=SURFACE_STYLE_USAGE(.BOTH.,#941);
#941=SURFACE_SIDE_STYLE('',(#942));
#942=SURFACE_STYLE_FILL_AREA(#943);
#943=FILL_AREA_STYLE('',(#944));
#944=FILL_AREA_STYLE_COLOUR('',#945);
#945=COLOUR_RGB('',0.615686274509804,0.811764705882353,0.929411764705882);
#946=MANIFOLD_SOLID_BREP('top bearing cap',#937);
#947=SHAPE_DEFINITION_REPRESENTATION(#1629,#948);
#948=SHAPE_REPRESENTATION('top bearing cap',(#949),#1624);
#949=AXIS2_PLACEMENT_3D('',#1264,#1022,#1023);
#950=AXIS2_PLACEMENT_3D('',#1265,#1024,#1025);
#951=AXIS2_PLACEMENT_3D('',#1269,#1027,#1028);
#952=AXIS2_PLACEMENT_3D('',#1273,#1030,#1031);
#953=AXIS2_PLACEMENT_3D('',#1274,#1032,#1033);
#954=AXIS2_PLACEMENT_3D('',#1295,#1034,#1035);
#955=AXIS2_PLACEMENT_3D('',#1296,#1036,#1037);
#956=AXIS2_PLACEMENT_3D('',#1310,#1038,#1039);
#957=AXIS2_PLACEMENT_3D('',#1316,#1040,#1041);
#958=AXIS2_PLACEMENT_3D('',#1317,#1042,#1043);
#959=AXIS2_PLACEMENT_3D('',#1318,#1044,#1045);
#960=AXIS2_PLACEMENT_3D('',#1323,#1048,#1049);
#961=AXIS2_PLACEMENT_3D('',#1324,#1050,#1051);
#962=AXIS2_PLACEMENT_3D('',#1332,#1056,#1057);
#963=AXIS2_PLACEMENT_3D('',#1336,#1059,#1060);
#964=AXIS2_PLACEMENT_3D('',#1339,#1062,#1063);
#965=AXIS2_PLACEMENT_3D('',#1342,#1065,#1066);
#966=AXIS2_PLACEMENT_3D('',#1346,#1068,#1069);
#967=AXIS2_PLACEMENT_3D('',#1349,#1071,#1072);
#968=AXIS2_PLACEMENT_3D('',#1359,#1077,#1078);
#969=AXIS2_PLACEMENT_3D('',#1378,#1081,#1082);
#970=AXIS2_PLACEMENT_3D('',#1379,#1083,#1084);
#971=AXIS2_PLACEMENT_3D('',#1409,#1087,#1088);
#972=AXIS2_PLACEMENT_3D('',#1427,#1091,#1092);
#973=AXIS2_PLACEMENT_3D('',#1428,#1093,#1094);
#974=AXIS2_PLACEMENT_3D('',#1431,#1097,#1098);
#975=AXIS2_PLACEMENT_3D('',#1432,#1099,#1100);
#976=AXIS2_PLACEMENT_3D('',#1433,#1101,#1102);
#977=AXIS2_PLACEMENT_3D('',#1435,#1103,#1104);
#978=AXIS2_PLACEMENT_3D('',#1437,#1105,#1106);
#979=AXIS2_PLACEMENT_3D('',#1438,#1107,#1108);
#980=AXIS2_PLACEMENT_3D('',#1439,#1109,#1110);
#981=AXIS2_PLACEMENT_3D('',#1441,#1111,#1112);
#982=AXIS2_PLACEMENT_3D('',#1445,#1114,#1115);
#983=AXIS2_PLACEMENT_3D('',#1446,#1116,#1117);
#984=AXIS2_PLACEMENT_3D('',#1449,#1119,#1120);
#985=AXIS2_PLACEMENT_3D('',#1452,#1122,#1123);
#986=AXIS2_PLACEMENT_3D('',#1454,#1125,#1126);
#987=AXIS2_PLACEMENT_3D('',#1455,#1127,#1128);
#988=AXIS2_PLACEMENT_3D('',#1464,#1133,#1134);
#989=AXIS2_PLACEMENT_3D('',#1467,#1137,#1138);
#990=AXIS2_PLACEMENT_3D('',#1473,#1142,#1143);
#991=AXIS2_PLACEMENT_3D('',#1479,#1147,#1148);
#992=AXIS2_PLACEMENT_3D('',#1485,#1152,#1153);
#993=AXIS2_PLACEMENT_3D('',#1491,#1157,#1158);
#994=AXIS2_PLACEMENT_3D('',#1497,#1162,#1163);
#995=AXIS2_PLACEMENT_3D('',#1503,#1167,#1168);
#996=AXIS2_PLACEMENT_3D('',#1509,#1172,#1173);
#997=AXIS2_PLACEMENT_3D('',#1515,#1177,#1178);
#998=AXIS2_PLACEMENT_3D('',#1518,#1181,#1182);
#999=AXIS2_PLACEMENT_3D('',#1519,#1183,#1184);
#1000=AXIS2_PLACEMENT_3D('',#1557,#1196,#1197);
#1001=AXIS2_PLACEMENT_3D('',#1559,#1199,#1200);
#1002=AXIS2_PLACEMENT_3D('',#1561,#1202,#1203);
#1003=AXIS2_PLACEMENT_3D('',#1563,#1205,#1206);
#1004=AXIS2_PLACEMENT_3D('',#1565,#1208,#1209);
#1005=AXIS2_PLACEMENT_3D('',#1567,#1211,#1212);
#1006=AXIS2_PLACEMENT_3D('',#1569,#1214,#1215);
#1007=AXIS2_PLACEMENT_3D('',#1571,#1217,#1218);
#1008=AXIS2_PLACEMENT_3D('',#1573,#1220,#1221);
#1009=AXIS2_PLACEMENT_3D('',#1575,#1223,#1224);
#1010=AXIS2_PLACEMENT_3D('',#1577,#1226,#1227);
#1011=AXIS2_PLACEMENT_3D('',#1594,#1228,#1229);
#1012=AXIS2_PLACEMENT_3D('',#1596,#1231,#1232);
#1013=AXIS2_PLACEMENT_3D('',#1598,#1234,#1235);
#1014=AXIS2_PLACEMENT_3D('',#1600,#1237,#1238);
#1015=AXIS2_PLACEMENT_3D('',#1602,#1240,#1241);
#1016=AXIS2_PLACEMENT_3D('',#1603,#1242,#1243);
#1017=AXIS2_PLACEMENT_3D('',#1610,#1248,#1249);
#1018=AXIS2_PLACEMENT_3D('',#1614,#1252,#1253);
#1019=AXIS2_PLACEMENT_3D('',#1619,#1257,#1258);
#1020=AXIS2_PLACEMENT_3D('',#1621,#1260,#1261);
#1021=AXIS2_PLACEMENT_3D('',#1622,#1262,#1263);
#1022=DIRECTION('',(0.,0.,1.));
#1023=DIRECTION('',(1.,0.,0.));
#1024=DIRECTION('',(0.,0.,-1.));
#1025=DIRECTION('',(-1.,0.,0.));
#1026=DIRECTION('',(0.,0.,-1.));
#1027=DIRECTION('',(0.,0.,-1.));
#1028=DIRECTION('',(-1.,0.,0.));
#1029=DIRECTION('',(0.,0.,1.));
#1030=DIRECTION('',(0.,0.,1.));
#1031=DIRECTION('',(1.,0.,0.));
#1032=DIRECTION('',(1.78741230514691E-15,-2.02923260321873E-15,1.));
#1033=DIRECTION('',(0.,-1.,-2.02923260321873E-15));
#1034=DIRECTION('',(0.,0.,1.));
#1035=DIRECTION('',(1.,0.,0.));
#1036=DIRECTION('',(0.,0.,1.));
#1037=DIRECTION('',(1.,0.,0.));
#1038=DIRECTION('',(0.,0.,1.));
#1039=DIRECTION('',(1.,0.,0.));
#1040=DIRECTION('',(0.,0.,1.));
#1041=DIRECTION('',(1.,0.,0.));
#1042=DIRECTION('',(0.,0.,1.));
#1043=DIRECTION('',(1.,0.,0.));
#1044=DIRECTION('',(0.,0.,1.));
#1045=DIRECTION('',(1.,0.,0.));
#1046=DIRECTION('',(0.,0.,1.));
#1047=DIRECTION('',(0.,0.,1.));
#1048=DIRECTION('',(0.,0.,1.));
#1049=DIRECTION('',(1.,0.,0.));
#1050=DIRECTION('',(0.,0.,-1.));
#1051=DIRECTION('',(1.,0.,0.));
#1052=DIRECTION('',(0.,1.,0.));
#1053=DIRECTION('',(-1.,0.,0.));
#1054=DIRECTION('',(0.,1.,0.));
#1055=DIRECTION('',(0.274721127897379,-0.961523947640823,0.));
#1056=DIRECTION('',(0.,0.,-1.));
#1057=DIRECTION('',(-1.,0.,0.));
#1058=DIRECTION('',(-1.,0.,0.));
#1059=DIRECTION('',(0.,0.,-1.));
#1060=DIRECTION('',(-1.,0.,0.));
#1061=DIRECTION('',(0.274721127897378,0.961523947640823,0.));
#1062=DIRECTION('',(0.,0.,1.));
#1063=DIRECTION('',(1.,0.,0.));
#1064=DIRECTION('',(0.274721127897378,0.961523947640823,0.));
#1065=DIRECTION('',(0.,0.,-1.));
#1066=DIRECTION('',(-1.,0.,0.));
#1067=DIRECTION('',(-1.,0.,0.));
#1068=DIRECTION('',(0.,0.,-1.));
#1069=DIRECTION('',(-1.,0.,0.));
#1070=DIRECTION('',(0.274721127897379,-0.961523947640823,0.));
#1071=DIRECTION('',(0.,0.,1.));
#1072=DIRECTION('',(1.,0.,0.));
#1073=DIRECTION('',(3.25260651745651E-16,1.,0.));
#1074=DIRECTION('',(-1.,0.,0.));
#1075=DIRECTION('',(3.25260651745651E-16,1.,0.));
#1076=DIRECTION('',(-1.,0.,0.));
#1077=DIRECTION('',(-5.65947833707402E-15,1.,5.65947833707402E-15));
#1078=DIRECTION('',(0.,-5.65947833707402E-15,1.));
#1079=DIRECTION('',(0.,-1.,-5.65947833707402E-15));
#1080=DIRECTION('',(5.65947833707402E-15,-1.,0.));
#1081=DIRECTION('',(0.70710678118655,-0.707106781186546,-4.00185551012339E-15));
#1082=DIRECTION('',(0.707106781186546,0.70710678118655,4.00185551012341E-15));
#1083=DIRECTION('',(1.,2.95505034844052E-12,2.95506208624254E-12));
#1084=DIRECTION('',(2.95506208624254E-12,0.,-1.));
#1085=DIRECTION('',(1.,0.,2.95506208624254E-12));
#1086=DIRECTION('',(1.,2.95505034844052E-12,0.));
#1087=DIRECTION('',(-9.63735264431559E-17,1.,-9.63735264431559E-17));
#1088=DIRECTION('',(0.,9.63735264431559E-17,1.));
#1089=DIRECTION('',(-9.63735264431559E-17,1.,0.));
#1090=DIRECTION('',(3.34362837567228E-32,1.,-9.63735264431559E-17));
#1091=DIRECTION('',(0.707106781186548,0.707106781186548,-6.81463740748166E-17));
#1092=DIRECTION('',(0.707106781186548,-0.707106781186548,6.81463740748166E-17));
#1093=DIRECTION('',(1.,0.,0.));
#1094=DIRECTION('',(0.,0.,-1.));
#1095=DIRECTION('',(-1.,0.,0.));
#1096=DIRECTION('',(-1.,0.,0.));
#1097=DIRECTION('',(0.,0.,1.));
#1098=DIRECTION('',(1.,0.,0.));
#1099=DIRECTION('',(0.,0.,1.));
#1100=DIRECTION('',(1.,0.,0.));
#1101=DIRECTION('',(0.,0.,1.));
#1102=DIRECTION('',(1.,0.,0.));
#1103=DIRECTION('',(0.,0.,1.));
#1104=DIRECTION('',(1.,0.,0.));
#1105=DIRECTION('',(0.,0.,1.));
#1106=DIRECTION('',(1.,0.,0.));
#1107=DIRECTION('',(0.,0.,1.));
#1108=DIRECTION('',(1.,0.,0.));
#1109=DIRECTION('',(0.,0.,1.));
#1110=DIRECTION('',(1.,0.,0.));
#1111=DIRECTION('',(0.,0.,1.));
#1112=DIRECTION('',(1.,0.,0.));
#1113=DIRECTION('',(0.,-1.,0.));
#1114=DIRECTION('',(0.,0.,1.));
#1115=DIRECTION('',(1.,0.,0.));
#1116=DIRECTION('',(0.,0.,1.));
#1117=DIRECTION('',(1.,0.,0.));
#1118=DIRECTION('',(0.,0.,1.));
#1119=DIRECTION('',(0.,0.,1.));
#1120=DIRECTION('',(1.,0.,0.));
#1121=DIRECTION('',(0.,0.,1.));
#1122=DIRECTION('',(-1.,0.,0.));
#1123=DIRECTION('',(0.,0.,1.));
#1124=DIRECTION('',(0.,-1.,0.));
#1125=DIRECTION('',(0.,0.,1.));
#1126=DIRECTION('',(1.,0.,0.));
#1127=DIRECTION('',(0.,0.,1.));
#1128=DIRECTION('',(1.,0.,0.));
#1129=DIRECTION('',(0.,1.,0.));
#1130=DIRECTION('',(-1.,0.,0.));
#1131=DIRECTION('',(0.,1.,0.));
#1132=DIRECTION('',(1.,0.,0.));
#1133=DIRECTION('',(-1.,0.,0.));
#1134=DIRECTION('',(0.,0.,1.));
#1135=DIRECTION('',(0.,0.,-1.));
#1136=DIRECTION('',(0.,0.,1.));
#1137=DIRECTION('',(-1.,0.,-3.46944695195362E-16));
#1138=DIRECTION('',(-3.46944695195362E-16,0.,1.));
#1139=DIRECTION('',(-3.46944695195362E-16,0.,1.));
#1140=DIRECTION('',(0.,1.,0.));
#1141=DIRECTION('',(-3.46944695195362E-16,0.,1.));
#1142=DIRECTION('',(0.,0.,-1.));
#1143=DIRECTION('',(-1.,0.,0.));
#1144=DIRECTION('',(-1.,0.,0.));
#1145=DIRECTION('',(0.,1.,0.));
#1146=DIRECTION('',(-1.,0.,0.));
#1147=DIRECTION('',(-1.,0.,0.));
#1148=DIRECTION('',(0.,0.,1.));
#1149=DIRECTION('',(0.,0.,1.));
#1150=DIRECTION('',(0.,1.,0.));
#1151=DIRECTION('',(0.,0.,1.));
#1152=DIRECTION('',(0.,0.,-1.));
#1153=DIRECTION('',(-1.,0.,0.));
#1154=DIRECTION('',(1.,0.,0.));
#1155=DIRECTION('',(0.,1.,0.));
#1156=DIRECTION('',(-1.,0.,0.));
#1157=DIRECTION('',(-1.,0.,-3.46944695195362E-16));
#1158=DIRECTION('',(-3.46944695195362E-16,0.,1.));
#1159=DIRECTION('',(-3.46944695195362E-16,0.,1.));
#1160=DIRECTION('',(0.,1.,0.));
#1161=DIRECTION('',(-3.46944695195362E-16,0.,1.));
#1162=DIRECTION('',(0.,0.,1.));
#1163=DIRECTION('',(1.,0.,0.));
#1164=DIRECTION('',(-1.,0.,0.));
#1165=DIRECTION('',(0.,1.,0.));
#1166=DIRECTION('',(1.,0.,0.));
#1167=DIRECTION('',(-1.,0.,-3.46944695195362E-16));
#1168=DIRECTION('',(-3.46944695195362E-16,0.,1.));
#1169=DIRECTION('',(3.46944695195362E-16,0.,-1.));
#1170=DIRECTION('',(0.,1.,0.));
#1171=DIRECTION('',(-3.46944695195362E-16,0.,1.));
#1172=DIRECTION('',(0.,0.,1.));
#1173=DIRECTION('',(1.,0.,0.));
#1174=DIRECTION('',(1.,0.,0.));
#1175=DIRECTION('',(0.,1.,0.));
#1176=DIRECTION('',(1.,0.,0.));
#1177=DIRECTION('',(-1.,0.,-2.31296463463574E-16));
#1178=DIRECTION('',(-2.31296463463574E-16,0.,1.));
#1179=DIRECTION('',(2.31296463463574E-16,0.,-1.));
#1180=DIRECTION('',(-2.31296463463574E-16,0.,1.));
#1181=DIRECTION('',(0.,-1.,0.));
#1182=DIRECTION('',(1.,0.,0.));
#1183=DIRECTION('',(0.,-1.,0.));
#1184=DIRECTION('',(1.,0.,0.));
#1185=DIRECTION('',(1.,0.,0.));
#1186=DIRECTION('',(3.46944695195362E-16,0.,-1.));
#1187=DIRECTION('',(0.,0.,1.));
#1188=DIRECTION('',(1.,0.,0.));
#1189=DIRECTION('',(-2.31296463463574E-16,0.,1.));
#1190=DIRECTION('',(-1.,0.,0.));
#1191=DIRECTION('',(-3.46944695195362E-16,0.,1.));
#1192=DIRECTION('',(1.,0.,0.));
#1193=DIRECTION('',(3.46944695195362E-16,0.,-1.));
#1194=DIRECTION('',(-1.,0.,0.));
#1195=DIRECTION('',(0.,0.,-1.));
#1196=DIRECTION('',(-0.707106781186549,0.707106781186547,0.));
#1197=DIRECTION('',(0.,0.,-1.));
#1198=DIRECTION('',(0.577350269189625,0.577350269189627,-0.577350269189625));
#1199=DIRECTION('',(0.,0.707106781186547,0.707106781186549));
#1200=DIRECTION('',(-1.,0.,0.));
#1201=DIRECTION('',(0.577350269189625,0.577350269189627,-0.577350269189625));
#1202=DIRECTION('',(-0.707106781186549,0.707106781186546,-1.6355129777956E-16));
#1203=DIRECTION('',(2.31296463463574E-16,0.,-1.));
#1204=DIRECTION('',(-0.577350269189626,-0.577350269189628,-0.577350269189624));
#1205=DIRECTION('',(0.,-0.707106781186545,0.70710678118655));
#1206=DIRECTION('',(1.,0.,0.));
#1207=DIRECTION('',(-0.577350269189626,-0.577350269189628,-0.577350269189624));
#1208=DIRECTION('',(-0.707106781186549,0.707106781186547,-2.45326946669341E-16));
#1209=DIRECTION('',(3.46944695195362E-16,0.,-1.));
#1210=DIRECTION('',(0.577350269189624,0.577350269189626,-0.577350269189627));
#1211=DIRECTION('',(0.,0.707106781186548,0.707106781186547));
#1212=DIRECTION('',(-1.,0.,0.));
#1213=DIRECTION('',(0.577350269189624,-0.577350269189626,0.577350269189627));
#1214=DIRECTION('',(-0.707106781186549,-0.707106781186547,-2.45326946669341E-16));
#1215=DIRECTION('',(-3.46944695195362E-16,0.,1.));
#1216=DIRECTION('',(0.577350269189624,-0.577350269189626,-0.577350269189627));
#1217=DIRECTION('',(0.,0.707106781186548,-0.707106781186547));
#1218=DIRECTION('',(1.,0.,0.));
#1219=DIRECTION('',(0.577350269189624,-0.577350269189626,-0.577350269189627));
#1220=DIRECTION('',(-0.707106781186549,-0.707106781186547,0.));
#1221=DIRECTION('',(0.,0.,1.));
#1222=DIRECTION('',(-0.577350269189625,0.577350269189627,-0.577350269189625));
#1223=DIRECTION('',(0.,-0.707106781186547,-0.707106781186549));
#1224=DIRECTION('',(-1.,0.,0.));
#1225=DIRECTION('',(-0.577350269189625,0.577350269189627,-0.577350269189625));
#1226=DIRECTION('',(-0.707106781186549,-0.707106781186546,-2.45326946669341E-16));
#1227=DIRECTION('',(-3.46944695195362E-16,0.,1.));
#1228=DIRECTION('',(-0.961523947640823,0.274721127897378,0.));
#1229=DIRECTION('',(-0.274721127897378,-0.961523947640823,0.));
#1230=DIRECTION('',(0.,0.,-1.));
#1231=DIRECTION('',(0.,0.,-1.));
#1232=DIRECTION('',(-1.,0.,0.));
#1233=DIRECTION('',(0.,0.,-1.));
#1234=DIRECTION('',(0.,-1.,0.));
#1235=DIRECTION('',(0.,0.,-1.));
#1236=DIRECTION('',(0.,0.,-1.));
#1237=DIRECTION('',(0.,0.,-1.));
#1238=DIRECTION('',(-1.,0.,0.));
#1239=DIRECTION('',(0.,0.,-1.));
#1240=DIRECTION('',(0.961523947640823,0.274721127897379,0.));
#1241=DIRECTION('',(-0.274721127897379,0.961523947640823,0.));
#1242=DIRECTION('',(-1.,3.25260651745651E-16,0.));
#1243=DIRECTION('',(-3.25260651745651E-16,-1.,0.));
#1244=DIRECTION('',(0.,0.,-1.));
#1245=DIRECTION('',(3.25260651745651E-16,1.,0.));
#1246=DIRECTION('',(0.,0.,-1.));
#1247=DIRECTION('',(0.,0.,-1.));
#1248=DIRECTION('',(0.,-1.,0.));
#1249=DIRECTION('',(0.,0.,-1.));
#1250=DIRECTION('',(0.,0.,-1.));
#1251=DIRECTION('',(-1.,0.,0.));
#1252=DIRECTION('',(-1.,3.25260651745651E-16,0.));
#1253=DIRECTION('',(-3.25260651745651E-16,-1.,0.));
#1254=DIRECTION('',(0.,0.,-1.));
#1255=DIRECTION('',(0.,0.,-1.));
#1256=DIRECTION('',(3.25260651745651E-16,1.,0.));
#1257=DIRECTION('',(0.,0.,-1.));
#1258=DIRECTION('',(1.,0.,0.));
#1259=DIRECTION('',(-1.,0.,0.));
#1260=DIRECTION('',(0.,-1.,0.));
#1261=DIRECTION('',(0.,0.,-1.));
#1262=DIRECTION('',(0.,-1.,0.));
#1263=DIRECTION('',(0.,0.,-1.));
#1264=CARTESIAN_POINT('',(0.,0.,0.));
#1265=CARTESIAN_POINT('',(-0.00594877991622765,-0.0388998040525642,0.012));
#1266=CARTESIAN_POINT('',(-0.00416800294454016,-0.038391010632082,0.012));
#1267=CARTESIAN_POINT('',(-0.00416800294454015,-0.038391010632082,0.012));
#1268=CARTESIAN_POINT('',(-0.00416800294454015,-0.038391010632082,0.006));
#1269=CARTESIAN_POINT('',(-0.00594877991622765,-0.0388998040525642,0.012));
#1270=CARTESIAN_POINT('',(-0.00566881080369956,-0.037069051566932,0.012));
#1271=CARTESIAN_POINT('',(-0.00566881080369956,-0.037069051566932,0.006));
#1272=CARTESIAN_POINT('',(-0.00566881080369956,-0.037069051566932,0.006));
#1273=CARTESIAN_POINT('',(-0.00594877991622765,-0.0388998040525642,0.006));
#1274=CARTESIAN_POINT('',(0.00594877991621883,-0.0388998040525542,0.00500606601717798));
#1275=CARTESIAN_POINT('',(0.00566881080369269,-0.037069051566933,0.00599999999999918));
#1276=CARTESIAN_POINT('',(0.00566881080369269,-0.037069051566933,0.0079999999999997));
#1277=CARTESIAN_POINT('',(0.00566881080369269,-0.037069051566933,0.0100000000000002));
#1278=CARTESIAN_POINT('',(0.00566881080369269,-0.037069051566933,0.0120000000000007));
#1279=CARTESIAN_POINT('',(0.00566881080369279,-0.037069051566933,0.012));
#1280=CARTESIAN_POINT('',(0.00566881080369279,-0.037069051566933,0.006));
#1281=CARTESIAN_POINT('',(0.00416800294454213,-0.0383910106320751,0.012));
#1282=CARTESIAN_POINT('',(0.00436320377190591,-0.0377078077363019,0.012));
#1283=CARTESIAN_POINT('',(0.00497000028492813,-0.0371759176574061,0.012));
#1284=CARTESIAN_POINT('',(0.00566881080369279,-0.037069051566933,0.012));
#1285=CARTESIAN_POINT('',(0.00416800294454213,-0.0383910106320751,0.012));
#1286=CARTESIAN_POINT('',(0.00416800294454212,-0.0383910106320752,0.00599999999999918));
#1287=CARTESIAN_POINT('',(0.00416800294454212,-0.0383910106320751,0.0079999999999997));
#1288=CARTESIAN_POINT('',(0.00416800294454212,-0.0383910106320751,0.0100000000000002));
#1289=CARTESIAN_POINT('',(0.00416800294454212,-0.0383910106320751,0.0120000000000007));
#1290=CARTESIAN_POINT('',(0.00416800294454212,-0.0383910106320751,0.006));
#1291=CARTESIAN_POINT('',(0.00566881080369279,-0.037069051566933,0.006));
#1292=CARTESIAN_POINT('',(0.00496663513981858,-0.0371764322745907,0.006));
#1293=CARTESIAN_POINT('',(0.00436314803411904,-0.0377080028185559,0.006));
#1294=CARTESIAN_POINT('',(0.00416800294454213,-0.0383910106320752,0.006));
#1295=CARTESIAN_POINT('',(0.,4.61385681578765E-18,0.0159393398282202));
#1296=CARTESIAN_POINT('',(0.,4.61385681578765E-18,0.017));
#1297=CARTESIAN_POINT('',(0.0364393398282202,4.61385681578765E-18,0.017));
#1298=CARTESIAN_POINT('',(-0.00235,-0.0372290209379725,0.0165548801400386));
#1299=CARTESIAN_POINT('',(-0.00155993161418148,-0.0372290209379725,0.0166247246695675));
#1300=CARTESIAN_POINT('',(4.23741768512086E-5,-0.0372290209379726,0.0166709216295139));
#1301=CARTESIAN_POINT('',(0.00157778130677543,-0.0372290209379725,0.0166231467006181));
#1302=CARTESIAN_POINT('',(0.00234999999999992,-0.0372290209379725,0.0165548801400397));
#1303=CARTESIAN_POINT('',(-0.00235,-0.0372290209379725,0.0165548801400385));
#1304=CARTESIAN_POINT('',(0.00235,-0.0372290209379725,0.0165548801400402));
#1305=CARTESIAN_POINT('',(0.00235,-0.0372290209379718,0.0165548801400397));
#1306=CARTESIAN_POINT('',(0.00235,-0.0373556161506803,0.0163775842174485));
#1307=CARTESIAN_POINT('',(0.00235,-0.0374262942327985,0.0161577151932321));
#1308=CARTESIAN_POINT('',(0.00235,-0.0374262942327985,0.0159393398282202));
#1309=CARTESIAN_POINT('',(0.00235,-0.0374262942327984,0.0159393398282202));
#1310=CARTESIAN_POINT('',(0.,4.61385681578765E-18,0.0159393398282202));
#1311=CARTESIAN_POINT('',(-0.00235,-0.0374262942327984,0.0159393398282202));
#1312=CARTESIAN_POINT('',(-0.00235,-0.0372290209379726,0.0165548801400386));
#1313=CARTESIAN_POINT('',(-0.00235,-0.0373556161506806,0.0163775842174476));
#1314=CARTESIAN_POINT('',(-0.00235,-0.0374262942327985,0.0161577151932317));
#1315=CARTESIAN_POINT('',(-0.00235,-0.0374262942327985,0.0159393398282202));
#1316=CARTESIAN_POINT('',(0.,4.61385681578765E-18,0.006));
#1317=CARTESIAN_POINT('',(0.,4.61385681578765E-18,0.006));
#1318=CARTESIAN_POINT('',(0.,4.61385681578765E-18,0.012));
#1319=CARTESIAN_POINT('',(-0.00235,-0.0374262942327984,0.012));
#1320=CARTESIAN_POINT('',(-0.00235,-0.0374262942327984,0.006));
#1321=CARTESIAN_POINT('',(0.00235,-0.0374262942327984,0.006));
#1322=CARTESIAN_POINT('',(0.00235,-0.0374262942327984,0.012));
#1323=CARTESIAN_POINT('',(0.,4.61385681578765E-18,0.012));
#1324=CARTESIAN_POINT('',(0.,-0.00336451046898627,0.012));
#1325=CARTESIAN_POINT('',(0.00235,-0.00336451046898627,0.012));
#1326=CARTESIAN_POINT('',(0.00235,-0.0382290209379725,0.012));
#1327=CARTESIAN_POINT('',(0.,-0.0382290209379725,0.012));
#1328=CARTESIAN_POINT('',(-0.00235,-0.0382290209379725,0.012));
#1329=CARTESIAN_POINT('',(-0.00235,-0.00336451046898627,0.012));
#1330=CARTESIAN_POINT('',(-0.00370722253488647,-0.04000374206587,0.012));
#1331=CARTESIAN_POINT('',(-0.00291444506977293,-0.0427784631937673,0.012));
#1332=CARTESIAN_POINT('',(-0.00099139717449127,-0.0422290209379725,0.012));
#1333=CARTESIAN_POINT('',(-0.000991397174491285,-0.0442290209379725,0.012));
#1334=CARTESIAN_POINT('',(-2.60208521396521E-18,-0.0442290209379725,0.012));
#1335=CARTESIAN_POINT('',(0.000991397174491279,-0.0442290209379725,0.012));
#1336=CARTESIAN_POINT('',(0.000991397174491279,-0.0422290209379725,0.012));
#1337=CARTESIAN_POINT('',(0.00291444506977292,-0.0427784631937673,0.012));
#1338=CARTESIAN_POINT('',(0.00370722253488646,-0.04000374206587,0.012));
#1339=CARTESIAN_POINT('',(0.,0.,0.006));
#1340=CARTESIAN_POINT('',(0.00370722253488646,-0.04000374206587,0.006));
#1341=CARTESIAN_POINT('',(0.00291444506977292,-0.0427784631937673,0.006));
#1342=CARTESIAN_POINT('',(0.000991397174491279,-0.0422290209379725,0.006));
#1343=CARTESIAN_POINT('',(0.000991397174491279,-0.0442290209379725,0.006));
#1344=CARTESIAN_POINT('',(-2.60208521396521E-18,-0.0442290209379725,0.006));
#1345=CARTESIAN_POINT('',(-0.000991397174491285,-0.0442290209379725,0.006));
#1346=CARTESIAN_POINT('',(-0.00099139717449127,-0.0422290209379725,0.006));
#1347=CARTESIAN_POINT('',(-0.00291444506977293,-0.0427784631937673,0.006));
#1348=CARTESIAN_POINT('',(-0.00370722253488647,-0.04000374206587,0.006));
#1349=CARTESIAN_POINT('',(0.,2.31764406738636E-18,0.006));
#1350=CARTESIAN_POINT('',(0.03505,2.31764406738636E-18,0.006));
#1351=CARTESIAN_POINT('',(0.00235,-0.0402290209379726,0.006));
#1352=CARTESIAN_POINT('',(0.00235,-0.0422290209379725,0.006));
#1353=CARTESIAN_POINT('',(0.00235,-0.0372290209379725,0.006));
#1354=CARTESIAN_POINT('',(-1.0842021724855E-18,-0.0372290209379725,0.006));
#1355=CARTESIAN_POINT('',(-0.00235,-0.0372290209379725,0.006));
#1356=CARTESIAN_POINT('',(-0.00235,-0.0402290209379726,0.006));
#1357=CARTESIAN_POINT('',(-0.00235,-0.0422290209379725,0.006));
#1358=CARTESIAN_POINT('',(-2.60208521396521E-18,-0.0422290209379725,0.006));
#1359=CARTESIAN_POINT('',(-0.0164142135623731,-0.0337168146942858,0.0184142135623731));
#1360=CARTESIAN_POINT('',(-0.015,-0.0337168146942858,0.0184142135623731));
#1361=CARTESIAN_POINT('',(-0.015,0.00420000000006697,0.0184142135623733));
#1362=CARTESIAN_POINT('',(-0.015,-0.031,0.0184142135623731));
#1363=CARTESIAN_POINT('',(-0.0150000000000002,0.00420000000006726,0.0184142135623733));
#1364=CARTESIAN_POINT('',(-0.0150000000000002,0.00419889635425034,0.0182402483240274));
#1365=CARTESIAN_POINT('',(-0.0150502524645428,0.00428130308568612,0.0179692305100838));
#1366=CARTESIAN_POINT('',(-0.015220262927469,0.00454629243620823,0.0176367406120856));
#1367=CARTESIAN_POINT('',(-0.0154146673678655,0.00484861268683278,0.0174008318114001));
#1368=CARTESIAN_POINT('',(-0.0155744020407135,0.00510012348236707,0.0172711498990498));
#1369=CARTESIAN_POINT('',(-0.0157317737757146,0.00534653330609938,0.0171717316346924));
#1370=CARTESIAN_POINT('',(-0.0158861036506522,0.00558759306513624,0.0171002211018935));
#1371=CARTESIAN_POINT('',(-0.0159631161728278,0.00570877753567716,0.0170727906860389));
#1372=CARTESIAN_POINT('',(-0.0161335969516556,0.00597664337287162,0.0170223009020762));
#1373=CARTESIAN_POINT('',(-0.016291618837389,0.00622226878835581,0.0170000000000006));
#1374=CARTESIAN_POINT('',(-0.0164142135623691,0.00641421356243386,0.0170000000000002));
#1375=CARTESIAN_POINT('',(-0.0164142135623692,0.00641421356243385,0.0170000000000607));
#1376=CARTESIAN_POINT('',(-0.0164142135623731,-0.0337168146942858,0.017));
#1377=CARTESIAN_POINT('',(-0.0164142135623731,-0.0324142135623731,0.017));
#1378=CARTESIAN_POINT('',(-0.0164142135623731,-0.0324142135623731,0.0184142135623731));
#1379=CARTESIAN_POINT('',(-0.0369473661358461,0.00641421356237317,0.0184142135623732));
#1380=CARTESIAN_POINT('',(4.01494390160628E-14,0.005,0.0184142135624824));
#1381=CARTESIAN_POINT('',(0.0142,0.005,0.0184142135625243));
#1382=CARTESIAN_POINT('',(-0.0142000000000025,0.005,0.0184142135624404));
#1383=CARTESIAN_POINT('',(0.0141999999999976,0.00500000000015114,0.0184142135625243));
#1384=CARTESIAN_POINT('',(0.0141988963541668,0.00500000000015114,0.0182402483241752));
#1385=CARTESIAN_POINT('',(0.0142813030855886,0.00505025246469655,0.0179692305102269));
#1386=CARTESIAN_POINT('',(0.0145462924361002,0.0052202629276264,0.0176367406122281));
#1387=CARTESIAN_POINT('',(0.0148486126867315,0.00541466736803409,0.0174008318115371));
#1388=CARTESIAN_POINT('',(0.0151001234822484,0.00557440204086812,0.0172711498992061));
#1389=CARTESIAN_POINT('',(0.015346533305965,0.00573177377585365,0.017171731634852));
#1390=CARTESIAN_POINT('',(0.0155875930651236,0.00588610365086689,0.0171002211020261));
#1391=CARTESIAN_POINT('',(0.0157087775353295,0.00596311617282243,0.0170727906862526));
#1392=CARTESIAN_POINT('',(0.01597664337248,0.00613359695160508,0.0170223009022736));
#1393=CARTESIAN_POINT('',(0.0162222687880997,0.00629161883742141,0.0170000000001571));
#1394=CARTESIAN_POINT('',(0.0164142135623746,0.00641421356253086,0.0170000000001577));
#1395=CARTESIAN_POINT('',(0.0164142135623731,0.00641421356253085,0.017));
#1396=CARTESIAN_POINT('',(-1.89543240227854E-14,0.00641421356248235,0.017));
#1397=CARTESIAN_POINT('',(-0.0164142135623691,0.00641421356243385,0.0170000000000607));
#1398=CARTESIAN_POINT('',(-0.0162223440950334,0.0062916669357111,0.0170000000000612));
#1399=CARTESIAN_POINT('',(-0.015976763861345,0.00613367264094558,0.0170222868679824));
#1400=CARTESIAN_POINT('',(-0.0157088904994745,0.00596318482520005,0.0170727651239805));
#1401=CARTESIAN_POINT('',(-0.0155875309227609,0.00588606346539135,0.0171002386588694));
#1402=CARTESIAN_POINT('',(-0.0153466689114071,0.00573186586486945,0.0171716869691809));
#1403=CARTESIAN_POINT('',(-0.0151002916178506,0.00557450457490651,0.0172710687577316));
#1404=CARTESIAN_POINT('',(-0.0148485557139223,0.00541462560858735,0.0174008686022237));
#1405=CARTESIAN_POINT('',(-0.0145463071702889,0.00522029857221866,0.0176366981767946));
#1406=CARTESIAN_POINT('',(-0.0142812937409857,0.00505026298249749,0.0179691826543795));
#1407=CARTESIAN_POINT('',(-0.0141988961525266,0.00500000000007249,0.0182402165370677));
#1408=CARTESIAN_POINT('',(-0.0142000000000025,0.00500000000006722,0.0184142135623975));
#1409=CARTESIAN_POINT('',(0.0164142135623731,-0.031,0.0184142135623731));
#1410=CARTESIAN_POINT('',(0.0164142135623731,1.58189564479698E-18,0.017));
#1411=CARTESIAN_POINT('',(0.0164142135623731,-0.0324142135623731,0.017));
#1412=CARTESIAN_POINT('',(0.0164142135623756,0.0064142135625282,0.017));
#1413=CARTESIAN_POINT('',(0.0162916669357471,0.00622234409533485,0.0169999999999998));
#1414=CARTESIAN_POINT('',(0.016133672641037,0.0059767638617389,0.0170222868678887));
#1415=CARTESIAN_POINT('',(0.0159631848252393,0.00570889049981309,0.0170727651238801));
#1416=CARTESIAN_POINT('',(0.0158860634652579,0.00558753092284188,0.0171002386588323));
#1417=CARTESIAN_POINT('',(0.01573186586475,0.00534666891152212,0.0171716869691478));
#1418=CARTESIAN_POINT('',(0.0155745045747607,0.00510029161792888,0.0172710687577248));
#1419=CARTESIAN_POINT('',(0.015414625608471,0.00484855571404657,0.0174008686022095));
#1420=CARTESIAN_POINT('',(0.0152202985720921,0.00454630717039728,0.0176366981768165));
#1421=CARTESIAN_POINT('',(0.0150502629823909,0.00428129374110768,0.0179691826544305));
#1422=CARTESIAN_POINT('',(0.0149999999999881,0.0041988961526614,0.0182402165371353));
#1423=CARTESIAN_POINT('',(0.015,0.0042000000001512,0.0184142135624697));
#1424=CARTESIAN_POINT('',(0.015,0.0042,0.0184142135623731));
#1425=CARTESIAN_POINT('',(0.015,-0.031,0.0184142135623731));
#1426=CARTESIAN_POINT('',(0.015,-0.031,0.0184142135623731));
#1427=CARTESIAN_POINT('',(0.0164142135623731,-0.0324142135623731,0.0184142135623731));
#1428=CARTESIAN_POINT('',(-0.015,-0.0324142135623731,0.0184142135623731));
#1429=CARTESIAN_POINT('',(-0.015,-0.031,0.0184142135623731));
#1430=CARTESIAN_POINT('',(-0.015,-0.0324142135623731,0.017));
#1431=CARTESIAN_POINT('',(0.,0.,0.017));
#1432=CARTESIAN_POINT('',(0.,0.,0.008));
#1433=CARTESIAN_POINT('',(0.,1.69919743381695E-18,0.008));
#1434=CARTESIAN_POINT('',(0.02495,1.69919743381695E-18,0.008));
#1435=CARTESIAN_POINT('',(0.,2.31764406738636E-18,0.008));
#1436=CARTESIAN_POINT('',(0.03505,2.31764406738636E-18,0.008));
#1437=CARTESIAN_POINT('',(0.,2.31764406738636E-18,0.006));
#1438=CARTESIAN_POINT('',(0.,1.69919743381695E-18,0.006));
#1439=CARTESIAN_POINT('',(0.,1.69919743381695E-18,0.004));
#1440=CARTESIAN_POINT('',(0.02495,1.69919743381695E-18,0.004));
#1441=CARTESIAN_POINT('',(0.,0.,0.004));
#1442=CARTESIAN_POINT('',(-0.00208,0.,0.004));
#1443=CARTESIAN_POINT('',(-0.00208,0.0016419805114556,0.004));
#1444=CARTESIAN_POINT('',(-0.00208,-0.0016419805114556,0.004));
#1445=CARTESIAN_POINT('',(4.33680868994202E-19,2.3141344928234E-18,0.004));
#1446=CARTESIAN_POINT('',(4.33680868994202E-19,2.3141344928234E-18,-0.011));
#1447=CARTESIAN_POINT('',(-0.00208,-0.0016419805114556,-0.011));
#1448=CARTESIAN_POINT('',(-0.00208,-0.0016419805114556,0.0155));
#1449=CARTESIAN_POINT('',(4.33680868994202E-19,2.3141344928234E-18,0.0155));
#1450=CARTESIAN_POINT('',(-0.00208,0.0016419805114556,0.0155));
#1451=CARTESIAN_POINT('',(-0.00208,0.0016419805114556,-0.011));
#1452=CARTESIAN_POINT('',(-0.00208,2.38524477946811E-18,-0.011));
#1453=CARTESIAN_POINT('',(-0.00208,2.38524477946811E-18,0.0155));
#1454=CARTESIAN_POINT('',(0.,0.,0.0155));
#1455=CARTESIAN_POINT('',(-0.01,-0.031,0.0219999981447268));
#1456=CARTESIAN_POINT('',(-0.005,-0.031,0.0219999981447268));
#1457=CARTESIAN_POINT('',(-0.005,-0.031,0.0219999981447268));
#1458=CARTESIAN_POINT('',(-0.005,0.0042,0.0219999981447268));
#1459=CARTESIAN_POINT('',(-0.015,0.0042,0.0219999981447268));
#1460=CARTESIAN_POINT('',(-0.015,0.0042,0.0219999981447268));
#1461=CARTESIAN_POINT('',(-0.015,-0.031,0.0219999981447268));
#1462=CARTESIAN_POINT('',(-0.015,-0.031,0.0219999981447268));
#1463=CARTESIAN_POINT('',(-0.01,-0.031,0.0219999981447268));
#1464=CARTESIAN_POINT('',(-0.015,-0.031,0.0194999981447267));
#1465=CARTESIAN_POINT('',(-0.015,0.0042,0.0184142135623731));
#1466=CARTESIAN_POINT('',(-0.015,-0.031,0.0194999981447267));
#1467=CARTESIAN_POINT('',(0.015,-0.031,0.0194999981447267));
#1468=CARTESIAN_POINT('',(0.015,0.0042,0.0194999981447267));
#1469=CARTESIAN_POINT('',(0.015,0.0042,0.0219999981447268));
#1470=CARTESIAN_POINT('',(0.015,-0.031,0.0219999981447268));
#1471=CARTESIAN_POINT('',(0.015,-0.031,0.0219999981447268));
#1472=CARTESIAN_POINT('',(0.015,-0.031,0.0194999981447267));
#1473=CARTESIAN_POINT('',(0.01,-0.031,0.0219999981447268));
#1474=CARTESIAN_POINT('',(0.01,0.0042,0.0219999981447268));
#1475=CARTESIAN_POINT('',(0.005,0.0042,0.0219999981447268));
#1476=CARTESIAN_POINT('',(0.005,-0.031,0.0219999981447268));
#1477=CARTESIAN_POINT('',(0.005,-0.031,0.0219999981447268));
#1478=CARTESIAN_POINT('',(0.01,-0.031,0.0219999981447268));
#1479=CARTESIAN_POINT('',(0.005,-0.031,0.0294999981447268));
#1480=CARTESIAN_POINT('',(0.005,0.0042,0.0294999981447268));
#1481=CARTESIAN_POINT('',(0.005,0.0042,0.0369999981447268));
#1482=CARTESIAN_POINT('',(0.005,-0.031,0.0369999981447268));
#1483=CARTESIAN_POINT('',(0.005,-0.031,0.0369999981447268));
#1484=CARTESIAN_POINT('',(0.005,-0.031,0.0294999981447268));
#1485=CARTESIAN_POINT('',(0.01,-0.031,0.0369999981447268));
#1486=CARTESIAN_POINT('',(0.015,0.0042,0.0369999981447268));
#1487=CARTESIAN_POINT('',(0.015,0.0042,0.0369999981447268));
#1488=CARTESIAN_POINT('',(0.015,-0.031,0.0369999981447268));
#1489=CARTESIAN_POINT('',(0.015,-0.031,0.0369999981447268));
#1490=CARTESIAN_POINT('',(0.01,-0.031,0.0369999981447268));
#1491=CARTESIAN_POINT('',(0.015,-0.031,0.0419999981447267));
#1492=CARTESIAN_POINT('',(0.015,0.0042,0.0419999981447267));
#1493=CARTESIAN_POINT('',(0.015,0.0042,0.0469999981447268));
#1494=CARTESIAN_POINT('',(0.015,-0.031,0.0469999981447268));
#1495=CARTESIAN_POINT('',(0.015,-0.031,0.0469999981447268));
#1496=CARTESIAN_POINT('',(0.015,-0.031,0.0419999981447267));
#1497=CARTESIAN_POINT('',(8.67361737988404E-19,-0.031,0.0469999981447268));
#1498=CARTESIAN_POINT('',(-0.015,0.0042,0.0469999981447268));
#1499=CARTESIAN_POINT('',(-0.015,0.0042,0.0469999981447268));
#1500=CARTESIAN_POINT('',(-0.015,-0.031,0.0469999981447268));
#1501=CARTESIAN_POINT('',(-0.015,-0.031,0.0469999981447268));
#1502=CARTESIAN_POINT('',(8.67361737988404E-19,-0.031,0.0469999981447268));
#1503=CARTESIAN_POINT('',(-0.015,-0.031,0.0419999981447267));
#1504=CARTESIAN_POINT('',(-0.015,0.0042,0.0369999981447268));
#1505=CARTESIAN_POINT('',(-0.015,0.0042,0.0369999981447268));
#1506=CARTESIAN_POINT('',(-0.015,-0.031,0.0369999981447268));
#1507=CARTESIAN_POINT('',(-0.015,-0.031,0.0369999981447268));
#1508=CARTESIAN_POINT('',(-0.015,-0.031,0.0419999981447267));
#1509=CARTESIAN_POINT('',(-0.01,-0.031,0.0369999981447268));
#1510=CARTESIAN_POINT('',(-0.01,0.0042,0.0369999981447268));
#1511=CARTESIAN_POINT('',(-0.005,0.0042,0.0369999981447268));
#1512=CARTESIAN_POINT('',(-0.005,-0.031,0.0369999981447268));
#1513=CARTESIAN_POINT('',(-0.005,-0.031,0.0369999981447268));
#1514=CARTESIAN_POINT('',(-0.01,-0.031,0.0369999981447268));
#1515=CARTESIAN_POINT('',(-0.005,-0.031,0.0294999981447268));
#1516=CARTESIAN_POINT('',(-0.005,0.0042,0.0219999981447268));
#1517=CARTESIAN_POINT('',(-0.005,-0.031,0.0294999981447268));
#1518=CARTESIAN_POINT('',(2.60208521396521E-18,-0.031,0.0319999981447268));
#1519=CARTESIAN_POINT('',(2.60208521396521E-18,0.005,0.0319999981447268));
#1520=CARTESIAN_POINT('',(2.60208521396521E-18,0.005,0.0211999981447267));
#1521=CARTESIAN_POINT('',(0.0042,0.005,0.0211999981447267));
#1522=CARTESIAN_POINT('',(0.0142,0.005,0.0211999981447267));
#1523=CARTESIAN_POINT('',(0.0142,0.005,0.0319999981447268));
#1524=CARTESIAN_POINT('',(-0.0142,0.005,0.0219999981447268));
#1525=CARTESIAN_POINT('',(-0.0142,0.005,0.0211999981447267));
#1526=CARTESIAN_POINT('',(-0.005,0.005,0.0211999981447267));
#1527=CARTESIAN_POINT('',(-0.0042,0.005,0.0211999981447267));
#1528=CARTESIAN_POINT('',(-0.0042,0.005,0.0369999981447268));
#1529=CARTESIAN_POINT('',(-0.0042,0.005,0.0377999981447268));
#1530=CARTESIAN_POINT('',(2.60208521396521E-18,0.005,0.0377999981447268));
#1531=CARTESIAN_POINT('',(-0.0142,0.005,0.0377999981447268));
#1532=CARTESIAN_POINT('',(-0.0142,0.005,0.0469999981447268));
#1533=CARTESIAN_POINT('',(-0.0142,0.005,0.0461999981447268));
#1534=CARTESIAN_POINT('',(0.015,0.005,0.0461999981447268));
#1535=CARTESIAN_POINT('',(0.0142,0.005,0.0461999981447268));
#1536=CARTESIAN_POINT('',(0.0142,0.005,0.0319999981447268));
#1537=CARTESIAN_POINT('',(0.0142,0.005,0.0377999981447268));
#1538=CARTESIAN_POINT('',(0.005,0.005,0.0377999981447268));
#1539=CARTESIAN_POINT('',(0.0042,0.005,0.0377999981447268));
#1540=CARTESIAN_POINT('',(0.0042,0.005,0.0319999981447268));
#1541=CARTESIAN_POINT('',(-0.0150055123998174,0.00419448760025052,0.0184142135624381));
#1542=CARTESIAN_POINT('',(-0.0141944871323438,0.00500551286772648,0.01841421356244));
#1543=CARTESIAN_POINT('',(-0.0150040963936165,0.00419307159405033,0.0181417998261093));
#1544=CARTESIAN_POINT('',(-0.0141930711261429,0.00500409686152629,0.0181417998261113));
#1545=CARTESIAN_POINT('',(-0.0152187625925046,0.00440773779293911,0.0176521696142169));
#1546=CARTESIAN_POINT('',(-0.014407737325031,0.00521876306041507,0.0176521696142189));
#1547=CARTESIAN_POINT('',(-0.0158862609437974,0.00507523614423023,0.0171237811860755));
#1548=CARTESIAN_POINT('',(-0.0150752356763238,0.00588626141170619,0.0171237811860774));
#1549=CARTESIAN_POINT('',(-0.0164542035237761,0.00564317872421227,0.0169966046654373));
#1550=CARTESIAN_POINT('',(-0.0156431782563025,0.00645420399168824,0.0169966046654392));
#1551=CARTESIAN_POINT('',(-0.0168332894457383,0.00602226464617232,0.0170000838478837));
#1552=CARTESIAN_POINT('',(-0.0160222641782647,0.00683328991364829,0.0170000838478857));
#1553=CARTESIAN_POINT('',(-0.0142,0.005,0.0184142135624404));
#1554=CARTESIAN_POINT('',(-0.0144666666666667,0.00473333333333333,0.018414213562418));
#1555=CARTESIAN_POINT('',(-0.0147333333333333,0.00446666666666667,0.0184142135623957));
#1556=CARTESIAN_POINT('',(-0.015,0.0042,0.0184142135623733));
#1557=CARTESIAN_POINT('',(-0.0142,0.005,0.0319999981447268));
#1558=CARTESIAN_POINT('',(-0.0178,0.0014,0.0247999981447268));
#1559=CARTESIAN_POINT('',(2.60208521396521E-18,0.005,0.0211999981447267));
#1560=CARTESIAN_POINT('',(-0.0078,0.0014,0.0247999981447268));
#1561=CARTESIAN_POINT('',(-0.0042,0.005,0.0319999981447268));
#1562=CARTESIAN_POINT('',(-0.00666666666666666,0.00253333333333332,0.0353333314780601));
#1563=CARTESIAN_POINT('',(-0.01,0.0042,0.0369999981447268));
#1564=CARTESIAN_POINT('',(-0.0133333333333333,0.00586666666666667,0.0386666648113934));
#1565=CARTESIAN_POINT('',(-0.0142,0.005,0.0319999981447268));
#1566=CARTESIAN_POINT('',(-0.00946666666666666,0.00973333333333335,0.0414666648113934));
#1567=CARTESIAN_POINT('',(2.60208521396521E-18,0.005,0.0461999981447268));
#1568=CARTESIAN_POINT('',(0.00946666666666669,0.00973333333333332,0.0414666648113934));
#1569=CARTESIAN_POINT('',(0.015,0.0042,0.0419999981447267));
#1570=CARTESIAN_POINT('',(0.0133333333333333,0.00586666666666667,0.0386666648113934));
#1571=CARTESIAN_POINT('',(2.60208521396521E-18,0.005,0.0377999981447268));
#1572=CARTESIAN_POINT('',(0.0075,0.0017,0.0344999981447267));
#1573=CARTESIAN_POINT('',(0.005,0.0042,0.0294999981447268));
#1574=CARTESIAN_POINT('',(0.00666666666666666,0.00253333333333333,0.0236666648113934));
#1575=CARTESIAN_POINT('',(0.01,0.0042,0.0219999981447268));
#1576=CARTESIAN_POINT('',(0.0133333333333333,0.00586666666666667,0.0203333314780601));
#1577=CARTESIAN_POINT('',(0.015,0.0042,0.0194999981447267));
#1578=CARTESIAN_POINT('',(0.0149999999999244,0.00420000000007561,0.0184142135624697));
#1579=CARTESIAN_POINT('',(0.0147333333332573,0.00446666666674267,0.0184142135624879));
#1580=CARTESIAN_POINT('',(0.0144666666665903,0.00473333333340973,0.0184142135625061));
#1581=CARTESIAN_POINT('',(0.0141999999999232,0.00500000000007679,0.0184142135625243));
#1582=CARTESIAN_POINT('',(0.015005512867657,0.00419448713249484,0.018414213562528));
#1583=CARTESIAN_POINT('',(0.0141944876001712,0.00500551239997755,0.0184142135625243));
#1584=CARTESIAN_POINT('',(0.0150040968614458,0.00419307112628241,0.0181417998261959));
#1585=CARTESIAN_POINT('',(0.0141930715939601,0.00500409639376512,0.0181417998261921));
#1586=CARTESIAN_POINT('',(0.015218763060328,0.00440773732516353,0.0176521696142784));
#1587=CARTESIAN_POINT('',(0.0144077377928422,0.00521876259264624,0.0176521696142746));
#1588=CARTESIAN_POINT('',(0.0158862614116354,0.00507523567646855,0.0171237811861243));
#1589=CARTESIAN_POINT('',(0.0150752361441496,0.00588626094395127,0.0171237811861205));
#1590=CARTESIAN_POINT('',(0.0164542039916166,0.00564317825646225,0.0169966046654887));
#1591=CARTESIAN_POINT('',(0.0156431787241309,0.00645420352394497,0.0169966046654849));
#1592=CARTESIAN_POINT('',(0.0168332899135859,0.00602226417843054,0.017000083847935));
#1593=CARTESIAN_POINT('',(0.0160222646461002,0.00683328944591325,0.0170000838479312));
#1594=CARTESIAN_POINT('',(0.00370722253488646,-0.04000374206587,0.012));
#1595=CARTESIAN_POINT('',(0.00291444506977292,-0.0427784631937673,0.012));
#1596=CARTESIAN_POINT('',(0.000991397174491279,-0.0422290209379725,0.012));
#1597=CARTESIAN_POINT('',(0.000991397174491279,-0.0442290209379725,0.012));
#1598=CARTESIAN_POINT('',(-2.60208521396521E-18,-0.0442290209379725,0.012));
#1599=CARTESIAN_POINT('',(-0.000991397174491285,-0.0442290209379725,0.012));
#1600=CARTESIAN_POINT('',(-0.00099139717449127,-0.0422290209379725,0.012));
#1601=CARTESIAN_POINT('',(-0.00291444506977293,-0.0427784631937673,0.012));
#1602=CARTESIAN_POINT('',(-0.00370722253488647,-0.04000374206587,0.012));
#1603=CARTESIAN_POINT('',(0.00235,-0.0402290209379726,0.007));
#1604=CARTESIAN_POINT('',(0.00235,-0.0422290209379725,0.007));
#1605=CARTESIAN_POINT('',(0.00235,-0.0422290209379725,0.007));
#1606=CARTESIAN_POINT('',(0.00235,-0.0402290209379726,0.007));
#1607=CARTESIAN_POINT('',(0.00235,-0.0382290209379725,0.007));
#1608=CARTESIAN_POINT('',(0.00235,-0.0382290209379725,0.031));
#1609=CARTESIAN_POINT('',(0.00235,-0.0372290209379725,0.031));
#1610=CARTESIAN_POINT('',(-2.60208521396521E-18,-0.0422290209379725,0.007));
#1611=CARTESIAN_POINT('',(-0.00235,-0.0422290209379725,0.007));
#1612=CARTESIAN_POINT('',(-0.00235,-0.0422290209379725,0.007));
#1613=CARTESIAN_POINT('',(-2.60208521396521E-18,-0.0422290209379725,0.007));
#1614=CARTESIAN_POINT('',(-0.00235,-0.0402290209379726,0.007));
#1615=CARTESIAN_POINT('',(-0.00235,-0.0372290209379725,0.031));
#1616=CARTESIAN_POINT('',(-0.00235,-0.0382290209379725,0.031));
#1617=CARTESIAN_POINT('',(-0.00235,-0.0382290209379725,0.007));
#1618=CARTESIAN_POINT('',(-0.00235,-0.0402290209379726,0.007));
#1619=CARTESIAN_POINT('',(0.,-0.00336451046898627,0.007));
#1620=CARTESIAN_POINT('',(-1.3010426069826E-18,-0.0382290209379725,0.007));
#1621=CARTESIAN_POINT('',(-1.3010426069826E-18,-0.0382290209379725,0.031));
#1622=CARTESIAN_POINT('',(-1.0842021724855E-18,-0.0372290209379725,0.031));
#1623=MECHANICAL_DESIGN_GEOMETRIC_PRESENTATION_REPRESENTATION('',(#938),
#1624);
#1624=(
GEOMETRIC_REPRESENTATION_CONTEXT(3)
GLOBAL_UNCERTAINTY_ASSIGNED_CONTEXT((#1625))
GLOBAL_UNIT_ASSIGNED_CONTEXT((#1628,#1627,#1626))
REPRESENTATION_CONTEXT('top bearing cap','TOP_LEVEL_ASSEMBLY_PART')
);
#1625=UNCERTAINTY_MEASURE_WITH_UNIT(LENGTH_MEASURE(2.E-5),#1628,
'DISTANCE_ACCURACY_VALUE','Maximum Tolerance applied to model');
#1626=(
NAMED_UNIT(*)
SI_UNIT($,.STERADIAN.)
SOLID_ANGLE_UNIT()
);
#1627=(
NAMED_UNIT(*)
PLANE_ANGLE_UNIT()
SI_UNIT($,.RADIAN.)
);
#1628=(
LENGTH_UNIT()
NAMED_UNIT(*)
SI_UNIT($,.METRE.)
);
#1629=PRODUCT_DEFINITION_SHAPE('','',#1630);
#1630=PRODUCT_DEFINITION('','',#1632,#1631);
#1631=PRODUCT_DEFINITION_CONTEXT('',#1638,'design');
#1632=PRODUCT_DEFINITION_FORMATION_WITH_SPECIFIED_SOURCE('','',#1634,
 .NOT_KNOWN.);
#1633=PRODUCT_RELATED_PRODUCT_CATEGORY('','',(#1634));
#1634=PRODUCT('top bearing cap','top bearing cap','top bearing cap',(#1636));
#1635=PRODUCT_CATEGORY('','');
#1636=PRODUCT_CONTEXT('',#1638,'mechanical');
#1637=APPLICATION_PROTOCOL_DEFINITION('international standard',
'ap242_managed_model_based_3d_engineering',2020,#1638);
#1638=APPLICATION_CONTEXT('managed model based 3d engineering');
ENDSEC;
END-ISO-10303-21;
