ISO-10303-21;
HEADER;
/* Generated by software containing ST-Developer
 * from STEP Tools, Inc. (www.steptools.com) 
 */
/* OPTION: using custom renumber hook */

FILE_DESCRIPTION(
/* description */ ('STEP AP242 Edition 2',
'CAx-IF Rec.Pracs.---Representation and Presentation of Product Manufa
cturing Information (PMI)---4.0---2014-10-13',
'CAx-IF Rec.Pracs.---3D Tessellated Geometry---0.4---2014-09-14','2;1',
'CAx-IF Rec.Pracs.---User Defined Attributes---1.5---2016-08-15'),
/* implementation_level */ '2;1');

FILE_NAME(
/* name */ 'Part Studio 1 - baseplate',
/* time_stamp */ '2026-09-24T14:31:13Z',
/* author */ (''),
/* organization */ (''),
/* preprocessor_version */ 'ST-DEVELOPER v20',
/* originating_system */ 'ONSHAPE BY PTC INC, 1.221',
/* authorisation */ '  ');

FILE_SCHEMA (('AP242_MANAGED_MODEL_BASED_3D_ENGINEERING_MIM_LF { 1 0 10303 442 3 1 4 }'));
ENDSEC;

DATA;
#10=SHAPE_REPRESENTATION_RELATIONSHIP('','',#1179,#11);
#11=ADVANCED_BREP_SHAPE_REPRESENTATION('',(#1177),#1993);
#12=PLANE('',#1208);
#13=PLANE('',#1209);
#14=PLANE('',#1210);
#15=PLANE('',#1214);
#16=PLANE('',#1218);
#17=PLANE('',#1222);
#18=PLANE('',#1226);
#19=PLANE('',#1230);
#20=PLANE('',#1234);
#21=PLANE('',#1238);
#22=PLANE('',#1242);
#23=PLANE('',#1246);
#24=PLANE('',#1250);
#25=PLANE('',#1251);
#26=PLANE('',#1255);
#27=PLANE('',#1259);
#28=PLANE('',#1260);
#29=PLANE('',#1264);
#30=PLANE('',#1268);
#31=PLANE('',#1272);
#32=PLANE('',#1285);
#33=PLANE('',#1286);
#34=PLANE('',#1287);
#35=PLANE('',#1288);
#36=PLANE('',#1289);
#37=PLANE('',#1290);
#38=PLANE('',#1297);
#39=PLANE('',#1300);
#40=PLANE('',#1303);
#41=PLANE('',#1306);
#42=CIRCLE('',#1182,0.00653281482438187);
#43=CIRCLE('',#1183,0.00653281482438187);
#44=CIRCLE('',#1185,0.00653281482438187);
#45=CIRCLE('',#1186,0.00653281482438187);
#46=CIRCLE('',#1188,0.00653281482438187);
#47=CIRCLE('',#1189,0.00653281482438187);
#48=CIRCLE('',#1191,0.00653281482438182);
#49=CIRCLE('',#1192,0.00653281482438182);
#50=CIRCLE('',#1194,0.00653281482438191);
#51=CIRCLE('',#1195,0.00653281482438191);
#52=CIRCLE('',#1197,0.00653281482438186);
#53=CIRCLE('',#1198,0.00653281482438186);
#54=CIRCLE('',#1200,0.00653281482438164);
#55=CIRCLE('',#1201,0.00653281482438164);
#56=CIRCLE('',#1203,0.00653281482438181);
#57=CIRCLE('',#1204,0.00653281482438181);
#58=CIRCLE('',#1206,0.005);
#59=CIRCLE('',#1207,0.005);
#60=CIRCLE('',#1212,0.005);
#61=CIRCLE('',#1213,0.005);
#62=CIRCLE('',#1216,0.00500000000000006);
#63=CIRCLE('',#1217,0.00500000000000006);
#64=CIRCLE('',#1220,0.005);
#65=CIRCLE('',#1221,0.005);
#66=CIRCLE('',#1224,0.005);
#67=CIRCLE('',#1225,0.005);
#68=CIRCLE('',#1228,0.005);
#69=CIRCLE('',#1229,0.005);
#70=CIRCLE('',#1232,0.005);
#71=CIRCLE('',#1233,0.005);
#72=CIRCLE('',#1236,0.005);
#73=CIRCLE('',#1237,0.005);
#74=CIRCLE('',#1240,0.005);
#75=CIRCLE('',#1241,0.005);
#76=CIRCLE('',#1244,0.005);
#77=CIRCLE('',#1245,0.005);
#78=CIRCLE('',#1248,0.005);
#79=CIRCLE('',#1249,0.005);
#80=CIRCLE('',#1253,0.005);
#81=CIRCLE('',#1254,0.005);
#82=CIRCLE('',#1257,0.005);
#83=CIRCLE('',#1258,0.005);
#84=CIRCLE('',#1262,0.005);
#85=CIRCLE('',#1263,0.005);
#86=CIRCLE('',#1266,0.005);
#87=CIRCLE('',#1267,0.005);
#88=CIRCLE('',#1270,0.0050000000000001);
#89=CIRCLE('',#1271,0.0050000000000001);
#90=CIRCLE('',#1274,0.00185);
#91=CIRCLE('',#1275,0.00185);
#92=CIRCLE('',#1277,0.00185);
#93=CIRCLE('',#1278,0.00185);
#94=CIRCLE('',#1280,0.00185);
#95=CIRCLE('',#1281,0.00185);
#96=CIRCLE('',#1283,0.00185);
#97=CIRCLE('',#1284,0.00185);
#98=CIRCLE('',#1291,0.003);
#99=CIRCLE('',#1292,0.003);
#100=CIRCLE('',#1293,0.003);
#101=CIRCLE('',#1294,0.003);
#102=CIRCLE('',#1296,0.003);
#103=CIRCLE('',#1299,0.003);
#104=CIRCLE('',#1302,0.003);
#105=CIRCLE('',#1305,0.003);
#106=ORIENTED_EDGE('',*,*,#426,.F.);
#107=ORIENTED_EDGE('',*,*,#427,.T.);
#108=ORIENTED_EDGE('',*,*,#428,.F.);
#109=ORIENTED_EDGE('',*,*,#429,.T.);
#110=ORIENTED_EDGE('',*,*,#430,.F.);
#111=ORIENTED_EDGE('',*,*,#431,.T.);
#112=ORIENTED_EDGE('',*,*,#432,.F.);
#113=ORIENTED_EDGE('',*,*,#433,.T.);
#114=ORIENTED_EDGE('',*,*,#434,.F.);
#115=ORIENTED_EDGE('',*,*,#435,.T.);
#116=ORIENTED_EDGE('',*,*,#436,.F.);
#117=ORIENTED_EDGE('',*,*,#437,.T.);
#118=ORIENTED_EDGE('',*,*,#438,.F.);
#119=ORIENTED_EDGE('',*,*,#439,.T.);
#120=ORIENTED_EDGE('',*,*,#440,.F.);
#121=ORIENTED_EDGE('',*,*,#441,.T.);
#122=ORIENTED_EDGE('',*,*,#442,.F.);
#123=ORIENTED_EDGE('',*,*,#443,.T.);
#124=ORIENTED_EDGE('',*,*,#444,.F.);
#125=ORIENTED_EDGE('',*,*,#445,.T.);
#126=ORIENTED_EDGE('',*,*,#446,.F.);
#127=ORIENTED_EDGE('',*,*,#447,.T.);
#128=ORIENTED_EDGE('',*,*,#448,.F.);
#129=ORIENTED_EDGE('',*,*,#449,.T.);
#130=ORIENTED_EDGE('',*,*,#450,.F.);
#131=ORIENTED_EDGE('',*,*,#451,.T.);
#132=ORIENTED_EDGE('',*,*,#452,.F.);
#133=ORIENTED_EDGE('',*,*,#453,.T.);
#134=ORIENTED_EDGE('',*,*,#454,.F.);
#135=ORIENTED_EDGE('',*,*,#455,.T.);
#136=ORIENTED_EDGE('',*,*,#456,.F.);
#137=ORIENTED_EDGE('',*,*,#457,.T.);
#138=ORIENTED_EDGE('',*,*,#458,.F.);
#139=ORIENTED_EDGE('',*,*,#459,.F.);
#140=ORIENTED_EDGE('',*,*,#460,.T.);
#141=ORIENTED_EDGE('',*,*,#461,.T.);
#142=ORIENTED_EDGE('',*,*,#462,.T.);
#143=ORIENTED_EDGE('',*,*,#428,.T.);
#144=ORIENTED_EDGE('',*,*,#463,.F.);
#145=ORIENTED_EDGE('',*,*,#459,.T.);
#146=ORIENTED_EDGE('',*,*,#464,.F.);
#147=ORIENTED_EDGE('',*,*,#426,.T.);
#148=ORIENTED_EDGE('',*,*,#465,.T.);
#149=ORIENTED_EDGE('',*,*,#432,.T.);
#150=ORIENTED_EDGE('',*,*,#466,.T.);
#151=ORIENTED_EDGE('',*,*,#430,.T.);
#152=ORIENTED_EDGE('',*,*,#467,.F.);
#153=ORIENTED_EDGE('',*,*,#468,.F.);
#154=ORIENTED_EDGE('',*,*,#469,.F.);
#155=ORIENTED_EDGE('',*,*,#470,.F.);
#156=ORIENTED_EDGE('',*,*,#471,.T.);
#157=ORIENTED_EDGE('',*,*,#468,.T.);
#158=ORIENTED_EDGE('',*,*,#472,.F.);
#159=ORIENTED_EDGE('',*,*,#473,.F.);
#160=ORIENTED_EDGE('',*,*,#474,.T.);
#161=ORIENTED_EDGE('',*,*,#475,.T.);
#162=ORIENTED_EDGE('',*,*,#476,.T.);
#163=ORIENTED_EDGE('',*,*,#477,.F.);
#164=ORIENTED_EDGE('',*,*,#478,.F.);
#165=ORIENTED_EDGE('',*,*,#473,.T.);
#166=ORIENTED_EDGE('',*,*,#479,.F.);
#167=ORIENTED_EDGE('',*,*,#480,.F.);
#168=ORIENTED_EDGE('',*,*,#481,.T.);
#169=ORIENTED_EDGE('',*,*,#477,.T.);
#170=ORIENTED_EDGE('',*,*,#482,.T.);
#171=ORIENTED_EDGE('',*,*,#483,.F.);
#172=ORIENTED_EDGE('',*,*,#484,.F.);
#173=ORIENTED_EDGE('',*,*,#480,.T.);
#174=ORIENTED_EDGE('',*,*,#485,.T.);
#175=ORIENTED_EDGE('',*,*,#486,.F.);
#176=ORIENTED_EDGE('',*,*,#487,.F.);
#177=ORIENTED_EDGE('',*,*,#483,.T.);
#178=ORIENTED_EDGE('',*,*,#488,.T.);
#179=ORIENTED_EDGE('',*,*,#489,.F.);
#180=ORIENTED_EDGE('',*,*,#490,.F.);
#181=ORIENTED_EDGE('',*,*,#486,.T.);
#182=ORIENTED_EDGE('',*,*,#491,.T.);
#183=ORIENTED_EDGE('',*,*,#492,.F.);
#184=ORIENTED_EDGE('',*,*,#493,.F.);
#185=ORIENTED_EDGE('',*,*,#489,.T.);
#186=ORIENTED_EDGE('',*,*,#494,.F.);
#187=ORIENTED_EDGE('',*,*,#495,.F.);
#188=ORIENTED_EDGE('',*,*,#496,.T.);
#189=ORIENTED_EDGE('',*,*,#497,.T.);
#190=ORIENTED_EDGE('',*,*,#498,.F.);
#191=ORIENTED_EDGE('',*,*,#499,.F.);
#192=ORIENTED_EDGE('',*,*,#500,.T.);
#193=ORIENTED_EDGE('',*,*,#495,.T.);
#194=ORIENTED_EDGE('',*,*,#501,.F.);
#195=ORIENTED_EDGE('',*,*,#502,.F.);
#196=ORIENTED_EDGE('',*,*,#503,.T.);
#197=ORIENTED_EDGE('',*,*,#499,.T.);
#198=ORIENTED_EDGE('',*,*,#504,.T.);
#199=ORIENTED_EDGE('',*,*,#505,.F.);
#200=ORIENTED_EDGE('',*,*,#506,.F.);
#201=ORIENTED_EDGE('',*,*,#502,.T.);
#202=ORIENTED_EDGE('',*,*,#507,.F.);
#203=ORIENTED_EDGE('',*,*,#508,.F.);
#204=ORIENTED_EDGE('',*,*,#509,.T.);
#205=ORIENTED_EDGE('',*,*,#505,.T.);
#206=ORIENTED_EDGE('',*,*,#510,.F.);
#207=ORIENTED_EDGE('',*,*,#511,.F.);
#208=ORIENTED_EDGE('',*,*,#512,.T.);
#209=ORIENTED_EDGE('',*,*,#508,.T.);
#210=ORIENTED_EDGE('',*,*,#513,.F.);
#211=ORIENTED_EDGE('',*,*,#514,.F.);
#212=ORIENTED_EDGE('',*,*,#515,.T.);
#213=ORIENTED_EDGE('',*,*,#511,.T.);
#214=ORIENTED_EDGE('',*,*,#516,.T.);
#215=ORIENTED_EDGE('',*,*,#450,.T.);
#216=ORIENTED_EDGE('',*,*,#517,.F.);
#217=ORIENTED_EDGE('',*,*,#518,.F.);
#218=ORIENTED_EDGE('',*,*,#519,.F.);
#219=ORIENTED_EDGE('',*,*,#520,.F.);
#220=ORIENTED_EDGE('',*,*,#521,.T.);
#221=ORIENTED_EDGE('',*,*,#518,.T.);
#222=ORIENTED_EDGE('',*,*,#522,.T.);
#223=ORIENTED_EDGE('',*,*,#523,.F.);
#224=ORIENTED_EDGE('',*,*,#524,.F.);
#225=ORIENTED_EDGE('',*,*,#520,.T.);
#226=ORIENTED_EDGE('',*,*,#525,.F.);
#227=ORIENTED_EDGE('',*,*,#526,.F.);
#228=ORIENTED_EDGE('',*,*,#527,.T.);
#229=ORIENTED_EDGE('',*,*,#523,.T.);
#230=ORIENTED_EDGE('',*,*,#528,.T.);
#231=ORIENTED_EDGE('',*,*,#456,.T.);
#232=ORIENTED_EDGE('',*,*,#529,.F.);
#233=ORIENTED_EDGE('',*,*,#526,.T.);
#234=ORIENTED_EDGE('',*,*,#530,.T.);
#235=ORIENTED_EDGE('',*,*,#442,.T.);
#236=ORIENTED_EDGE('',*,*,#531,.F.);
#237=ORIENTED_EDGE('',*,*,#532,.F.);
#238=ORIENTED_EDGE('',*,*,#533,.F.);
#239=ORIENTED_EDGE('',*,*,#534,.F.);
#240=ORIENTED_EDGE('',*,*,#535,.T.);
#241=ORIENTED_EDGE('',*,*,#532,.T.);
#242=ORIENTED_EDGE('',*,*,#536,.T.);
#243=ORIENTED_EDGE('',*,*,#537,.F.);
#244=ORIENTED_EDGE('',*,*,#538,.F.);
#245=ORIENTED_EDGE('',*,*,#534,.T.);
#246=ORIENTED_EDGE('',*,*,#539,.F.);
#247=ORIENTED_EDGE('',*,*,#540,.F.);
#248=ORIENTED_EDGE('',*,*,#541,.T.);
#249=ORIENTED_EDGE('',*,*,#537,.T.);
#250=ORIENTED_EDGE('',*,*,#542,.T.);
#251=ORIENTED_EDGE('',*,*,#448,.T.);
#252=ORIENTED_EDGE('',*,*,#543,.F.);
#253=ORIENTED_EDGE('',*,*,#540,.T.);
#254=ORIENTED_EDGE('',*,*,#544,.T.);
#255=ORIENTED_EDGE('',*,*,#434,.T.);
#256=ORIENTED_EDGE('',*,*,#545,.F.);
#257=ORIENTED_EDGE('',*,*,#546,.F.);
#258=ORIENTED_EDGE('',*,*,#547,.F.);
#259=ORIENTED_EDGE('',*,*,#548,.F.);
#260=ORIENTED_EDGE('',*,*,#549,.T.);
#261=ORIENTED_EDGE('',*,*,#546,.T.);
#262=ORIENTED_EDGE('',*,*,#550,.T.);
#263=ORIENTED_EDGE('',*,*,#551,.F.);
#264=ORIENTED_EDGE('',*,*,#552,.F.);
#265=ORIENTED_EDGE('',*,*,#548,.T.);
#266=ORIENTED_EDGE('',*,*,#553,.F.);
#267=ORIENTED_EDGE('',*,*,#554,.F.);
#268=ORIENTED_EDGE('',*,*,#555,.T.);
#269=ORIENTED_EDGE('',*,*,#551,.T.);
#270=ORIENTED_EDGE('',*,*,#556,.T.);
#271=ORIENTED_EDGE('',*,*,#440,.T.);
#272=ORIENTED_EDGE('',*,*,#557,.F.);
#273=ORIENTED_EDGE('',*,*,#554,.T.);
#274=ORIENTED_EDGE('',*,*,#558,.T.);
#275=ORIENTED_EDGE('',*,*,#475,.F.);
#276=ORIENTED_EDGE('',*,*,#559,.F.);
#277=ORIENTED_EDGE('',*,*,#492,.T.);
#278=ORIENTED_EDGE('',*,*,#560,.F.);
#279=ORIENTED_EDGE('',*,*,#497,.F.);
#280=ORIENTED_EDGE('',*,*,#561,.T.);
#281=ORIENTED_EDGE('',*,*,#514,.T.);
#282=ORIENTED_EDGE('',*,*,#562,.F.);
#283=ORIENTED_EDGE('',*,*,#563,.T.);
#284=ORIENTED_EDGE('',*,*,#564,.F.);
#285=ORIENTED_EDGE('',*,*,#565,.T.);
#286=ORIENTED_EDGE('',*,*,#566,.F.);
#287=ORIENTED_EDGE('',*,*,#567,.T.);
#288=ORIENTED_EDGE('',*,*,#568,.F.);
#289=ORIENTED_EDGE('',*,*,#569,.T.);
#290=ORIENTED_EDGE('',*,*,#570,.T.);
#291=ORIENTED_EDGE('',*,*,#452,.T.);
#292=ORIENTED_EDGE('',*,*,#571,.F.);
#293=ORIENTED_EDGE('',*,*,#454,.T.);
#294=ORIENTED_EDGE('',*,*,#572,.F.);
#295=ORIENTED_EDGE('',*,*,#444,.T.);
#296=ORIENTED_EDGE('',*,*,#573,.T.);
#297=ORIENTED_EDGE('',*,*,#446,.T.);
#298=ORIENTED_EDGE('',*,*,#574,.F.);
#299=ORIENTED_EDGE('',*,*,#436,.T.);
#300=ORIENTED_EDGE('',*,*,#575,.T.);
#301=ORIENTED_EDGE('',*,*,#438,.T.);
#302=ORIENTED_EDGE('',*,*,#576,.F.);
#303=ORIENTED_EDGE('',*,*,#461,.F.);
#304=ORIENTED_EDGE('',*,*,#577,.T.);
#305=ORIENTED_EDGE('',*,*,#470,.T.);
#306=ORIENTED_EDGE('',*,*,#427,.F.);
#307=ORIENTED_EDGE('',*,*,#464,.T.);
#308=ORIENTED_EDGE('',*,*,#431,.F.);
#309=ORIENTED_EDGE('',*,*,#466,.F.);
#310=ORIENTED_EDGE('',*,*,#471,.F.);
#311=ORIENTED_EDGE('',*,*,#577,.F.);
#312=ORIENTED_EDGE('',*,*,#460,.F.);
#313=ORIENTED_EDGE('',*,*,#463,.T.);
#314=ORIENTED_EDGE('',*,*,#455,.F.);
#315=ORIENTED_EDGE('',*,*,#571,.T.);
#316=ORIENTED_EDGE('',*,*,#451,.F.);
#317=ORIENTED_EDGE('',*,*,#516,.F.);
#318=ORIENTED_EDGE('',*,*,#521,.F.);
#319=ORIENTED_EDGE('',*,*,#524,.T.);
#320=ORIENTED_EDGE('',*,*,#527,.F.);
#321=ORIENTED_EDGE('',*,*,#529,.T.);
#322=ORIENTED_EDGE('',*,*,#544,.F.);
#323=ORIENTED_EDGE('',*,*,#549,.F.);
#324=ORIENTED_EDGE('',*,*,#552,.T.);
#325=ORIENTED_EDGE('',*,*,#555,.F.);
#326=ORIENTED_EDGE('',*,*,#557,.T.);
#327=ORIENTED_EDGE('',*,*,#439,.F.);
#328=ORIENTED_EDGE('',*,*,#575,.F.);
#329=ORIENTED_EDGE('',*,*,#435,.F.);
#330=ORIENTED_EDGE('',*,*,#530,.F.);
#331=ORIENTED_EDGE('',*,*,#535,.F.);
#332=ORIENTED_EDGE('',*,*,#538,.T.);
#333=ORIENTED_EDGE('',*,*,#541,.F.);
#334=ORIENTED_EDGE('',*,*,#543,.T.);
#335=ORIENTED_EDGE('',*,*,#447,.F.);
#336=ORIENTED_EDGE('',*,*,#573,.F.);
#337=ORIENTED_EDGE('',*,*,#443,.F.);
#338=ORIENTED_EDGE('',*,*,#569,.F.);
#339=ORIENTED_EDGE('',*,*,#567,.F.);
#340=ORIENTED_EDGE('',*,*,#565,.F.);
#341=ORIENTED_EDGE('',*,*,#563,.F.);
#342=ORIENTED_EDGE('',*,*,#496,.F.);
#343=ORIENTED_EDGE('',*,*,#500,.F.);
#344=ORIENTED_EDGE('',*,*,#503,.F.);
#345=ORIENTED_EDGE('',*,*,#506,.T.);
#346=ORIENTED_EDGE('',*,*,#509,.F.);
#347=ORIENTED_EDGE('',*,*,#512,.F.);
#348=ORIENTED_EDGE('',*,*,#515,.F.);
#349=ORIENTED_EDGE('',*,*,#561,.F.);
#350=ORIENTED_EDGE('',*,*,#474,.F.);
#351=ORIENTED_EDGE('',*,*,#478,.T.);
#352=ORIENTED_EDGE('',*,*,#481,.F.);
#353=ORIENTED_EDGE('',*,*,#484,.T.);
#354=ORIENTED_EDGE('',*,*,#487,.T.);
#355=ORIENTED_EDGE('',*,*,#490,.T.);
#356=ORIENTED_EDGE('',*,*,#493,.T.);
#357=ORIENTED_EDGE('',*,*,#559,.T.);
#358=ORIENTED_EDGE('',*,*,#578,.T.);
#359=ORIENTED_EDGE('',*,*,#579,.T.);
#360=ORIENTED_EDGE('',*,*,#580,.T.);
#361=ORIENTED_EDGE('',*,*,#581,.T.);
#362=ORIENTED_EDGE('',*,*,#437,.F.);
#363=ORIENTED_EDGE('',*,*,#574,.T.);
#364=ORIENTED_EDGE('',*,*,#441,.F.);
#365=ORIENTED_EDGE('',*,*,#556,.F.);
#366=ORIENTED_EDGE('',*,*,#553,.T.);
#367=ORIENTED_EDGE('',*,*,#550,.F.);
#368=ORIENTED_EDGE('',*,*,#547,.T.);
#369=ORIENTED_EDGE('',*,*,#545,.T.);
#370=ORIENTED_EDGE('',*,*,#445,.F.);
#371=ORIENTED_EDGE('',*,*,#572,.T.);
#372=ORIENTED_EDGE('',*,*,#449,.F.);
#373=ORIENTED_EDGE('',*,*,#542,.F.);
#374=ORIENTED_EDGE('',*,*,#539,.T.);
#375=ORIENTED_EDGE('',*,*,#536,.F.);
#376=ORIENTED_EDGE('',*,*,#533,.T.);
#377=ORIENTED_EDGE('',*,*,#531,.T.);
#378=ORIENTED_EDGE('',*,*,#517,.T.);
#379=ORIENTED_EDGE('',*,*,#453,.F.);
#380=ORIENTED_EDGE('',*,*,#570,.F.);
#381=ORIENTED_EDGE('',*,*,#457,.F.);
#382=ORIENTED_EDGE('',*,*,#528,.F.);
#383=ORIENTED_EDGE('',*,*,#525,.T.);
#384=ORIENTED_EDGE('',*,*,#522,.F.);
#385=ORIENTED_EDGE('',*,*,#519,.T.);
#386=ORIENTED_EDGE('',*,*,#494,.T.);
#387=ORIENTED_EDGE('',*,*,#560,.T.);
#388=ORIENTED_EDGE('',*,*,#513,.T.);
#389=ORIENTED_EDGE('',*,*,#510,.T.);
#390=ORIENTED_EDGE('',*,*,#507,.T.);
#391=ORIENTED_EDGE('',*,*,#504,.F.);
#392=ORIENTED_EDGE('',*,*,#501,.T.);
#393=ORIENTED_EDGE('',*,*,#498,.T.);
#394=ORIENTED_EDGE('',*,*,#472,.T.);
#395=ORIENTED_EDGE('',*,*,#558,.F.);
#396=ORIENTED_EDGE('',*,*,#491,.F.);
#397=ORIENTED_EDGE('',*,*,#488,.F.);
#398=ORIENTED_EDGE('',*,*,#485,.F.);
#399=ORIENTED_EDGE('',*,*,#482,.F.);
#400=ORIENTED_EDGE('',*,*,#479,.T.);
#401=ORIENTED_EDGE('',*,*,#476,.F.);
#402=ORIENTED_EDGE('',*,*,#458,.T.);
#403=ORIENTED_EDGE('',*,*,#576,.T.);
#404=ORIENTED_EDGE('',*,*,#469,.T.);
#405=ORIENTED_EDGE('',*,*,#467,.T.);
#406=ORIENTED_EDGE('',*,*,#433,.F.);
#407=ORIENTED_EDGE('',*,*,#465,.F.);
#408=ORIENTED_EDGE('',*,*,#429,.F.);
#409=ORIENTED_EDGE('',*,*,#462,.F.);
#410=ORIENTED_EDGE('',*,*,#582,.T.);
#411=ORIENTED_EDGE('',*,*,#581,.F.);
#412=ORIENTED_EDGE('',*,*,#568,.T.);
#413=ORIENTED_EDGE('',*,*,#582,.F.);
#414=ORIENTED_EDGE('',*,*,#583,.T.);
#415=ORIENTED_EDGE('',*,*,#580,.F.);
#416=ORIENTED_EDGE('',*,*,#562,.T.);
#417=ORIENTED_EDGE('',*,*,#583,.F.);
#418=ORIENTED_EDGE('',*,*,#584,.T.);
#419=ORIENTED_EDGE('',*,*,#579,.F.);
#420=ORIENTED_EDGE('',*,*,#564,.T.);
#421=ORIENTED_EDGE('',*,*,#584,.F.);
#422=ORIENTED_EDGE('',*,*,#585,.T.);
#423=ORIENTED_EDGE('',*,*,#578,.F.);
#424=ORIENTED_EDGE('',*,*,#566,.T.);
#425=ORIENTED_EDGE('',*,*,#585,.F.);
#426=EDGE_CURVE('',#586,#587,#698,.F.);
#427=EDGE_CURVE('',#586,#588,#42,.T.);
#428=EDGE_CURVE('',#589,#588,#699,.T.);
#429=EDGE_CURVE('',#589,#587,#43,.F.);
#430=EDGE_CURVE('',#590,#591,#700,.T.);
#431=EDGE_CURVE('',#590,#592,#44,.T.);
#432=EDGE_CURVE('',#593,#592,#701,.F.);
#433=EDGE_CURVE('',#593,#591,#45,.F.);
#434=EDGE_CURVE('',#594,#595,#702,.F.);
#435=EDGE_CURVE('',#594,#596,#46,.T.);
#436=EDGE_CURVE('',#597,#596,#703,.T.);
#437=EDGE_CURVE('',#597,#595,#47,.F.);
#438=EDGE_CURVE('',#598,#599,#704,.T.);
#439=EDGE_CURVE('',#598,#600,#48,.T.);
#440=EDGE_CURVE('',#601,#600,#705,.F.);
#441=EDGE_CURVE('',#601,#599,#49,.F.);
#442=EDGE_CURVE('',#602,#603,#706,.F.);
#443=EDGE_CURVE('',#602,#604,#50,.T.);
#444=EDGE_CURVE('',#605,#604,#707,.T.);
#445=EDGE_CURVE('',#605,#603,#51,.F.);
#446=EDGE_CURVE('',#606,#607,#708,.T.);
#447=EDGE_CURVE('',#606,#608,#52,.T.);
#448=EDGE_CURVE('',#609,#608,#709,.F.);
#449=EDGE_CURVE('',#609,#607,#53,.F.);
#450=EDGE_CURVE('',#610,#611,#710,.T.);
#451=EDGE_CURVE('',#610,#612,#54,.T.);
#452=EDGE_CURVE('',#613,#612,#711,.F.);
#453=EDGE_CURVE('',#613,#611,#55,.F.);
#454=EDGE_CURVE('',#614,#615,#712,.F.);
#455=EDGE_CURVE('',#614,#616,#56,.T.);
#456=EDGE_CURVE('',#617,#616,#713,.T.);
#457=EDGE_CURVE('',#617,#615,#57,.F.);
#458=EDGE_CURVE('',#618,#619,#58,.T.);
#459=EDGE_CURVE('',#620,#618,#714,.T.);
#460=EDGE_CURVE('',#620,#621,#59,.T.);
#461=EDGE_CURVE('',#621,#619,#715,.T.);
#462=EDGE_CURVE('',#618,#589,#716,.T.);
#463=EDGE_CURVE('',#620,#588,#717,.T.);
#464=EDGE_CURVE('',#586,#592,#718,.T.);
#465=EDGE_CURVE('',#587,#593,#719,.T.);
#466=EDGE_CURVE('',#622,#590,#720,.T.);
#467=EDGE_CURVE('',#623,#591,#721,.T.);
#468=EDGE_CURVE('',#622,#623,#722,.T.);
#469=EDGE_CURVE('',#624,#623,#60,.T.);
#470=EDGE_CURVE('',#625,#624,#723,.T.);
#471=EDGE_CURVE('',#625,#622,#61,.T.);
#472=EDGE_CURVE('',#626,#627,#724,.T.);
#473=EDGE_CURVE('',#628,#626,#725,.T.);
#474=EDGE_CURVE('',#628,#629,#726,.T.);
#475=EDGE_CURVE('',#629,#627,#727,.T.);
#476=EDGE_CURVE('',#626,#630,#62,.T.);
#477=EDGE_CURVE('',#631,#630,#728,.T.);
#478=EDGE_CURVE('',#628,#631,#63,.T.);
#479=EDGE_CURVE('',#632,#630,#729,.T.);
#480=EDGE_CURVE('',#633,#632,#730,.T.);
#481=EDGE_CURVE('',#633,#631,#731,.T.);
#482=EDGE_CURVE('',#632,#634,#64,.T.);
#483=EDGE_CURVE('',#635,#634,#732,.T.);
#484=EDGE_CURVE('',#633,#635,#65,.T.);
#485=EDGE_CURVE('',#634,#636,#733,.T.);
#486=EDGE_CURVE('',#637,#636,#734,.T.);
#487=EDGE_CURVE('',#635,#637,#735,.T.);
#488=EDGE_CURVE('',#636,#638,#66,.T.);
#489=EDGE_CURVE('',#639,#638,#736,.T.);
#490=EDGE_CURVE('',#637,#639,#67,.T.);
#491=EDGE_CURVE('',#638,#640,#737,.T.);
#492=EDGE_CURVE('',#641,#640,#738,.T.);
#493=EDGE_CURVE('',#639,#641,#739,.T.);
#494=EDGE_CURVE('',#642,#643,#68,.T.);
#495=EDGE_CURVE('',#644,#642,#740,.T.);
#496=EDGE_CURVE('',#644,#645,#69,.T.);
#497=EDGE_CURVE('',#645,#643,#741,.T.);
#498=EDGE_CURVE('',#646,#642,#742,.T.);
#499=EDGE_CURVE('',#647,#646,#743,.T.);
#500=EDGE_CURVE('',#647,#644,#744,.T.);
#501=EDGE_CURVE('',#648,#646,#70,.T.);
#502=EDGE_CURVE('',#649,#648,#745,.T.);
#503=EDGE_CURVE('',#649,#647,#71,.T.);
#504=EDGE_CURVE('',#648,#650,#746,.T.);
#505=EDGE_CURVE('',#651,#650,#747,.T.);
#506=EDGE_CURVE('',#649,#651,#748,.T.);
#507=EDGE_CURVE('',#652,#650,#72,.T.);
#508=EDGE_CURVE('',#653,#652,#749,.T.);
#509=EDGE_CURVE('',#653,#651,#73,.T.);
#510=EDGE_CURVE('',#654,#652,#750,.T.);
#511=EDGE_CURVE('',#655,#654,#751,.T.);
#512=EDGE_CURVE('',#655,#653,#752,.T.);
#513=EDGE_CURVE('',#656,#654,#74,.T.);
#514=EDGE_CURVE('',#657,#656,#753,.T.);
#515=EDGE_CURVE('',#657,#655,#75,.T.);
#516=EDGE_CURVE('',#658,#610,#754,.T.);
#517=EDGE_CURVE('',#659,#611,#755,.T.);
#518=EDGE_CURVE('',#658,#659,#756,.T.);
#519=EDGE_CURVE('',#660,#659,#76,.T.);
#520=EDGE_CURVE('',#661,#660,#757,.T.);
#521=EDGE_CURVE('',#661,#658,#77,.T.);
#522=EDGE_CURVE('',#660,#662,#758,.T.);
#523=EDGE_CURVE('',#663,#662,#759,.T.);
#524=EDGE_CURVE('',#661,#663,#760,.T.);
#525=EDGE_CURVE('',#664,#662,#78,.T.);
#526=EDGE_CURVE('',#665,#664,#761,.T.);
#527=EDGE_CURVE('',#665,#663,#79,.T.);
#528=EDGE_CURVE('',#664,#617,#762,.T.);
#529=EDGE_CURVE('',#665,#616,#763,.T.);
#530=EDGE_CURVE('',#666,#602,#764,.T.);
#531=EDGE_CURVE('',#667,#603,#765,.T.);
#532=EDGE_CURVE('',#666,#667,#766,.T.);
#533=EDGE_CURVE('',#668,#667,#80,.T.);
#534=EDGE_CURVE('',#669,#668,#767,.T.);
#535=EDGE_CURVE('',#669,#666,#81,.T.);
#536=EDGE_CURVE('',#668,#670,#768,.T.);
#537=EDGE_CURVE('',#671,#670,#769,.T.);
#538=EDGE_CURVE('',#669,#671,#770,.T.);
#539=EDGE_CURVE('',#672,#670,#82,.T.);
#540=EDGE_CURVE('',#673,#672,#771,.T.);
#541=EDGE_CURVE('',#673,#671,#83,.T.);
#542=EDGE_CURVE('',#672,#609,#772,.T.);
#543=EDGE_CURVE('',#673,#608,#773,.T.);
#544=EDGE_CURVE('',#674,#594,#774,.T.);
#545=EDGE_CURVE('',#675,#595,#775,.T.);
#546=EDGE_CURVE('',#674,#675,#776,.T.);
#547=EDGE_CURVE('',#676,#675,#84,.T.);
#548=EDGE_CURVE('',#677,#676,#777,.T.);
#549=EDGE_CURVE('',#677,#674,#85,.T.);
#550=EDGE_CURVE('',#676,#678,#778,.T.);
#551=EDGE_CURVE('',#679,#678,#779,.T.);
#552=EDGE_CURVE('',#677,#679,#780,.T.);
#553=EDGE_CURVE('',#680,#678,#86,.T.);
#554=EDGE_CURVE('',#681,#680,#781,.T.);
#555=EDGE_CURVE('',#681,#679,#87,.T.);
#556=EDGE_CURVE('',#680,#601,#782,.T.);
#557=EDGE_CURVE('',#681,#600,#783,.T.);
#558=EDGE_CURVE('',#640,#627,#88,.T.);
#559=EDGE_CURVE('',#641,#629,#89,.T.);
#560=EDGE_CURVE('',#643,#656,#784,.T.);
#561=EDGE_CURVE('',#645,#657,#785,.T.);
#562=EDGE_CURVE('',#682,#682,#90,.T.);
#563=EDGE_CURVE('',#683,#683,#91,.T.);
#564=EDGE_CURVE('',#684,#684,#92,.T.);
#565=EDGE_CURVE('',#685,#685,#93,.T.);
#566=EDGE_CURVE('',#686,#686,#94,.T.);
#567=EDGE_CURVE('',#687,#687,#95,.T.);
#568=EDGE_CURVE('',#688,#688,#96,.T.);
#569=EDGE_CURVE('',#689,#689,#97,.T.);
#570=EDGE_CURVE('',#615,#613,#786,.T.);
#571=EDGE_CURVE('',#614,#612,#787,.T.);
#572=EDGE_CURVE('',#605,#607,#788,.T.);
#573=EDGE_CURVE('',#604,#606,#789,.T.);
#574=EDGE_CURVE('',#597,#599,#790,.T.);
#575=EDGE_CURVE('',#596,#598,#791,.T.);
#576=EDGE_CURVE('',#619,#624,#792,.T.);
#577=EDGE_CURVE('',#621,#625,#793,.T.);
#578=EDGE_CURVE('',#690,#690,#98,.T.);
#579=EDGE_CURVE('',#691,#691,#99,.T.);
#580=EDGE_CURVE('',#692,#692,#100,.T.);
#581=EDGE_CURVE('',#693,#693,#101,.T.);
#582=EDGE_CURVE('',#694,#694,#102,.T.);
#583=EDGE_CURVE('',#695,#695,#103,.T.);
#584=EDGE_CURVE('',#696,#696,#104,.T.);
#585=EDGE_CURVE('',#697,#697,#105,.T.);
#586=VERTEX_POINT('',#1660);
#587=VERTEX_POINT('',#1661);
#588=VERTEX_POINT('',#1663);
#589=VERTEX_POINT('',#1665);
#590=VERTEX_POINT('',#1669);
#591=VERTEX_POINT('',#1670);
#592=VERTEX_POINT('',#1672);
#593=VERTEX_POINT('',#1674);
#594=VERTEX_POINT('',#1678);
#595=VERTEX_POINT('',#1679);
#596=VERTEX_POINT('',#1681);
#597=VERTEX_POINT('',#1683);
#598=VERTEX_POINT('',#1687);
#599=VERTEX_POINT('',#1688);
#600=VERTEX_POINT('',#1690);
#601=VERTEX_POINT('',#1692);
#602=VERTEX_POINT('',#1696);
#603=VERTEX_POINT('',#1697);
#604=VERTEX_POINT('',#1699);
#605=VERTEX_POINT('',#1701);
#606=VERTEX_POINT('',#1705);
#607=VERTEX_POINT('',#1706);
#608=VERTEX_POINT('',#1708);
#609=VERTEX_POINT('',#1710);
#610=VERTEX_POINT('',#1714);
#611=VERTEX_POINT('',#1715);
#612=VERTEX_POINT('',#1717);
#613=VERTEX_POINT('',#1719);
#614=VERTEX_POINT('',#1723);
#615=VERTEX_POINT('',#1724);
#616=VERTEX_POINT('',#1726);
#617=VERTEX_POINT('',#1728);
#618=VERTEX_POINT('',#1732);
#619=VERTEX_POINT('',#1733);
#620=VERTEX_POINT('',#1735);
#621=VERTEX_POINT('',#1737);
#622=VERTEX_POINT('',#1747);
#623=VERTEX_POINT('',#1749);
#624=VERTEX_POINT('',#1753);
#625=VERTEX_POINT('',#1755);
#626=VERTEX_POINT('',#1759);
#627=VERTEX_POINT('',#1760);
#628=VERTEX_POINT('',#1762);
#629=VERTEX_POINT('',#1764);
#630=VERTEX_POINT('',#1768);
#631=VERTEX_POINT('',#1770);
#632=VERTEX_POINT('',#1774);
#633=VERTEX_POINT('',#1776);
#634=VERTEX_POINT('',#1780);
#635=VERTEX_POINT('',#1782);
#636=VERTEX_POINT('',#1786);
#637=VERTEX_POINT('',#1788);
#638=VERTEX_POINT('',#1792);
#639=VERTEX_POINT('',#1794);
#640=VERTEX_POINT('',#1798);
#641=VERTEX_POINT('',#1800);
#642=VERTEX_POINT('',#1804);
#643=VERTEX_POINT('',#1805);
#644=VERTEX_POINT('',#1807);
#645=VERTEX_POINT('',#1809);
#646=VERTEX_POINT('',#1813);
#647=VERTEX_POINT('',#1815);
#648=VERTEX_POINT('',#1819);
#649=VERTEX_POINT('',#1821);
#650=VERTEX_POINT('',#1825);
#651=VERTEX_POINT('',#1827);
#652=VERTEX_POINT('',#1831);
#653=VERTEX_POINT('',#1833);
#654=VERTEX_POINT('',#1837);
#655=VERTEX_POINT('',#1839);
#656=VERTEX_POINT('',#1843);
#657=VERTEX_POINT('',#1845);
#658=VERTEX_POINT('',#1849);
#659=VERTEX_POINT('',#1851);
#660=VERTEX_POINT('',#1855);
#661=VERTEX_POINT('',#1857);
#662=VERTEX_POINT('',#1861);
#663=VERTEX_POINT('',#1863);
#664=VERTEX_POINT('',#1867);
#665=VERTEX_POINT('',#1869);
#666=VERTEX_POINT('',#1876);
#667=VERTEX_POINT('',#1878);
#668=VERTEX_POINT('',#1882);
#669=VERTEX_POINT('',#1884);
#670=VERTEX_POINT('',#1888);
#671=VERTEX_POINT('',#1890);
#672=VERTEX_POINT('',#1894);
#673=VERTEX_POINT('',#1896);
#674=VERTEX_POINT('',#1903);
#675=VERTEX_POINT('',#1905);
#676=VERTEX_POINT('',#1909);
#677=VERTEX_POINT('',#1911);
#678=VERTEX_POINT('',#1915);
#679=VERTEX_POINT('',#1917);
#680=VERTEX_POINT('',#1921);
#681=VERTEX_POINT('',#1923);
#682=VERTEX_POINT('',#1936);
#683=VERTEX_POINT('',#1938);
#684=VERTEX_POINT('',#1941);
#685=VERTEX_POINT('',#1943);
#686=VERTEX_POINT('',#1946);
#687=VERTEX_POINT('',#1948);
#688=VERTEX_POINT('',#1951);
#689=VERTEX_POINT('',#1953);
#690=VERTEX_POINT('',#1969);
#691=VERTEX_POINT('',#1971);
#692=VERTEX_POINT('',#1973);
#693=VERTEX_POINT('',#1975);
#694=VERTEX_POINT('',#1978);
#695=VERTEX_POINT('',#1982);
#696=VERTEX_POINT('',#1986);
#697=VERTEX_POINT('',#1990);
#698=LINE('',#1659,#794);
#699=LINE('',#1664,#795);
#700=LINE('',#1668,#796);
#701=LINE('',#1673,#797);
#702=LINE('',#1677,#798);
#703=LINE('',#1682,#799);
#704=LINE('',#1686,#800);
#705=LINE('',#1691,#801);
#706=LINE('',#1695,#802);
#707=LINE('',#1700,#803);
#708=LINE('',#1704,#804);
#709=LINE('',#1709,#805);
#710=LINE('',#1713,#806);
#711=LINE('',#1718,#807);
#712=LINE('',#1722,#808);
#713=LINE('',#1727,#809);
#714=LINE('',#1734,#810);
#715=LINE('',#1738,#811);
#716=LINE('',#1740,#812);
#717=LINE('',#1741,#813);
#718=LINE('',#1743,#814);
#719=LINE('',#1744,#815);
#720=LINE('',#1746,#816);
#721=LINE('',#1748,#817);
#722=LINE('',#1750,#818);
#723=LINE('',#1754,#819);
#724=LINE('',#1758,#820);
#725=LINE('',#1761,#821);
#726=LINE('',#1763,#822);
#727=LINE('',#1765,#823);
#728=LINE('',#1769,#824);
#729=LINE('',#1773,#825);
#730=LINE('',#1775,#826);
#731=LINE('',#1777,#827);
#732=LINE('',#1781,#828);
#733=LINE('',#1785,#829);
#734=LINE('',#1787,#830);
#735=LINE('',#1789,#831);
#736=LINE('',#1793,#832);
#737=LINE('',#1797,#833);
#738=LINE('',#1799,#834);
#739=LINE('',#1801,#835);
#740=LINE('',#1806,#836);
#741=LINE('',#1810,#837);
#742=LINE('',#1812,#838);
#743=LINE('',#1814,#839);
#744=LINE('',#1816,#840);
#745=LINE('',#1820,#841);
#746=LINE('',#1824,#842);
#747=LINE('',#1826,#843);
#748=LINE('',#1828,#844);
#749=LINE('',#1832,#845);
#750=LINE('',#1836,#846);
#751=LINE('',#1838,#847);
#752=LINE('',#1840,#848);
#753=LINE('',#1844,#849);
#754=LINE('',#1848,#850);
#755=LINE('',#1850,#851);
#756=LINE('',#1852,#852);
#757=LINE('',#1856,#853);
#758=LINE('',#1860,#854);
#759=LINE('',#1862,#855);
#760=LINE('',#1864,#856);
#761=LINE('',#1868,#857);
#762=LINE('',#1872,#858);
#763=LINE('',#1873,#859);
#764=LINE('',#1875,#860);
#765=LINE('',#1877,#861);
#766=LINE('',#1879,#862);
#767=LINE('',#1883,#863);
#768=LINE('',#1887,#864);
#769=LINE('',#1889,#865);
#770=LINE('',#1891,#866);
#771=LINE('',#1895,#867);
#772=LINE('',#1899,#868);
#773=LINE('',#1900,#869);
#774=LINE('',#1902,#870);
#775=LINE('',#1904,#871);
#776=LINE('',#1906,#872);
#777=LINE('',#1910,#873);
#778=LINE('',#1914,#874);
#779=LINE('',#1916,#875);
#780=LINE('',#1918,#876);
#781=LINE('',#1922,#877);
#782=LINE('',#1926,#878);
#783=LINE('',#1927,#879);
#784=LINE('',#1932,#880);
#785=LINE('',#1933,#881);
#786=LINE('',#1955,#882);
#787=LINE('',#1956,#883);
#788=LINE('',#1958,#884);
#789=LINE('',#1959,#885);
#790=LINE('',#1961,#886);
#791=LINE('',#1962,#887);
#792=LINE('',#1964,#888);
#793=LINE('',#1965,#889);
#794=VECTOR('',#1311,1.);
#795=VECTOR('',#1314,1.);
#796=VECTOR('',#1319,1.);
#797=VECTOR('',#1322,1.);
#798=VECTOR('',#1327,1.);
#799=VECTOR('',#1330,1.);
#800=VECTOR('',#1335,1.);
#801=VECTOR('',#1338,1.);
#802=VECTOR('',#1343,1.);
#803=VECTOR('',#1346,1.);
#804=VECTOR('',#1351,1.);
#805=VECTOR('',#1354,1.);
#806=VECTOR('',#1359,1.);
#807=VECTOR('',#1362,1.);
#808=VECTOR('',#1367,1.);
#809=VECTOR('',#1370,1.);
#810=VECTOR('',#1377,1.);
#811=VECTOR('',#1380,1.);
#812=VECTOR('',#1383,1.);
#813=VECTOR('',#1384,1.);
#814=VECTOR('',#1387,1.);
#815=VECTOR('',#1388,1.);
#816=VECTOR('',#1391,1.);
#817=VECTOR('',#1392,1.);
#818=VECTOR('',#1393,1.);
#819=VECTOR('',#1398,1.);
#820=VECTOR('',#1403,1.);
#821=VECTOR('',#1404,1.);
#822=VECTOR('',#1405,1.);
#823=VECTOR('',#1406,1.);
#824=VECTOR('',#1411,1.);
#825=VECTOR('',#1416,1.);
#826=VECTOR('',#1417,1.);
#827=VECTOR('',#1418,1.);
#828=VECTOR('',#1423,1.);
#829=VECTOR('',#1428,1.);
#830=VECTOR('',#1429,1.);
#831=VECTOR('',#1430,1.);
#832=VECTOR('',#1435,1.);
#833=VECTOR('',#1440,1.);
#834=VECTOR('',#1441,1.);
#835=VECTOR('',#1442,1.);
#836=VECTOR('',#1447,1.);
#837=VECTOR('',#1450,1.);
#838=VECTOR('',#1453,1.);
#839=VECTOR('',#1454,1.);
#840=VECTOR('',#1455,1.);
#841=VECTOR('',#1460,1.);
#842=VECTOR('',#1465,1.);
#843=VECTOR('',#1466,1.);
#844=VECTOR('',#1467,1.);
#845=VECTOR('',#1472,1.);
#846=VECTOR('',#1477,1.);
#847=VECTOR('',#1478,1.);
#848=VECTOR('',#1479,1.);
#849=VECTOR('',#1484,1.);
#850=VECTOR('',#1489,1.);
#851=VECTOR('',#1490,1.);
#852=VECTOR('',#1491,1.);
#853=VECTOR('',#1496,1.);
#854=VECTOR('',#1501,1.);
#855=VECTOR('',#1502,1.);
#856=VECTOR('',#1503,1.);
#857=VECTOR('',#1508,1.);
#858=VECTOR('',#1513,1.);
#859=VECTOR('',#1514,1.);
#860=VECTOR('',#1517,1.);
#861=VECTOR('',#1518,1.);
#862=VECTOR('',#1519,1.);
#863=VECTOR('',#1524,1.);
#864=VECTOR('',#1529,1.);
#865=VECTOR('',#1530,1.);
#866=VECTOR('',#1531,1.);
#867=VECTOR('',#1536,1.);
#868=VECTOR('',#1541,1.);
#869=VECTOR('',#1542,1.);
#870=VECTOR('',#1545,1.);
#871=VECTOR('',#1546,1.);
#872=VECTOR('',#1547,1.);
#873=VECTOR('',#1552,1.);
#874=VECTOR('',#1557,1.);
#875=VECTOR('',#1558,1.);
#876=VECTOR('',#1559,1.);
#877=VECTOR('',#1564,1.);
#878=VECTOR('',#1569,1.);
#879=VECTOR('',#1570,1.);
#880=VECTOR('',#1579,1.);
#881=VECTOR('',#1580,1.);
#882=VECTOR('',#1607,1.);
#883=VECTOR('',#1608,1.);
#884=VECTOR('',#1611,1.);
#885=VECTOR('',#1612,1.);
#886=VECTOR('',#1615,1.);
#887=VECTOR('',#1616,1.);
#888=VECTOR('',#1619,1.);
#889=VECTOR('',#1620,1.);
#890=EDGE_LOOP('',(#106,#107,#108,#109));
#891=EDGE_LOOP('',(#110,#111,#112,#113));
#892=EDGE_LOOP('',(#114,#115,#116,#117));
#893=EDGE_LOOP('',(#118,#119,#120,#121));
#894=EDGE_LOOP('',(#122,#123,#124,#125));
#895=EDGE_LOOP('',(#126,#127,#128,#129));
#896=EDGE_LOOP('',(#130,#131,#132,#133));
#897=EDGE_LOOP('',(#134,#135,#136,#137));
#898=EDGE_LOOP('',(#138,#139,#140,#141));
#899=EDGE_LOOP('',(#142,#143,#144,#145));
#900=EDGE_LOOP('',(#146,#147,#148,#149));
#901=EDGE_LOOP('',(#150,#151,#152,#153));
#902=EDGE_LOOP('',(#154,#155,#156,#157));
#903=EDGE_LOOP('',(#158,#159,#160,#161));
#904=EDGE_LOOP('',(#162,#163,#164,#165));
#905=EDGE_LOOP('',(#166,#167,#168,#169));
#906=EDGE_LOOP('',(#170,#171,#172,#173));
#907=EDGE_LOOP('',(#174,#175,#176,#177));
#908=EDGE_LOOP('',(#178,#179,#180,#181));
#909=EDGE_LOOP('',(#182,#183,#184,#185));
#910=EDGE_LOOP('',(#186,#187,#188,#189));
#911=EDGE_LOOP('',(#190,#191,#192,#193));
#912=EDGE_LOOP('',(#194,#195,#196,#197));
#913=EDGE_LOOP('',(#198,#199,#200,#201));
#914=EDGE_LOOP('',(#202,#203,#204,#205));
#915=EDGE_LOOP('',(#206,#207,#208,#209));
#916=EDGE_LOOP('',(#210,#211,#212,#213));
#917=EDGE_LOOP('',(#214,#215,#216,#217));
#918=EDGE_LOOP('',(#218,#219,#220,#221));
#919=EDGE_LOOP('',(#222,#223,#224,#225));
#920=EDGE_LOOP('',(#226,#227,#228,#229));
#921=EDGE_LOOP('',(#230,#231,#232,#233));
#922=EDGE_LOOP('',(#234,#235,#236,#237));
#923=EDGE_LOOP('',(#238,#239,#240,#241));
#924=EDGE_LOOP('',(#242,#243,#244,#245));
#925=EDGE_LOOP('',(#246,#247,#248,#249));
#926=EDGE_LOOP('',(#250,#251,#252,#253));
#927=EDGE_LOOP('',(#254,#255,#256,#257));
#928=EDGE_LOOP('',(#258,#259,#260,#261));
#929=EDGE_LOOP('',(#262,#263,#264,#265));
#930=EDGE_LOOP('',(#266,#267,#268,#269));
#931=EDGE_LOOP('',(#270,#271,#272,#273));
#932=EDGE_LOOP('',(#274,#275,#276,#277));
#933=EDGE_LOOP('',(#278,#279,#280,#281));
#934=EDGE_LOOP('',(#282));
#935=EDGE_LOOP('',(#283));
#936=EDGE_LOOP('',(#284));
#937=EDGE_LOOP('',(#285));
#938=EDGE_LOOP('',(#286));
#939=EDGE_LOOP('',(#287));
#940=EDGE_LOOP('',(#288));
#941=EDGE_LOOP('',(#289));
#942=EDGE_LOOP('',(#290,#291,#292,#293));
#943=EDGE_LOOP('',(#294,#295,#296,#297));
#944=EDGE_LOOP('',(#298,#299,#300,#301));
#945=EDGE_LOOP('',(#302,#303,#304,#305));
#946=EDGE_LOOP('',(#306,#307,#308,#309,#310,#311,#312,#313));
#947=EDGE_LOOP('',(#314,#315,#316,#317,#318,#319,#320,#321));
#948=EDGE_LOOP('',(#322,#323,#324,#325,#326,#327,#328,#329));
#949=EDGE_LOOP('',(#330,#331,#332,#333,#334,#335,#336,#337));
#950=EDGE_LOOP('',(#338));
#951=EDGE_LOOP('',(#339));
#952=EDGE_LOOP('',(#340));
#953=EDGE_LOOP('',(#341));
#954=EDGE_LOOP('',(#342,#343,#344,#345,#346,#347,#348,#349));
#955=EDGE_LOOP('',(#350,#351,#352,#353,#354,#355,#356,#357));
#956=EDGE_LOOP('',(#358));
#957=EDGE_LOOP('',(#359));
#958=EDGE_LOOP('',(#360));
#959=EDGE_LOOP('',(#361));
#960=EDGE_LOOP('',(#362,#363,#364,#365,#366,#367,#368,#369));
#961=EDGE_LOOP('',(#370,#371,#372,#373,#374,#375,#376,#377));
#962=EDGE_LOOP('',(#378,#379,#380,#381,#382,#383,#384,#385));
#963=EDGE_LOOP('',(#386,#387,#388,#389,#390,#391,#392,#393));
#964=EDGE_LOOP('',(#394,#395,#396,#397,#398,#399,#400,#401));
#965=EDGE_LOOP('',(#402,#403,#404,#405,#406,#407,#408,#409));
#966=EDGE_LOOP('',(#410));
#967=EDGE_LOOP('',(#411));
#968=EDGE_LOOP('',(#412));
#969=EDGE_LOOP('',(#413));
#970=EDGE_LOOP('',(#414));
#971=EDGE_LOOP('',(#415));
#972=EDGE_LOOP('',(#416));
#973=EDGE_LOOP('',(#417));
#974=EDGE_LOOP('',(#418));
#975=EDGE_LOOP('',(#419));
#976=EDGE_LOOP('',(#420));
#977=EDGE_LOOP('',(#421));
#978=EDGE_LOOP('',(#422));
#979=EDGE_LOOP('',(#423));
#980=EDGE_LOOP('',(#424));
#981=EDGE_LOOP('',(#425));
#982=FACE_BOUND('',#890,.T.);
#983=FACE_BOUND('',#891,.T.);
#984=FACE_BOUND('',#892,.T.);
#985=FACE_BOUND('',#893,.T.);
#986=FACE_BOUND('',#894,.T.);
#987=FACE_BOUND('',#895,.T.);
#988=FACE_BOUND('',#896,.T.);
#989=FACE_BOUND('',#897,.T.);
#990=FACE_BOUND('',#898,.T.);
#991=FACE_BOUND('',#899,.T.);
#992=FACE_BOUND('',#900,.T.);
#993=FACE_BOUND('',#901,.T.);
#994=FACE_BOUND('',#902,.T.);
#995=FACE_BOUND('',#903,.T.);
#996=FACE_BOUND('',#904,.T.);
#997=FACE_BOUND('',#905,.T.);
#998=FACE_BOUND('',#906,.T.);
#999=FACE_BOUND('',#907,.T.);
#1000=FACE_BOUND('',#908,.T.);
#1001=FACE_BOUND('',#909,.T.);
#1002=FACE_BOUND('',#910,.T.);
#1003=FACE_BOUND('',#911,.T.);
#1004=FACE_BOUND('',#912,.T.);
#1005=FACE_BOUND('',#913,.T.);
#1006=FACE_BOUND('',#914,.T.);
#1007=FACE_BOUND('',#915,.T.);
#1008=FACE_BOUND('',#916,.T.);
#1009=FACE_BOUND('',#917,.T.);
#1010=FACE_BOUND('',#918,.T.);
#1011=FACE_BOUND('',#919,.T.);
#1012=FACE_BOUND('',#920,.T.);
#1013=FACE_BOUND('',#921,.T.);
#1014=FACE_BOUND('',#922,.T.);
#1015=FACE_BOUND('',#923,.T.);
#1016=FACE_BOUND('',#924,.T.);
#1017=FACE_BOUND('',#925,.T.);
#1018=FACE_BOUND('',#926,.T.);
#1019=FACE_BOUND('',#927,.T.);
#1020=FACE_BOUND('',#928,.T.);
#1021=FACE_BOUND('',#929,.T.);
#1022=FACE_BOUND('',#930,.T.);
#1023=FACE_BOUND('',#931,.T.);
#1024=FACE_BOUND('',#932,.T.);
#1025=FACE_BOUND('',#933,.T.);
#1026=FACE_BOUND('',#934,.T.);
#1027=FACE_BOUND('',#935,.T.);
#1028=FACE_BOUND('',#936,.T.);
#1029=FACE_BOUND('',#937,.T.);
#1030=FACE_BOUND('',#938,.T.);
#1031=FACE_BOUND('',#939,.T.);
#1032=FACE_BOUND('',#940,.T.);
#1033=FACE_BOUND('',#941,.T.);
#1034=FACE_BOUND('',#942,.T.);
#1035=FACE_BOUND('',#943,.T.);
#1036=FACE_BOUND('',#944,.T.);
#1037=FACE_BOUND('',#945,.T.);
#1038=FACE_BOUND('',#946,.T.);
#1039=FACE_BOUND('',#947,.T.);
#1040=FACE_BOUND('',#948,.T.);
#1041=FACE_BOUND('',#949,.T.);
#1042=FACE_BOUND('',#950,.T.);
#1043=FACE_BOUND('',#951,.T.);
#1044=FACE_BOUND('',#952,.T.);
#1045=FACE_BOUND('',#953,.T.);
#1046=FACE_BOUND('',#954,.T.);
#1047=FACE_BOUND('',#955,.T.);
#1048=FACE_BOUND('',#956,.T.);
#1049=FACE_BOUND('',#957,.T.);
#1050=FACE_BOUND('',#958,.T.);
#1051=FACE_BOUND('',#959,.T.);
#1052=FACE_BOUND('',#960,.T.);
#1053=FACE_BOUND('',#961,.T.);
#1054=FACE_BOUND('',#962,.T.);
#1055=FACE_BOUND('',#963,.T.);
#1056=FACE_BOUND('',#964,.T.);
#1057=FACE_BOUND('',#965,.T.);
#1058=FACE_BOUND('',#966,.T.);
#1059=FACE_BOUND('',#967,.T.);
#1060=FACE_BOUND('',#968,.T.);
#1061=FACE_BOUND('',#969,.T.);
#1062=FACE_BOUND('',#970,.T.);
#1063=FACE_BOUND('',#971,.T.);
#1064=FACE_BOUND('',#972,.T.);
#1065=FACE_BOUND('',#973,.T.);
#1066=FACE_BOUND('',#974,.T.);
#1067=FACE_BOUND('',#975,.T.);
#1068=FACE_BOUND('',#976,.T.);
#1069=FACE_BOUND('',#977,.T.);
#1070=FACE_BOUND('',#978,.T.);
#1071=FACE_BOUND('',#979,.T.);
#1072=FACE_BOUND('',#980,.T.);
#1073=FACE_BOUND('',#981,.T.);
#1074=CYLINDRICAL_SURFACE('',#1181,0.00653281482438187);
#1075=CYLINDRICAL_SURFACE('',#1184,0.00653281482438187);
#1076=CYLINDRICAL_SURFACE('',#1187,0.00653281482438187);
#1077=CYLINDRICAL_SURFACE('',#1190,0.00653281482438182);
#1078=CYLINDRICAL_SURFACE('',#1193,0.00653281482438191);
#1079=CYLINDRICAL_SURFACE('',#1196,0.00653281482438186);
#1080=CYLINDRICAL_SURFACE('',#1199,0.00653281482438164);
#1081=CYLINDRICAL_SURFACE('',#1202,0.00653281482438181);
#1082=CYLINDRICAL_SURFACE('',#1205,0.005);
#1083=CYLINDRICAL_SURFACE('',#1211,0.005);
#1084=CYLINDRICAL_SURFACE('',#1215,0.00500000000000006);
#1085=CYLINDRICAL_SURFACE('',#1219,0.005);
#1086=CYLINDRICAL_SURFACE('',#1223,0.005);
#1087=CYLINDRICAL_SURFACE('',#1227,0.005);
#1088=CYLINDRICAL_SURFACE('',#1231,0.005);
#1089=CYLINDRICAL_SURFACE('',#1235,0.005);
#1090=CYLINDRICAL_SURFACE('',#1239,0.005);
#1091=CYLINDRICAL_SURFACE('',#1243,0.005);
#1092=CYLINDRICAL_SURFACE('',#1247,0.005);
#1093=CYLINDRICAL_SURFACE('',#1252,0.005);
#1094=CYLINDRICAL_SURFACE('',#1256,0.005);
#1095=CYLINDRICAL_SURFACE('',#1261,0.005);
#1096=CYLINDRICAL_SURFACE('',#1265,0.005);
#1097=CYLINDRICAL_SURFACE('',#1269,0.0050000000000001);
#1098=CYLINDRICAL_SURFACE('',#1273,0.00185);
#1099=CYLINDRICAL_SURFACE('',#1276,0.00185);
#1100=CYLINDRICAL_SURFACE('',#1279,0.00185);
#1101=CYLINDRICAL_SURFACE('',#1282,0.00185);
#1102=CYLINDRICAL_SURFACE('',#1295,0.003);
#1103=CYLINDRICAL_SURFACE('',#1298,0.003);
#1104=CYLINDRICAL_SURFACE('',#1301,0.003);
#1105=CYLINDRICAL_SURFACE('',#1304,0.003);
#1106=ADVANCED_FACE('',(#982),#1074,.F.);
#1107=ADVANCED_FACE('',(#983),#1075,.F.);
#1108=ADVANCED_FACE('',(#984),#1076,.F.);
#1109=ADVANCED_FACE('',(#985),#1077,.F.);
#1110=ADVANCED_FACE('',(#986),#1078,.F.);
#1111=ADVANCED_FACE('',(#987),#1079,.F.);
#1112=ADVANCED_FACE('',(#988),#1080,.F.);
#1113=ADVANCED_FACE('',(#989),#1081,.F.);
#1114=ADVANCED_FACE('',(#990),#1082,.F.);
#1115=ADVANCED_FACE('',(#991),#12,.F.);
#1116=ADVANCED_FACE('',(#992),#13,.F.);
#1117=ADVANCED_FACE('',(#993),#14,.T.);
#1118=ADVANCED_FACE('',(#994),#1083,.F.);
#1119=ADVANCED_FACE('',(#995),#15,.T.);
#1120=ADVANCED_FACE('',(#996),#1084,.T.);
#1121=ADVANCED_FACE('',(#997),#16,.T.);
#1122=ADVANCED_FACE('',(#998),#1085,.T.);
#1123=ADVANCED_FACE('',(#999),#17,.F.);
#1124=ADVANCED_FACE('',(#1000),#1086,.T.);
#1125=ADVANCED_FACE('',(#1001),#18,.F.);
#1126=ADVANCED_FACE('',(#1002),#1087,.F.);
#1127=ADVANCED_FACE('',(#1003),#19,.T.);
#1128=ADVANCED_FACE('',(#1004),#1088,.F.);
#1129=ADVANCED_FACE('',(#1005),#20,.F.);
#1130=ADVANCED_FACE('',(#1006),#1089,.F.);
#1131=ADVANCED_FACE('',(#1007),#21,.T.);
#1132=ADVANCED_FACE('',(#1008),#1090,.F.);
#1133=ADVANCED_FACE('',(#1009),#22,.T.);
#1134=ADVANCED_FACE('',(#1010),#1091,.F.);
#1135=ADVANCED_FACE('',(#1011),#23,.F.);
#1136=ADVANCED_FACE('',(#1012),#1092,.F.);
#1137=ADVANCED_FACE('',(#1013),#24,.F.);
#1138=ADVANCED_FACE('',(#1014),#25,.T.);
#1139=ADVANCED_FACE('',(#1015),#1093,.F.);
#1140=ADVANCED_FACE('',(#1016),#26,.F.);
#1141=ADVANCED_FACE('',(#1017),#1094,.F.);
#1142=ADVANCED_FACE('',(#1018),#27,.F.);
#1143=ADVANCED_FACE('',(#1019),#28,.T.);
#1144=ADVANCED_FACE('',(#1020),#1095,.F.);
#1145=ADVANCED_FACE('',(#1021),#29,.F.);
#1146=ADVANCED_FACE('',(#1022),#1096,.F.);
#1147=ADVANCED_FACE('',(#1023),#30,.F.);
#1148=ADVANCED_FACE('',(#1024),#1097,.T.);
#1149=ADVANCED_FACE('',(#1025),#31,.T.);
#1150=ADVANCED_FACE('',(#1026,#1027),#1098,.F.);
#1151=ADVANCED_FACE('',(#1028,#1029),#1099,.F.);
#1152=ADVANCED_FACE('',(#1030,#1031),#1100,.F.);
#1153=ADVANCED_FACE('',(#1032,#1033),#1101,.F.);
#1154=ADVANCED_FACE('',(#1034),#32,.F.);
#1155=ADVANCED_FACE('',(#1035),#33,.T.);
#1156=ADVANCED_FACE('',(#1036),#34,.T.);
#1157=ADVANCED_FACE('',(#1037),#35,.T.);
#1158=ADVANCED_FACE('',(#1038,#1039,#1040,#1041,#1042,#1043,#1044,#1045,
#1046,#1047),#36,.T.);
#1159=ADVANCED_FACE('',(#1048,#1049,#1050,#1051,#1052,#1053,#1054,#1055,
#1056,#1057),#37,.F.);
#1160=ADVANCED_FACE('',(#1058,#1059),#1102,.F.);
#1161=ADVANCED_FACE('',(#1060,#1061),#38,.F.);
#1162=ADVANCED_FACE('',(#1062,#1063),#1103,.F.);
#1163=ADVANCED_FACE('',(#1064,#1065),#39,.F.);
#1164=ADVANCED_FACE('',(#1066,#1067),#1104,.F.);
#1165=ADVANCED_FACE('',(#1068,#1069),#40,.F.);
#1166=ADVANCED_FACE('',(#1070,#1071),#1105,.F.);
#1167=ADVANCED_FACE('',(#1072,#1073),#41,.F.);
#1168=CLOSED_SHELL('',(#1106,#1107,#1108,#1109,#1110,#1111,#1112,#1113,
#1114,#1115,#1116,#1117,#1118,#1119,#1120,#1121,#1122,#1123,#1124,#1125,
#1126,#1127,#1128,#1129,#1130,#1131,#1132,#1133,#1134,#1135,#1136,#1137,
#1138,#1139,#1140,#1141,#1142,#1143,#1144,#1145,#1146,#1147,#1148,#1149,
#1150,#1151,#1152,#1153,#1154,#1155,#1156,#1157,#1158,#1159,#1160,#1161,
#1162,#1163,#1164,#1165,#1166,#1167));
#1169=STYLED_ITEM('',(#1170),#1177);
#1170=PRESENTATION_STYLE_ASSIGNMENT((#1171));
#1171=SURFACE_STYLE_USAGE(.BOTH.,#1172);
#1172=SURFACE_SIDE_STYLE('',(#1173));
#1173=SURFACE_STYLE_FILL_AREA(#1174);
#1174=FILL_AREA_STYLE('',(#1175));
#1175=FILL_AREA_STYLE_COLOUR('',#1176);
#1176=COLOUR_RGB('',0.917647058823529,0.917647058823529,0.917647058823529);
#1177=MANIFOLD_SOLID_BREP('baseplate',#1168);
#1178=SHAPE_DEFINITION_REPRESENTATION(#1998,#1179);
#1179=SHAPE_REPRESENTATION('baseplate',(#1180),#1993);
#1180=AXIS2_PLACEMENT_3D('',#1657,#1307,#1308);
#1181=AXIS2_PLACEMENT_3D('',#1658,#1309,#1310);
#1182=AXIS2_PLACEMENT_3D('',#1662,#1312,#1313);
#1183=AXIS2_PLACEMENT_3D('',#1666,#1315,#1316);
#1184=AXIS2_PLACEMENT_3D('',#1667,#1317,#1318);
#1185=AXIS2_PLACEMENT_3D('',#1671,#1320,#1321);
#1186=AXIS2_PLACEMENT_3D('',#1675,#1323,#1324);
#1187=AXIS2_PLACEMENT_3D('',#1676,#1325,#1326);
#1188=AXIS2_PLACEMENT_3D('',#1680,#1328,#1329);
#1189=AXIS2_PLACEMENT_3D('',#1684,#1331,#1332);
#1190=AXIS2_PLACEMENT_3D('',#1685,#1333,#1334);
#1191=AXIS2_PLACEMENT_3D('',#1689,#1336,#1337);
#1192=AXIS2_PLACEMENT_3D('',#1693,#1339,#1340);
#1193=AXIS2_PLACEMENT_3D('',#1694,#1341,#1342);
#1194=AXIS2_PLACEMENT_3D('',#1698,#1344,#1345);
#1195=AXIS2_PLACEMENT_3D('',#1702,#1347,#1348);
#1196=AXIS2_PLACEMENT_3D('',#1703,#1349,#1350);
#1197=AXIS2_PLACEMENT_3D('',#1707,#1352,#1353);
#1198=AXIS2_PLACEMENT_3D('',#1711,#1355,#1356);
#1199=AXIS2_PLACEMENT_3D('',#1712,#1357,#1358);
#1200=AXIS2_PLACEMENT_3D('',#1716,#1360,#1361);
#1201=AXIS2_PLACEMENT_3D('',#1720,#1363,#1364);
#1202=AXIS2_PLACEMENT_3D('',#1721,#1365,#1366);
#1203=AXIS2_PLACEMENT_3D('',#1725,#1368,#1369);
#1204=AXIS2_PLACEMENT_3D('',#1729,#1371,#1372);
#1205=AXIS2_PLACEMENT_3D('',#1730,#1373,#1374);
#1206=AXIS2_PLACEMENT_3D('',#1731,#1375,#1376);
#1207=AXIS2_PLACEMENT_3D('',#1736,#1378,#1379);
#1208=AXIS2_PLACEMENT_3D('',#1739,#1381,#1382);
#1209=AXIS2_PLACEMENT_3D('',#1742,#1385,#1386);
#1210=AXIS2_PLACEMENT_3D('',#1745,#1389,#1390);
#1211=AXIS2_PLACEMENT_3D('',#1751,#1394,#1395);
#1212=AXIS2_PLACEMENT_3D('',#1752,#1396,#1397);
#1213=AXIS2_PLACEMENT_3D('',#1756,#1399,#1400);
#1214=AXIS2_PLACEMENT_3D('',#1757,#1401,#1402);
#1215=AXIS2_PLACEMENT_3D('',#1766,#1407,#1408);
#1216=AXIS2_PLACEMENT_3D('',#1767,#1409,#1410);
#1217=AXIS2_PLACEMENT_3D('',#1771,#1412,#1413);
#1218=AXIS2_PLACEMENT_3D('',#1772,#1414,#1415);
#1219=AXIS2_PLACEMENT_3D('',#1778,#1419,#1420);
#1220=AXIS2_PLACEMENT_3D('',#1779,#1421,#1422);
#1221=AXIS2_PLACEMENT_3D('',#1783,#1424,#1425);
#1222=AXIS2_PLACEMENT_3D('',#1784,#1426,#1427);
#1223=AXIS2_PLACEMENT_3D('',#1790,#1431,#1432);
#1224=AXIS2_PLACEMENT_3D('',#1791,#1433,#1434);
#1225=AXIS2_PLACEMENT_3D('',#1795,#1436,#1437);
#1226=AXIS2_PLACEMENT_3D('',#1796,#1438,#1439);
#1227=AXIS2_PLACEMENT_3D('',#1802,#1443,#1444);
#1228=AXIS2_PLACEMENT_3D('',#1803,#1445,#1446);
#1229=AXIS2_PLACEMENT_3D('',#1808,#1448,#1449);
#1230=AXIS2_PLACEMENT_3D('',#1811,#1451,#1452);
#1231=AXIS2_PLACEMENT_3D('',#1817,#1456,#1457);
#1232=AXIS2_PLACEMENT_3D('',#1818,#1458,#1459);
#1233=AXIS2_PLACEMENT_3D('',#1822,#1461,#1462);
#1234=AXIS2_PLACEMENT_3D('',#1823,#1463,#1464);
#1235=AXIS2_PLACEMENT_3D('',#1829,#1468,#1469);
#1236=AXIS2_PLACEMENT_3D('',#1830,#1470,#1471);
#1237=AXIS2_PLACEMENT_3D('',#1834,#1473,#1474);
#1238=AXIS2_PLACEMENT_3D('',#1835,#1475,#1476);
#1239=AXIS2_PLACEMENT_3D('',#1841,#1480,#1481);
#1240=AXIS2_PLACEMENT_3D('',#1842,#1482,#1483);
#1241=AXIS2_PLACEMENT_3D('',#1846,#1485,#1486);
#1242=AXIS2_PLACEMENT_3D('',#1847,#1487,#1488);
#1243=AXIS2_PLACEMENT_3D('',#1853,#1492,#1493);
#1244=AXIS2_PLACEMENT_3D('',#1854,#1494,#1495);
#1245=AXIS2_PLACEMENT_3D('',#1858,#1497,#1498);
#1246=AXIS2_PLACEMENT_3D('',#1859,#1499,#1500);
#1247=AXIS2_PLACEMENT_3D('',#1865,#1504,#1505);
#1248=AXIS2_PLACEMENT_3D('',#1866,#1506,#1507);
#1249=AXIS2_PLACEMENT_3D('',#1870,#1509,#1510);
#1250=AXIS2_PLACEMENT_3D('',#1871,#1511,#1512);
#1251=AXIS2_PLACEMENT_3D('',#1874,#1515,#1516);
#1252=AXIS2_PLACEMENT_3D('',#1880,#1520,#1521);
#1253=AXIS2_PLACEMENT_3D('',#1881,#1522,#1523);
#1254=AXIS2_PLACEMENT_3D('',#1885,#1525,#1526);
#1255=AXIS2_PLACEMENT_3D('',#1886,#1527,#1528);
#1256=AXIS2_PLACEMENT_3D('',#1892,#1532,#1533);
#1257=AXIS2_PLACEMENT_3D('',#1893,#1534,#1535);
#1258=AXIS2_PLACEMENT_3D('',#1897,#1537,#1538);
#1259=AXIS2_PLACEMENT_3D('',#1898,#1539,#1540);
#1260=AXIS2_PLACEMENT_3D('',#1901,#1543,#1544);
#1261=AXIS2_PLACEMENT_3D('',#1907,#1548,#1549);
#1262=AXIS2_PLACEMENT_3D('',#1908,#1550,#1551);
#1263=AXIS2_PLACEMENT_3D('',#1912,#1553,#1554);
#1264=AXIS2_PLACEMENT_3D('',#1913,#1555,#1556);
#1265=AXIS2_PLACEMENT_3D('',#1919,#1560,#1561);
#1266=AXIS2_PLACEMENT_3D('',#1920,#1562,#1563);
#1267=AXIS2_PLACEMENT_3D('',#1924,#1565,#1566);
#1268=AXIS2_PLACEMENT_3D('',#1925,#1567,#1568);
#1269=AXIS2_PLACEMENT_3D('',#1928,#1571,#1572);
#1270=AXIS2_PLACEMENT_3D('',#1929,#1573,#1574);
#1271=AXIS2_PLACEMENT_3D('',#1930,#1575,#1576);
#1272=AXIS2_PLACEMENT_3D('',#1931,#1577,#1578);
#1273=AXIS2_PLACEMENT_3D('',#1934,#1581,#1582);
#1274=AXIS2_PLACEMENT_3D('',#1935,#1583,#1584);
#1275=AXIS2_PLACEMENT_3D('',#1937,#1585,#1586);
#1276=AXIS2_PLACEMENT_3D('',#1939,#1587,#1588);
#1277=AXIS2_PLACEMENT_3D('',#1940,#1589,#1590);
#1278=AXIS2_PLACEMENT_3D('',#1942,#1591,#1592);
#1279=AXIS2_PLACEMENT_3D('',#1944,#1593,#1594);
#1280=AXIS2_PLACEMENT_3D('',#1945,#1595,#1596);
#1281=AXIS2_PLACEMENT_3D('',#1947,#1597,#1598);
#1282=AXIS2_PLACEMENT_3D('',#1949,#1599,#1600);
#1283=AXIS2_PLACEMENT_3D('',#1950,#1601,#1602);
#1284=AXIS2_PLACEMENT_3D('',#1952,#1603,#1604);
#1285=AXIS2_PLACEMENT_3D('',#1954,#1605,#1606);
#1286=AXIS2_PLACEMENT_3D('',#1957,#1609,#1610);
#1287=AXIS2_PLACEMENT_3D('',#1960,#1613,#1614);
#1288=AXIS2_PLACEMENT_3D('',#1963,#1617,#1618);
#1289=AXIS2_PLACEMENT_3D('',#1966,#1621,#1622);
#1290=AXIS2_PLACEMENT_3D('',#1967,#1623,#1624);
#1291=AXIS2_PLACEMENT_3D('',#1968,#1625,#1626);
#1292=AXIS2_PLACEMENT_3D('',#1970,#1627,#1628);
#1293=AXIS2_PLACEMENT_3D('',#1972,#1629,#1630);
#1294=AXIS2_PLACEMENT_3D('',#1974,#1631,#1632);
#1295=AXIS2_PLACEMENT_3D('',#1976,#1633,#1634);
#1296=AXIS2_PLACEMENT_3D('',#1977,#1635,#1636);
#1297=AXIS2_PLACEMENT_3D('',#1979,#1637,#1638);
#1298=AXIS2_PLACEMENT_3D('',#1980,#1639,#1640);
#1299=AXIS2_PLACEMENT_3D('',#1981,#1641,#1642);
#1300=AXIS2_PLACEMENT_3D('',#1983,#1643,#1644);
#1301=AXIS2_PLACEMENT_3D('',#1984,#1645,#1646);
#1302=AXIS2_PLACEMENT_3D('',#1985,#1647,#1648);
#1303=AXIS2_PLACEMENT_3D('',#1987,#1649,#1650);
#1304=AXIS2_PLACEMENT_3D('',#1988,#1651,#1652);
#1305=AXIS2_PLACEMENT_3D('',#1989,#1653,#1654);
#1306=AXIS2_PLACEMENT_3D('',#1991,#1655,#1656);
#1307=DIRECTION('',(0.,0.,1.));
#1308=DIRECTION('',(1.,0.,0.));
#1309=DIRECTION('',(0.,0.,-1.));
#1310=DIRECTION('',(-1.,0.,0.));
#1311=DIRECTION('',(0.,0.,1.));
#1312=DIRECTION('',(0.,0.,1.));
#1313=DIRECTION('',(1.,0.,0.));
#1314=DIRECTION('',(0.,0.,1.));
#1315=DIRECTION('',(0.,0.,1.));
#1316=DIRECTION('',(1.,0.,0.));
#1317=DIRECTION('',(0.,0.,-1.));
#1318=DIRECTION('',(-1.,0.,0.));
#1319=DIRECTION('',(0.,0.,-1.));
#1320=DIRECTION('',(0.,0.,1.));
#1321=DIRECTION('',(1.,0.,0.));
#1322=DIRECTION('',(0.,0.,-1.));
#1323=DIRECTION('',(0.,0.,1.));
#1324=DIRECTION('',(1.,0.,0.));
#1325=DIRECTION('',(0.,0.,-1.));
#1326=DIRECTION('',(-1.,0.,0.));
#1327=DIRECTION('',(0.,0.,1.));
#1328=DIRECTION('',(0.,0.,1.));
#1329=DIRECTION('',(1.,0.,0.));
#1330=DIRECTION('',(0.,0.,1.));
#1331=DIRECTION('',(0.,0.,1.));
#1332=DIRECTION('',(1.,0.,0.));
#1333=DIRECTION('',(0.,0.,-1.));
#1334=DIRECTION('',(-1.,0.,0.));
#1335=DIRECTION('',(0.,0.,-1.));
#1336=DIRECTION('',(0.,0.,1.));
#1337=DIRECTION('',(1.,0.,0.));
#1338=DIRECTION('',(0.,0.,-1.));
#1339=DIRECTION('',(0.,0.,1.));
#1340=DIRECTION('',(1.,0.,0.));
#1341=DIRECTION('',(0.,0.,-1.));
#1342=DIRECTION('',(-1.,0.,0.));
#1343=DIRECTION('',(0.,0.,1.));
#1344=DIRECTION('',(0.,0.,1.));
#1345=DIRECTION('',(1.,0.,0.));
#1346=DIRECTION('',(0.,0.,1.));
#1347=DIRECTION('',(0.,0.,1.));
#1348=DIRECTION('',(1.,0.,0.));
#1349=DIRECTION('',(0.,0.,-1.));
#1350=DIRECTION('',(-1.,0.,0.));
#1351=DIRECTION('',(0.,0.,-1.));
#1352=DIRECTION('',(0.,0.,1.));
#1353=DIRECTION('',(1.,0.,0.));
#1354=DIRECTION('',(0.,0.,-1.));
#1355=DIRECTION('',(0.,0.,1.));
#1356=DIRECTION('',(1.,0.,0.));
#1357=DIRECTION('',(0.,0.,-1.));
#1358=DIRECTION('',(-1.,0.,0.));
#1359=DIRECTION('',(0.,0.,-1.));
#1360=DIRECTION('',(0.,0.,1.));
#1361=DIRECTION('',(1.,0.,0.));
#1362=DIRECTION('',(0.,0.,-1.));
#1363=DIRECTION('',(0.,0.,1.));
#1364=DIRECTION('',(1.,0.,0.));
#1365=DIRECTION('',(0.,0.,-1.));
#1366=DIRECTION('',(-1.,0.,0.));
#1367=DIRECTION('',(0.,0.,1.));
#1368=DIRECTION('',(0.,0.,1.));
#1369=DIRECTION('',(1.,0.,0.));
#1370=DIRECTION('',(0.,0.,1.));
#1371=DIRECTION('',(0.,0.,1.));
#1372=DIRECTION('',(1.,0.,0.));
#1373=DIRECTION('',(0.,0.,-1.));
#1374=DIRECTION('',(-1.,0.,0.));
#1375=DIRECTION('',(0.,0.,1.));
#1376=DIRECTION('',(0.707106781186548,0.707106781186548,0.));
#1377=DIRECTION('',(0.,0.,-1.));
#1378=DIRECTION('',(0.,0.,1.));
#1379=DIRECTION('',(0.707106781186548,0.707106781186548,0.));
#1380=DIRECTION('',(0.,0.,-1.));
#1381=DIRECTION('',(0.707106781186548,0.707106781186548,0.));
#1382=DIRECTION('',(-0.707106781186548,0.707106781186548,0.));
#1383=DIRECTION('',(0.707106781186548,-0.707106781186548,0.));
#1384=DIRECTION('',(0.707106781186548,-0.707106781186548,0.));
#1385=DIRECTION('',(1.,0.,0.));
#1386=DIRECTION('',(0.,0.,-1.));
#1387=DIRECTION('',(0.,-1.,0.));
#1388=DIRECTION('',(0.,-1.,0.));
#1389=DIRECTION('',(-0.707106781186548,0.707106781186547,0.));
#1390=DIRECTION('',(-0.707106781186547,-0.707106781186548,0.));
#1391=DIRECTION('',(0.707106781186547,0.707106781186548,0.));
#1392=DIRECTION('',(0.707106781186547,0.707106781186548,0.));
#1393=DIRECTION('',(0.,0.,-1.));
#1394=DIRECTION('',(0.,0.,-1.));
#1395=DIRECTION('',(-1.,0.,0.));
#1396=DIRECTION('',(0.,0.,1.));
#1397=DIRECTION('',(-1.,0.,0.));
#1398=DIRECTION('',(0.,0.,-1.));
#1399=DIRECTION('',(0.,0.,1.));
#1400=DIRECTION('',(-1.,0.,0.));
#1401=DIRECTION('',(1.,0.,0.));
#1402=DIRECTION('',(0.,0.,-1.));
#1403=DIRECTION('',(0.,-1.,0.));
#1404=DIRECTION('',(0.,0.,-1.));
#1405=DIRECTION('',(0.,-1.,0.));
#1406=DIRECTION('',(0.,0.,-1.));
#1407=DIRECTION('',(0.,0.,-1.));
#1408=DIRECTION('',(-1.,0.,0.));
#1409=DIRECTION('',(0.,0.,1.));
#1410=DIRECTION('',(1.,0.,0.));
#1411=DIRECTION('',(0.,0.,-1.));
#1412=DIRECTION('',(0.,0.,1.));
#1413=DIRECTION('',(1.,0.,0.));
#1414=DIRECTION('',(0.,1.,0.));
#1415=DIRECTION('',(0.,0.,1.));
#1416=DIRECTION('',(1.,0.,0.));
#1417=DIRECTION('',(0.,0.,-1.));
#1418=DIRECTION('',(1.,0.,0.));
#1419=DIRECTION('',(0.,0.,-1.));
#1420=DIRECTION('',(-1.,0.,0.));
#1421=DIRECTION('',(0.,0.,1.));
#1422=DIRECTION('',(0.,1.,0.));
#1423=DIRECTION('',(0.,0.,-1.));
#1424=DIRECTION('',(0.,0.,1.));
#1425=DIRECTION('',(0.,1.,0.));
#1426=DIRECTION('',(1.,0.,0.));
#1427=DIRECTION('',(0.,0.,-1.));
#1428=DIRECTION('',(0.,-1.,0.));
#1429=DIRECTION('',(0.,0.,-1.));
#1430=DIRECTION('',(0.,-1.,0.));
#1431=DIRECTION('',(0.,0.,-1.));
#1432=DIRECTION('',(-1.,0.,0.));
#1433=DIRECTION('',(0.,0.,1.));
#1434=DIRECTION('',(-1.,0.,0.));
#1435=DIRECTION('',(0.,0.,-1.));
#1436=DIRECTION('',(0.,0.,1.));
#1437=DIRECTION('',(-1.,0.,0.));
#1438=DIRECTION('',(0.,1.,0.));
#1439=DIRECTION('',(0.,0.,1.));
#1440=DIRECTION('',(1.,0.,0.));
#1441=DIRECTION('',(0.,0.,-1.));
#1442=DIRECTION('',(1.,0.,0.));
#1443=DIRECTION('',(0.,0.,-1.));
#1444=DIRECTION('',(-1.,0.,0.));
#1445=DIRECTION('',(0.,0.,1.));
#1446=DIRECTION('',(0.707106781186542,-0.707106781186553,0.));
#1447=DIRECTION('',(0.,0.,-1.));
#1448=DIRECTION('',(0.,0.,1.));
#1449=DIRECTION('',(0.707106781186542,-0.707106781186553,0.));
#1450=DIRECTION('',(0.,0.,-1.));
#1451=DIRECTION('',(-0.707106781186548,0.707106781186548,0.));
#1452=DIRECTION('',(-0.707106781186548,-0.707106781186548,0.));
#1453=DIRECTION('',(0.707106781186548,0.707106781186548,0.));
#1454=DIRECTION('',(0.,0.,-1.));
#1455=DIRECTION('',(0.707106781186548,0.707106781186548,0.));
#1456=DIRECTION('',(0.,0.,-1.));
#1457=DIRECTION('',(-1.,0.,0.));
#1458=DIRECTION('',(0.,0.,1.));
#1459=DIRECTION('',(-0.707106781186556,-0.707106781186539,0.));
#1460=DIRECTION('',(0.,0.,-1.));
#1461=DIRECTION('',(0.,0.,1.));
#1462=DIRECTION('',(-0.707106781186556,-0.707106781186539,0.));
#1463=DIRECTION('',(-0.707106781186548,-0.707106781186548,0.));
#1464=DIRECTION('',(0.707106781186548,-0.707106781186548,0.));
#1465=DIRECTION('',(-0.707106781186548,0.707106781186548,0.));
#1466=DIRECTION('',(0.,0.,-1.));
#1467=DIRECTION('',(-0.707106781186548,0.707106781186548,0.));
#1468=DIRECTION('',(0.,0.,-1.));
#1469=DIRECTION('',(-1.,0.,0.));
#1470=DIRECTION('',(0.,0.,1.));
#1471=DIRECTION('',(-0.707106781186542,0.707106781186553,0.));
#1472=DIRECTION('',(0.,0.,-1.));
#1473=DIRECTION('',(0.,0.,1.));
#1474=DIRECTION('',(-0.707106781186542,0.707106781186553,0.));
#1475=DIRECTION('',(0.707106781186548,-0.707106781186547,0.));
#1476=DIRECTION('',(0.707106781186547,0.707106781186548,0.));
#1477=DIRECTION('',(-0.707106781186547,-0.707106781186548,0.));
#1478=DIRECTION('',(0.,0.,-1.));
#1479=DIRECTION('',(-0.707106781186547,-0.707106781186548,0.));
#1480=DIRECTION('',(0.,0.,-1.));
#1481=DIRECTION('',(-1.,0.,0.));
#1482=DIRECTION('',(0.,0.,1.));
#1483=DIRECTION('',(0.707106781186553,0.707106781186542,0.));
#1484=DIRECTION('',(0.,0.,-1.));
#1485=DIRECTION('',(0.,0.,1.));
#1486=DIRECTION('',(0.707106781186553,0.707106781186542,0.));
#1487=DIRECTION('',(-0.707106781186547,-0.707106781186548,0.));
#1488=DIRECTION('',(0.707106781186548,-0.707106781186547,0.));
#1489=DIRECTION('',(-0.707106781186548,0.707106781186547,0.));
#1490=DIRECTION('',(-0.707106781186548,0.707106781186547,0.));
#1491=DIRECTION('',(0.,0.,-1.));
#1492=DIRECTION('',(0.,0.,-1.));
#1493=DIRECTION('',(-1.,0.,0.));
#1494=DIRECTION('',(0.,0.,1.));
#1495=DIRECTION('',(0.,-1.,0.));
#1496=DIRECTION('',(0.,0.,-1.));
#1497=DIRECTION('',(0.,0.,1.));
#1498=DIRECTION('',(0.,-1.,0.));
#1499=DIRECTION('',(0.,-1.,0.));
#1500=DIRECTION('',(0.,0.,-1.));
#1501=DIRECTION('',(-1.,0.,0.));
#1502=DIRECTION('',(0.,0.,-1.));
#1503=DIRECTION('',(-1.,0.,0.));
#1504=DIRECTION('',(0.,0.,-1.));
#1505=DIRECTION('',(-1.,0.,0.));
#1506=DIRECTION('',(0.,0.,1.));
#1507=DIRECTION('',(-0.707106781186548,0.707106781186548,0.));
#1508=DIRECTION('',(0.,0.,-1.));
#1509=DIRECTION('',(0.,0.,1.));
#1510=DIRECTION('',(-0.707106781186548,0.707106781186548,0.));
#1511=DIRECTION('',(-0.707106781186548,0.707106781186548,0.));
#1512=DIRECTION('',(-0.707106781186548,-0.707106781186548,0.));
#1513=DIRECTION('',(0.707106781186548,0.707106781186548,0.));
#1514=DIRECTION('',(0.707106781186548,0.707106781186548,0.));
#1515=DIRECTION('',(0.707106781186548,-0.707106781186548,0.));
#1516=DIRECTION('',(0.707106781186548,0.707106781186548,0.));
#1517=DIRECTION('',(-0.707106781186548,-0.707106781186548,0.));
#1518=DIRECTION('',(-0.707106781186548,-0.707106781186548,0.));
#1519=DIRECTION('',(0.,0.,-1.));
#1520=DIRECTION('',(0.,0.,-1.));
#1521=DIRECTION('',(-1.,0.,0.));
#1522=DIRECTION('',(0.,0.,1.));
#1523=DIRECTION('',(1.,0.,0.));
#1524=DIRECTION('',(0.,0.,-1.));
#1525=DIRECTION('',(0.,0.,1.));
#1526=DIRECTION('',(1.,0.,0.));
#1527=DIRECTION('',(1.,0.,0.));
#1528=DIRECTION('',(0.,0.,-1.));
#1529=DIRECTION('',(0.,-1.,0.));
#1530=DIRECTION('',(0.,0.,-1.));
#1531=DIRECTION('',(0.,-1.,0.));
#1532=DIRECTION('',(0.,0.,-1.));
#1533=DIRECTION('',(-1.,0.,0.));
#1534=DIRECTION('',(0.,0.,1.));
#1535=DIRECTION('',(-0.707106781186542,-0.707106781186553,0.));
#1536=DIRECTION('',(0.,0.,-1.));
#1537=DIRECTION('',(0.,0.,1.));
#1538=DIRECTION('',(-0.707106781186542,-0.707106781186553,0.));
#1539=DIRECTION('',(-0.707106781186547,-0.707106781186548,0.));
#1540=DIRECTION('',(0.707106781186548,-0.707106781186547,0.));
#1541=DIRECTION('',(-0.707106781186548,0.707106781186547,0.));
#1542=DIRECTION('',(-0.707106781186548,0.707106781186547,0.));
#1543=DIRECTION('',(0.707106781186548,0.707106781186548,0.));
#1544=DIRECTION('',(-0.707106781186548,0.707106781186548,0.));
#1545=DIRECTION('',(0.707106781186548,-0.707106781186548,0.));
#1546=DIRECTION('',(0.707106781186548,-0.707106781186548,0.));
#1547=DIRECTION('',(0.,0.,-1.));
#1548=DIRECTION('',(0.,0.,-1.));
#1549=DIRECTION('',(-1.,0.,0.));
#1550=DIRECTION('',(0.,0.,1.));
#1551=DIRECTION('',(0.,1.,0.));
#1552=DIRECTION('',(0.,0.,-1.));
#1553=DIRECTION('',(0.,0.,1.));
#1554=DIRECTION('',(0.,1.,0.));
#1555=DIRECTION('',(0.,1.,0.));
#1556=DIRECTION('',(0.,0.,1.));
#1557=DIRECTION('',(1.,0.,0.));
#1558=DIRECTION('',(0.,0.,-1.));
#1559=DIRECTION('',(1.,0.,0.));
#1560=DIRECTION('',(0.,0.,-1.));
#1561=DIRECTION('',(-1.,0.,0.));
#1562=DIRECTION('',(0.,0.,1.));
#1563=DIRECTION('',(0.707106781186549,-0.707106781186546,0.));
#1564=DIRECTION('',(0.,0.,-1.));
#1565=DIRECTION('',(0.,0.,1.));
#1566=DIRECTION('',(0.707106781186549,-0.707106781186546,0.));
#1567=DIRECTION('',(0.707106781186548,-0.707106781186548,0.));
#1568=DIRECTION('',(0.707106781186548,0.707106781186548,0.));
#1569=DIRECTION('',(-0.707106781186548,-0.707106781186548,0.));
#1570=DIRECTION('',(-0.707106781186548,-0.707106781186548,0.));
#1571=DIRECTION('',(0.,0.,-1.));
#1572=DIRECTION('',(-1.,0.,0.));
#1573=DIRECTION('',(0.,0.,1.));
#1574=DIRECTION('',(0.,-1.,0.));
#1575=DIRECTION('',(0.,0.,1.));
#1576=DIRECTION('',(0.,-1.,0.));
#1577=DIRECTION('',(-0.707106781186547,-0.707106781186548,0.));
#1578=DIRECTION('',(0.707106781186548,-0.707106781186547,0.));
#1579=DIRECTION('',(-0.707106781186548,0.707106781186547,0.));
#1580=DIRECTION('',(-0.707106781186548,0.707106781186547,0.));
#1581=DIRECTION('',(0.,0.,-1.));
#1582=DIRECTION('',(-1.,0.,0.));
#1583=DIRECTION('',(0.,0.,1.));
#1584=DIRECTION('',(0.999727831035625,-0.0233294631915497,0.));
#1585=DIRECTION('',(0.,0.,1.));
#1586=DIRECTION('',(0.999727831035625,-0.0233294631915497,0.));
#1587=DIRECTION('',(0.,0.,-1.));
#1588=DIRECTION('',(-1.,0.,0.));
#1589=DIRECTION('',(0.,0.,1.));
#1590=DIRECTION('',(0.999727831035624,-0.0233294631915495,0.));
#1591=DIRECTION('',(0.,0.,1.));
#1592=DIRECTION('',(0.999727831035624,-0.0233294631915495,0.));
#1593=DIRECTION('',(0.,0.,-1.));
#1594=DIRECTION('',(-1.,0.,0.));
#1595=DIRECTION('',(0.,0.,1.));
#1596=DIRECTION('',(0.998921275721959,-0.0464358149493868,0.));
#1597=DIRECTION('',(0.,0.,1.));
#1598=DIRECTION('',(0.998921275721959,-0.0464358149493868,0.));
#1599=DIRECTION('',(0.,0.,-1.));
#1600=DIRECTION('',(-1.,0.,0.));
#1601=DIRECTION('',(0.,0.,1.));
#1602=DIRECTION('',(0.998921275721959,-0.0464358149493868,0.));
#1603=DIRECTION('',(0.,0.,1.));
#1604=DIRECTION('',(0.998921275721959,-0.0464358149493868,0.));
#1605=DIRECTION('',(0.,1.,0.));
#1606=DIRECTION('',(0.,0.,1.));
#1607=DIRECTION('',(1.,0.,0.));
#1608=DIRECTION('',(1.,0.,0.));
#1609=DIRECTION('',(1.,0.,0.));
#1610=DIRECTION('',(0.,0.,-1.));
#1611=DIRECTION('',(0.,-1.,0.));
#1612=DIRECTION('',(0.,-1.,0.));
#1613=DIRECTION('',(0.,1.,0.));
#1614=DIRECTION('',(0.,0.,1.));
#1615=DIRECTION('',(1.,0.,0.));
#1616=DIRECTION('',(1.,0.,0.));
#1617=DIRECTION('',(1.,0.,0.));
#1618=DIRECTION('',(0.,0.,-1.));
#1619=DIRECTION('',(0.,-1.,0.));
#1620=DIRECTION('',(0.,-1.,0.));
#1621=DIRECTION('',(0.,0.,1.));
#1622=DIRECTION('',(1.,0.,0.));
#1623=DIRECTION('',(0.,0.,1.));
#1624=DIRECTION('',(1.,0.,0.));
#1625=DIRECTION('',(0.,0.,1.));
#1626=DIRECTION('',(1.,0.,0.));
#1627=DIRECTION('',(0.,0.,1.));
#1628=DIRECTION('',(1.,0.,0.));
#1629=DIRECTION('',(0.,0.,1.));
#1630=DIRECTION('',(1.,0.,0.));
#1631=DIRECTION('',(0.,0.,1.));
#1632=DIRECTION('',(1.,0.,0.));
#1633=DIRECTION('',(0.,0.,-1.));
#1634=DIRECTION('',(-1.,0.,0.));
#1635=DIRECTION('',(0.,0.,1.));
#1636=DIRECTION('',(1.,0.,0.));
#1637=DIRECTION('',(0.,0.,1.));
#1638=DIRECTION('',(1.,0.,0.));
#1639=DIRECTION('',(0.,0.,-1.));
#1640=DIRECTION('',(-1.,0.,0.));
#1641=DIRECTION('',(0.,0.,1.));
#1642=DIRECTION('',(1.,0.,0.));
#1643=DIRECTION('',(0.,0.,1.));
#1644=DIRECTION('',(1.,0.,0.));
#1645=DIRECTION('',(0.,0.,-1.));
#1646=DIRECTION('',(-1.,0.,0.));
#1647=DIRECTION('',(0.,0.,1.));
#1648=DIRECTION('',(1.,0.,0.));
#1649=DIRECTION('',(0.,0.,1.));
#1650=DIRECTION('',(1.,0.,0.));
#1651=DIRECTION('',(0.,0.,-1.));
#1652=DIRECTION('',(-1.,0.,0.));
#1653=DIRECTION('',(0.,0.,1.));
#1654=DIRECTION('',(1.,0.,0.));
#1655=DIRECTION('',(0.,0.,1.));
#1656=DIRECTION('',(1.,0.,0.));
#1657=CARTESIAN_POINT('',(0.,0.,0.));
#1658=CARTESIAN_POINT('',(-0.184106521332064,-0.157517036876235,0.013));
#1659=CARTESIAN_POINT('',(-0.177573706507683,-0.157517036876235,0.013));
#1660=CARTESIAN_POINT('',(-0.177573706507683,-0.157517036876235,0.013));
#1661=CARTESIAN_POINT('',(-0.177573706507683,-0.157517036876235,0.));
#1662=CARTESIAN_POINT('',(-0.184106521332064,-0.157517036876235,0.013));
#1663=CARTESIAN_POINT('',(-0.179487123669508,-0.152897639213678,0.013));
#1664=CARTESIAN_POINT('',(-0.179487123669509,-0.152897639213678,0.013));
#1665=CARTESIAN_POINT('',(-0.179487123669508,-0.152897639213678,0.));
#1666=CARTESIAN_POINT('',(-0.184106521332064,-0.157517036876235,0.));
#1667=CARTESIAN_POINT('',(-0.184106521332064,-0.198105075874772,0.013));
#1668=CARTESIAN_POINT('',(-0.179487123669509,-0.202724473537329,0.013));
#1669=CARTESIAN_POINT('',(-0.179487123669509,-0.202724473537329,0.013));
#1670=CARTESIAN_POINT('',(-0.179487123669509,-0.202724473537329,0.));
#1671=CARTESIAN_POINT('',(-0.184106521332064,-0.198105075874772,0.013));
#1672=CARTESIAN_POINT('',(-0.177573706507683,-0.198105075874772,0.013));
#1673=CARTESIAN_POINT('',(-0.177573706507683,-0.198105075874772,0.013));
#1674=CARTESIAN_POINT('',(-0.177573706507683,-0.198105075874772,0.));
#1675=CARTESIAN_POINT('',(-0.184106521332064,-0.198105075874772,0.));
#1676=CARTESIAN_POINT('',(-0.167867726006952,-0.141278241551122,0.013));
#1677=CARTESIAN_POINT('',(-0.172487123669508,-0.145897639213678,0.013));
#1678=CARTESIAN_POINT('',(-0.172487123669508,-0.145897639213678,0.013));
#1679=CARTESIAN_POINT('',(-0.172487123669508,-0.145897639213678,0.));
#1680=CARTESIAN_POINT('',(-0.167867726006952,-0.141278241551122,0.013));
#1681=CARTESIAN_POINT('',(-0.167867726006952,-0.147811056375504,0.013));
#1682=CARTESIAN_POINT('',(-0.167867726006952,-0.147811056375504,0.013));
#1683=CARTESIAN_POINT('',(-0.167867726006952,-0.147811056375504,0.));
#1684=CARTESIAN_POINT('',(-0.167867726006952,-0.141278241551122,0.));
#1685=CARTESIAN_POINT('',(-0.127279687008414,-0.141278241551122,0.013));
#1686=CARTESIAN_POINT('',(-0.127279687008414,-0.147811056375504,0.013));
#1687=CARTESIAN_POINT('',(-0.127279687008414,-0.147811056375504,0.013));
#1688=CARTESIAN_POINT('',(-0.127279687008414,-0.147811056375504,0.));
#1689=CARTESIAN_POINT('',(-0.127279687008414,-0.141278241551122,0.013));
#1690=CARTESIAN_POINT('',(-0.122660289345857,-0.145897639213678,0.013));
#1691=CARTESIAN_POINT('',(-0.122660289345857,-0.145897639213678,0.013));
#1692=CARTESIAN_POINT('',(-0.122660289345857,-0.145897639213678,0.));
#1693=CARTESIAN_POINT('',(-0.127279687008414,-0.141278241551122,0.));
#1694=CARTESIAN_POINT('',(-0.111040891683301,-0.157517036876235,0.013));
#1695=CARTESIAN_POINT('',(-0.115660289345857,-0.152897639213678,0.013));
#1696=CARTESIAN_POINT('',(-0.115660289345857,-0.152897639213678,0.013));
#1697=CARTESIAN_POINT('',(-0.115660289345857,-0.152897639213678,0.));
#1698=CARTESIAN_POINT('',(-0.111040891683301,-0.157517036876235,0.013));
#1699=CARTESIAN_POINT('',(-0.117573706507683,-0.157517036876235,0.013));
#1700=CARTESIAN_POINT('',(-0.117573706507683,-0.157517036876235,0.013));
#1701=CARTESIAN_POINT('',(-0.117573706507683,-0.157517036876235,0.));
#1702=CARTESIAN_POINT('',(-0.111040891683301,-0.157517036876235,0.));
#1703=CARTESIAN_POINT('',(-0.111040891683301,-0.198105075874772,0.013));
#1704=CARTESIAN_POINT('',(-0.117573706507683,-0.198105075874772,0.013));
#1705=CARTESIAN_POINT('',(-0.117573706507683,-0.198105075874772,0.013));
#1706=CARTESIAN_POINT('',(-0.117573706507683,-0.198105075874772,0.));
#1707=CARTESIAN_POINT('',(-0.111040891683301,-0.198105075874772,0.013));
#1708=CARTESIAN_POINT('',(-0.115660289345857,-0.202724473537329,0.013));
#1709=CARTESIAN_POINT('',(-0.115660289345857,-0.202724473537329,0.013));
#1710=CARTESIAN_POINT('',(-0.115660289345857,-0.202724473537329,0.));
#1711=CARTESIAN_POINT('',(-0.111040891683301,-0.198105075874772,0.));
#1712=CARTESIAN_POINT('',(-0.127279687008414,-0.214343871199885,0.013));
#1713=CARTESIAN_POINT('',(-0.122660289345857,-0.209724473537329,0.013));
#1714=CARTESIAN_POINT('',(-0.122660289345857,-0.209724473537329,0.013));
#1715=CARTESIAN_POINT('',(-0.122660289345857,-0.209724473537329,0.));
#1716=CARTESIAN_POINT('',(-0.127279687008414,-0.214343871199885,0.013));
#1717=CARTESIAN_POINT('',(-0.127279687008414,-0.207811056375503,0.013));
#1718=CARTESIAN_POINT('',(-0.127279687008414,-0.207811056375503,0.013));
#1719=CARTESIAN_POINT('',(-0.127279687008414,-0.207811056375503,0.));
#1720=CARTESIAN_POINT('',(-0.127279687008414,-0.214343871199885,0.));
#1721=CARTESIAN_POINT('',(-0.167867726006952,-0.214343871199885,0.013));
#1722=CARTESIAN_POINT('',(-0.167867726006952,-0.207811056375503,0.013));
#1723=CARTESIAN_POINT('',(-0.167867726006952,-0.207811056375503,0.013));
#1724=CARTESIAN_POINT('',(-0.167867726006952,-0.207811056375503,0.));
#1725=CARTESIAN_POINT('',(-0.167867726006952,-0.214343871199885,0.013));
#1726=CARTESIAN_POINT('',(-0.172487123669508,-0.209724473537329,0.013));
#1727=CARTESIAN_POINT('',(-0.172487123669508,-0.209724473537329,0.013));
#1728=CARTESIAN_POINT('',(-0.172487123669508,-0.209724473537329,0.));
#1729=CARTESIAN_POINT('',(-0.167867726006952,-0.214343871199885,0.));
#1730=CARTESIAN_POINT('',(-0.207573706507683,-0.131882124187369,0.013));
#1731=CARTESIAN_POINT('',(-0.207573706507683,-0.131882124187369,0.));
#1732=CARTESIAN_POINT('',(-0.20403817260175,-0.128346590281436,0.));
#1733=CARTESIAN_POINT('',(-0.212573706507683,-0.131882124187369,0.));
#1734=CARTESIAN_POINT('',(-0.20403817260175,-0.128346590281436,0.013));
#1735=CARTESIAN_POINT('',(-0.20403817260175,-0.128346590281436,0.013));
#1736=CARTESIAN_POINT('',(-0.207573706507683,-0.131882124187369,0.013));
#1737=CARTESIAN_POINT('',(-0.212573706507683,-0.131882124187369,0.013));
#1738=CARTESIAN_POINT('',(-0.212573706507683,-0.131882124187369,0.013));
#1739=CARTESIAN_POINT('',(-0.190805939554717,-0.14157882332847,0.013));
#1740=CARTESIAN_POINT('',(-0.190805939554717,-0.14157882332847,0.));
#1741=CARTESIAN_POINT('',(-0.190805939554717,-0.14157882332847,0.013));
#1742=CARTESIAN_POINT('',(-0.177573706507683,-0.177811056375503,0.013));
#1743=CARTESIAN_POINT('',(-0.177573706507683,-0.177811056375503,0.013));
#1744=CARTESIAN_POINT('',(-0.177573706507683,-0.177811056375503,0.));
#1745=CARTESIAN_POINT('',(-0.190805939554717,-0.214043289422537,0.013));
#1746=CARTESIAN_POINT('',(-0.190805939554717,-0.214043289422537,0.013));
#1747=CARTESIAN_POINT('',(-0.20403817260175,-0.227275522469571,0.013));
#1748=CARTESIAN_POINT('',(-0.190805939554717,-0.214043289422537,0.));
#1749=CARTESIAN_POINT('',(-0.20403817260175,-0.227275522469571,0.));
#1750=CARTESIAN_POINT('',(-0.20403817260175,-0.227275522469571,0.013));
#1751=CARTESIAN_POINT('',(-0.207573706507683,-0.223739988563638,0.013));
#1752=CARTESIAN_POINT('',(-0.207573706507683,-0.223739988563638,0.));
#1753=CARTESIAN_POINT('',(-0.212573706507683,-0.223739988563638,0.));
#1754=CARTESIAN_POINT('',(-0.212573706507683,-0.223739988563638,0.013));
#1755=CARTESIAN_POINT('',(-0.212573706507683,-0.223739988563638,0.013));
#1756=CARTESIAN_POINT('',(-0.207573706507683,-0.223739988563638,0.013));
#1757=CARTESIAN_POINT('',(-0.0725737065076828,-0.177811056375503,0.013));
#1758=CARTESIAN_POINT('',(-0.0725737065076828,-0.177811056375503,0.));
#1759=CARTESIAN_POINT('',(-0.0725737065076828,-0.107811056375504,0.));
#1760=CARTESIAN_POINT('',(-0.0725737065076827,-0.247811056375503,0.));
#1761=CARTESIAN_POINT('',(-0.0725737065076828,-0.107811056375504,0.013));
#1762=CARTESIAN_POINT('',(-0.0725737065076828,-0.107811056375504,0.013));
#1763=CARTESIAN_POINT('',(-0.0725737065076828,-0.177811056375503,0.013));
#1764=CARTESIAN_POINT('',(-0.0725737065076827,-0.247811056375503,0.013));
#1765=CARTESIAN_POINT('',(-0.0725737065076827,-0.247811056375503,0.013));
#1766=CARTESIAN_POINT('',(-0.0775737065076828,-0.107811056375504,0.013));
#1767=CARTESIAN_POINT('',(-0.0775737065076828,-0.107811056375504,0.));
#1768=CARTESIAN_POINT('',(-0.0775737065076828,-0.102811056375503,0.));
#1769=CARTESIAN_POINT('',(-0.0775737065076828,-0.102811056375503,0.013));
#1770=CARTESIAN_POINT('',(-0.0775737065076828,-0.102811056375503,0.013));
#1771=CARTESIAN_POINT('',(-0.0775737065076828,-0.107811056375504,0.013));
#1772=CARTESIAN_POINT('',(-0.147573706507683,-0.102811056375503,0.013));
#1773=CARTESIAN_POINT('',(-0.147573706507683,-0.102811056375503,0.));
#1774=CARTESIAN_POINT('',(-0.217573706507683,-0.102811056375503,0.));
#1775=CARTESIAN_POINT('',(-0.217573706507683,-0.102811056375503,0.013));
#1776=CARTESIAN_POINT('',(-0.217573706507683,-0.102811056375503,0.013));
#1777=CARTESIAN_POINT('',(-0.147573706507683,-0.102811056375503,0.013));
#1778=CARTESIAN_POINT('',(-0.217573706507683,-0.107811056375504,0.013));
#1779=CARTESIAN_POINT('',(-0.217573706507683,-0.107811056375504,0.));
#1780=CARTESIAN_POINT('',(-0.222573706507683,-0.107811056375504,0.));
#1781=CARTESIAN_POINT('',(-0.222573706507683,-0.107811056375504,0.013));
#1782=CARTESIAN_POINT('',(-0.222573706507683,-0.107811056375504,0.013));
#1783=CARTESIAN_POINT('',(-0.217573706507683,-0.107811056375504,0.013));
#1784=CARTESIAN_POINT('',(-0.222573706507683,-0.177811056375503,0.013));
#1785=CARTESIAN_POINT('',(-0.222573706507683,-0.177811056375503,0.));
#1786=CARTESIAN_POINT('',(-0.222573706507683,-0.247811056375503,0.));
#1787=CARTESIAN_POINT('',(-0.222573706507683,-0.247811056375503,0.013));
#1788=CARTESIAN_POINT('',(-0.222573706507683,-0.247811056375503,0.013));
#1789=CARTESIAN_POINT('',(-0.222573706507683,-0.177811056375503,0.013));
#1790=CARTESIAN_POINT('',(-0.217573706507683,-0.247811056375503,0.013));
#1791=CARTESIAN_POINT('',(-0.217573706507683,-0.247811056375503,0.));
#1792=CARTESIAN_POINT('',(-0.217573706507683,-0.252811056375503,0.));
#1793=CARTESIAN_POINT('',(-0.217573706507683,-0.252811056375503,0.013));
#1794=CARTESIAN_POINT('',(-0.217573706507683,-0.252811056375503,0.013));
#1795=CARTESIAN_POINT('',(-0.217573706507683,-0.247811056375503,0.013));
#1796=CARTESIAN_POINT('',(-0.147573706507683,-0.252811056375503,0.013));
#1797=CARTESIAN_POINT('',(-0.147573706507683,-0.252811056375503,0.));
#1798=CARTESIAN_POINT('',(-0.0775737065076828,-0.252811056375503,0.));
#1799=CARTESIAN_POINT('',(-0.0775737065076828,-0.252811056375503,0.013));
#1800=CARTESIAN_POINT('',(-0.0775737065076828,-0.252811056375503,0.013));
#1801=CARTESIAN_POINT('',(-0.147573706507683,-0.252811056375503,0.013));
#1802=CARTESIAN_POINT('',(-0.134494774319548,-0.177811056375503,0.013));
#1803=CARTESIAN_POINT('',(-0.134494774319548,-0.177811056375503,0.));
#1804=CARTESIAN_POINT('',(-0.130959240413616,-0.181346590281436,0.));
#1805=CARTESIAN_POINT('',(-0.130959240413616,-0.174275522469571,0.));
#1806=CARTESIAN_POINT('',(-0.130959240413616,-0.181346590281436,0.013));
#1807=CARTESIAN_POINT('',(-0.130959240413616,-0.181346590281436,0.013));
#1808=CARTESIAN_POINT('',(-0.134494774319548,-0.177811056375503,0.013));
#1809=CARTESIAN_POINT('',(-0.130959240413616,-0.174275522469571,0.013));
#1810=CARTESIAN_POINT('',(-0.130959240413616,-0.174275522469571,0.013));
#1811=CARTESIAN_POINT('',(-0.137498706507683,-0.187886056375503,0.013));
#1812=CARTESIAN_POINT('',(-0.137498706507683,-0.187886056375503,0.));
#1813=CARTESIAN_POINT('',(-0.14403817260175,-0.19442552246957,0.));
#1814=CARTESIAN_POINT('',(-0.14403817260175,-0.19442552246957,0.013));
#1815=CARTESIAN_POINT('',(-0.14403817260175,-0.19442552246957,0.013));
#1816=CARTESIAN_POINT('',(-0.137498706507683,-0.187886056375503,0.013));
#1817=CARTESIAN_POINT('',(-0.147573706507683,-0.190889988563638,0.013));
#1818=CARTESIAN_POINT('',(-0.147573706507683,-0.190889988563638,0.));
#1819=CARTESIAN_POINT('',(-0.151109240413616,-0.194425522469571,0.));
#1820=CARTESIAN_POINT('',(-0.151109240413616,-0.194425522469571,0.013));
#1821=CARTESIAN_POINT('',(-0.151109240413616,-0.194425522469571,0.013));
#1822=CARTESIAN_POINT('',(-0.147573706507683,-0.190889988563638,0.013));
#1823=CARTESIAN_POINT('',(-0.157648706507683,-0.187886056375503,0.013));
#1824=CARTESIAN_POINT('',(-0.157648706507683,-0.187886056375503,0.));
#1825=CARTESIAN_POINT('',(-0.16418817260175,-0.181346590281436,0.));
#1826=CARTESIAN_POINT('',(-0.16418817260175,-0.181346590281436,0.013));
#1827=CARTESIAN_POINT('',(-0.16418817260175,-0.181346590281436,0.013));
#1828=CARTESIAN_POINT('',(-0.157648706507683,-0.187886056375503,0.013));
#1829=CARTESIAN_POINT('',(-0.160652638695818,-0.177811056375503,0.013));
#1830=CARTESIAN_POINT('',(-0.160652638695818,-0.177811056375503,0.));
#1831=CARTESIAN_POINT('',(-0.16418817260175,-0.174275522469571,0.));
#1832=CARTESIAN_POINT('',(-0.16418817260175,-0.174275522469571,0.013));
#1833=CARTESIAN_POINT('',(-0.16418817260175,-0.174275522469571,0.013));
#1834=CARTESIAN_POINT('',(-0.160652638695818,-0.177811056375503,0.013));
#1835=CARTESIAN_POINT('',(-0.157648706507683,-0.167736056375503,0.013));
#1836=CARTESIAN_POINT('',(-0.157648706507683,-0.167736056375503,0.));
#1837=CARTESIAN_POINT('',(-0.151109240413616,-0.161196590281436,0.));
#1838=CARTESIAN_POINT('',(-0.151109240413616,-0.161196590281436,0.013));
#1839=CARTESIAN_POINT('',(-0.151109240413616,-0.161196590281436,0.013));
#1840=CARTESIAN_POINT('',(-0.157648706507683,-0.167736056375503,0.013));
#1841=CARTESIAN_POINT('',(-0.147573706507683,-0.164732124187369,0.013));
#1842=CARTESIAN_POINT('',(-0.147573706507683,-0.164732124187369,0.));
#1843=CARTESIAN_POINT('',(-0.14403817260175,-0.161196590281436,0.));
#1844=CARTESIAN_POINT('',(-0.14403817260175,-0.161196590281436,0.013));
#1845=CARTESIAN_POINT('',(-0.14403817260175,-0.161196590281436,0.013));
#1846=CARTESIAN_POINT('',(-0.147573706507683,-0.164732124187369,0.013));
#1847=CARTESIAN_POINT('',(-0.111341473460649,-0.221043289422537,0.013));
#1848=CARTESIAN_POINT('',(-0.111341473460649,-0.221043289422537,0.013));
#1849=CARTESIAN_POINT('',(-0.0981092404136155,-0.234275522469571,0.013));
#1850=CARTESIAN_POINT('',(-0.111341473460649,-0.221043289422537,0.));
#1851=CARTESIAN_POINT('',(-0.0981092404136155,-0.234275522469571,0.));
#1852=CARTESIAN_POINT('',(-0.0981092404136155,-0.234275522469571,0.013));
#1853=CARTESIAN_POINT('',(-0.101644774319548,-0.237811056375503,0.013));
#1854=CARTESIAN_POINT('',(-0.101644774319548,-0.237811056375503,0.));
#1855=CARTESIAN_POINT('',(-0.101644774319548,-0.242811056375503,0.));
#1856=CARTESIAN_POINT('',(-0.101644774319548,-0.242811056375503,0.013));
#1857=CARTESIAN_POINT('',(-0.101644774319548,-0.242811056375503,0.013));
#1858=CARTESIAN_POINT('',(-0.101644774319548,-0.237811056375503,0.013));
#1859=CARTESIAN_POINT('',(-0.147573706507683,-0.242811056375503,0.013));
#1860=CARTESIAN_POINT('',(-0.147573706507683,-0.242811056375503,0.));
#1861=CARTESIAN_POINT('',(-0.193502638695817,-0.242811056375503,0.));
#1862=CARTESIAN_POINT('',(-0.193502638695817,-0.242811056375503,0.013));
#1863=CARTESIAN_POINT('',(-0.193502638695817,-0.242811056375503,0.013));
#1864=CARTESIAN_POINT('',(-0.147573706507683,-0.242811056375503,0.013));
#1865=CARTESIAN_POINT('',(-0.193502638695817,-0.237811056375503,0.013));
#1866=CARTESIAN_POINT('',(-0.193502638695817,-0.237811056375503,0.));
#1867=CARTESIAN_POINT('',(-0.19703817260175,-0.234275522469571,0.));
#1868=CARTESIAN_POINT('',(-0.19703817260175,-0.234275522469571,0.013));
#1869=CARTESIAN_POINT('',(-0.19703817260175,-0.234275522469571,0.013));
#1870=CARTESIAN_POINT('',(-0.193502638695817,-0.237811056375503,0.013));
#1871=CARTESIAN_POINT('',(-0.183805939554716,-0.221043289422537,0.013));
#1872=CARTESIAN_POINT('',(-0.183805939554716,-0.221043289422537,0.));
#1873=CARTESIAN_POINT('',(-0.183805939554716,-0.221043289422537,0.013));
#1874=CARTESIAN_POINT('',(-0.104341473460649,-0.14157882332847,0.013));
#1875=CARTESIAN_POINT('',(-0.104341473460649,-0.14157882332847,0.013));
#1876=CARTESIAN_POINT('',(-0.0911092404136156,-0.128346590281436,0.013));
#1877=CARTESIAN_POINT('',(-0.104341473460649,-0.14157882332847,0.));
#1878=CARTESIAN_POINT('',(-0.0911092404136156,-0.128346590281436,0.));
#1879=CARTESIAN_POINT('',(-0.0911092404136156,-0.128346590281436,0.013));
#1880=CARTESIAN_POINT('',(-0.0875737065076828,-0.131882124187369,0.013));
#1881=CARTESIAN_POINT('',(-0.0875737065076828,-0.131882124187369,0.));
#1882=CARTESIAN_POINT('',(-0.0825737065076828,-0.131882124187369,0.));
#1883=CARTESIAN_POINT('',(-0.0825737065076828,-0.131882124187369,0.013));
#1884=CARTESIAN_POINT('',(-0.0825737065076828,-0.131882124187369,0.013));
#1885=CARTESIAN_POINT('',(-0.0875737065076828,-0.131882124187369,0.013));
#1886=CARTESIAN_POINT('',(-0.0825737065076828,-0.177811056375503,0.013));
#1887=CARTESIAN_POINT('',(-0.0825737065076828,-0.177811056375503,0.));
#1888=CARTESIAN_POINT('',(-0.0825737065076828,-0.223739988563638,0.));
#1889=CARTESIAN_POINT('',(-0.0825737065076828,-0.223739988563638,0.013));
#1890=CARTESIAN_POINT('',(-0.0825737065076828,-0.223739988563638,0.013));
#1891=CARTESIAN_POINT('',(-0.0825737065076828,-0.177811056375503,0.013));
#1892=CARTESIAN_POINT('',(-0.0875737065076829,-0.223739988563638,0.013));
#1893=CARTESIAN_POINT('',(-0.0875737065076829,-0.223739988563638,0.));
#1894=CARTESIAN_POINT('',(-0.0911092404136156,-0.227275522469571,0.));
#1895=CARTESIAN_POINT('',(-0.0911092404136156,-0.227275522469571,0.013));
#1896=CARTESIAN_POINT('',(-0.0911092404136156,-0.227275522469571,0.013));
#1897=CARTESIAN_POINT('',(-0.0875737065076829,-0.223739988563638,0.013));
#1898=CARTESIAN_POINT('',(-0.104341473460649,-0.214043289422537,0.013));
#1899=CARTESIAN_POINT('',(-0.104341473460649,-0.214043289422537,0.));
#1900=CARTESIAN_POINT('',(-0.104341473460649,-0.214043289422537,0.013));
#1901=CARTESIAN_POINT('',(-0.183805939554716,-0.13457882332847,0.013));
#1902=CARTESIAN_POINT('',(-0.183805939554716,-0.13457882332847,0.013));
#1903=CARTESIAN_POINT('',(-0.19703817260175,-0.121346590281436,0.013));
#1904=CARTESIAN_POINT('',(-0.183805939554716,-0.13457882332847,0.));
#1905=CARTESIAN_POINT('',(-0.19703817260175,-0.121346590281436,0.));
#1906=CARTESIAN_POINT('',(-0.19703817260175,-0.121346590281436,0.013));
#1907=CARTESIAN_POINT('',(-0.193502638695817,-0.117811056375504,0.013));
#1908=CARTESIAN_POINT('',(-0.193502638695817,-0.117811056375504,0.));
#1909=CARTESIAN_POINT('',(-0.193502638695817,-0.112811056375504,0.));
#1910=CARTESIAN_POINT('',(-0.193502638695817,-0.112811056375504,0.013));
#1911=CARTESIAN_POINT('',(-0.193502638695817,-0.112811056375504,0.013));
#1912=CARTESIAN_POINT('',(-0.193502638695817,-0.117811056375504,0.013));
#1913=CARTESIAN_POINT('',(-0.147573706507683,-0.112811056375504,0.013));
#1914=CARTESIAN_POINT('',(-0.147573706507683,-0.112811056375504,0.));
#1915=CARTESIAN_POINT('',(-0.101644774319548,-0.112811056375504,0.));
#1916=CARTESIAN_POINT('',(-0.101644774319548,-0.112811056375504,0.013));
#1917=CARTESIAN_POINT('',(-0.101644774319548,-0.112811056375504,0.013));
#1918=CARTESIAN_POINT('',(-0.147573706507683,-0.112811056375504,0.013));
#1919=CARTESIAN_POINT('',(-0.101644774319548,-0.117811056375504,0.013));
#1920=CARTESIAN_POINT('',(-0.101644774319548,-0.117811056375504,0.));
#1921=CARTESIAN_POINT('',(-0.0981092404136155,-0.121346590281436,0.));
#1922=CARTESIAN_POINT('',(-0.0981092404136155,-0.121346590281436,0.013));
#1923=CARTESIAN_POINT('',(-0.0981092404136155,-0.121346590281436,0.013));
#1924=CARTESIAN_POINT('',(-0.101644774319548,-0.117811056375504,0.013));
#1925=CARTESIAN_POINT('',(-0.111341473460649,-0.13457882332847,0.013));
#1926=CARTESIAN_POINT('',(-0.111341473460649,-0.13457882332847,0.));
#1927=CARTESIAN_POINT('',(-0.111341473460649,-0.13457882332847,0.013));
#1928=CARTESIAN_POINT('',(-0.0775737065076828,-0.247811056375503,0.013));
#1929=CARTESIAN_POINT('',(-0.0775737065076828,-0.247811056375503,0.));
#1930=CARTESIAN_POINT('',(-0.0775737065076828,-0.247811056375503,0.013));
#1931=CARTESIAN_POINT('',(-0.137498706507683,-0.167736056375503,0.013));
#1932=CARTESIAN_POINT('',(-0.137498706507683,-0.167736056375503,0.));
#1933=CARTESIAN_POINT('',(-0.137498706507683,-0.167736056375503,0.013));
#1934=CARTESIAN_POINT('',(-0.172573706507683,-0.177811056375503,0.013));
#1935=CARTESIAN_POINT('',(-0.172573706507683,-0.177811056375503,0.002));
#1936=CARTESIAN_POINT('',(-0.170724210020267,-0.177854215882408,0.002));
#1937=CARTESIAN_POINT('',(-0.172573706507683,-0.177811056375503,0.013));
#1938=CARTESIAN_POINT('',(-0.170724210020267,-0.177854215882408,0.013));
#1939=CARTESIAN_POINT('',(-0.122573706507683,-0.177811056375503,0.013));
#1940=CARTESIAN_POINT('',(-0.122573706507683,-0.177811056375503,0.002));
#1941=CARTESIAN_POINT('',(-0.120724210020267,-0.177854215882408,0.002));
#1942=CARTESIAN_POINT('',(-0.122573706507683,-0.177811056375503,0.013));
#1943=CARTESIAN_POINT('',(-0.120724210020267,-0.177854215882408,0.013));
#1944=CARTESIAN_POINT('',(-0.147573706507683,-0.152811056375503,0.013));
#1945=CARTESIAN_POINT('',(-0.147573706507683,-0.152811056375503,0.002));
#1946=CARTESIAN_POINT('',(-0.145725702147597,-0.15289696263316,0.002));
#1947=CARTESIAN_POINT('',(-0.147573706507683,-0.152811056375503,0.013));
#1948=CARTESIAN_POINT('',(-0.145725702147597,-0.15289696263316,0.013));
#1949=CARTESIAN_POINT('',(-0.147573706507683,-0.202811056375503,0.013));
#1950=CARTESIAN_POINT('',(-0.147573706507683,-0.202811056375503,0.002));
#1951=CARTESIAN_POINT('',(-0.145725702147597,-0.20289696263316,0.002));
#1952=CARTESIAN_POINT('',(-0.147573706507683,-0.202811056375503,0.013));
#1953=CARTESIAN_POINT('',(-0.145725702147597,-0.20289696263316,0.013));
#1954=CARTESIAN_POINT('',(-0.147573706507683,-0.207811056375503,0.013));
#1955=CARTESIAN_POINT('',(-0.147573706507683,-0.207811056375503,0.));
#1956=CARTESIAN_POINT('',(-0.147573706507683,-0.207811056375503,0.013));
#1957=CARTESIAN_POINT('',(-0.117573706507683,-0.177811056375503,0.013));
#1958=CARTESIAN_POINT('',(-0.117573706507683,-0.177811056375503,0.));
#1959=CARTESIAN_POINT('',(-0.117573706507683,-0.177811056375503,0.013));
#1960=CARTESIAN_POINT('',(-0.147573706507683,-0.147811056375504,0.013));
#1961=CARTESIAN_POINT('',(-0.147573706507683,-0.147811056375504,0.));
#1962=CARTESIAN_POINT('',(-0.147573706507683,-0.147811056375504,0.013));
#1963=CARTESIAN_POINT('',(-0.212573706507683,-0.177811056375503,0.013));
#1964=CARTESIAN_POINT('',(-0.212573706507683,-0.177811056375503,0.));
#1965=CARTESIAN_POINT('',(-0.212573706507683,-0.177811056375503,0.013));
#1966=CARTESIAN_POINT('',(-0.147573706507683,-0.177811056375503,0.013));
#1967=CARTESIAN_POINT('',(-0.147573706507683,-0.177811056375503,0.));
#1968=CARTESIAN_POINT('',(-0.147573706507683,-0.152811056375503,0.));
#1969=CARTESIAN_POINT('',(-0.144573706507683,-0.152811056375503,0.));
#1970=CARTESIAN_POINT('',(-0.122573706507683,-0.177811056375503,0.));
#1971=CARTESIAN_POINT('',(-0.119573706507683,-0.177811056375503,0.));
#1972=CARTESIAN_POINT('',(-0.172573706507683,-0.177811056375503,0.));
#1973=CARTESIAN_POINT('',(-0.169573706507683,-0.177811056375503,0.));
#1974=CARTESIAN_POINT('',(-0.147573706507683,-0.202811056375503,0.));
#1975=CARTESIAN_POINT('',(-0.144573706507683,-0.202811056375503,0.));
#1976=CARTESIAN_POINT('',(-0.147573706507683,-0.202811056375503,0.002));
#1977=CARTESIAN_POINT('',(-0.147573706507683,-0.202811056375503,0.002));
#1978=CARTESIAN_POINT('',(-0.144573706507683,-0.202811056375503,0.002));
#1979=CARTESIAN_POINT('',(-0.147573706507683,-0.177811056375503,0.002));
#1980=CARTESIAN_POINT('',(-0.172573706507683,-0.177811056375503,0.002));
#1981=CARTESIAN_POINT('',(-0.172573706507683,-0.177811056375503,0.002));
#1982=CARTESIAN_POINT('',(-0.169573706507683,-0.177811056375503,0.002));
#1983=CARTESIAN_POINT('',(-0.147573706507683,-0.177811056375503,0.002));
#1984=CARTESIAN_POINT('',(-0.122573706507683,-0.177811056375503,0.002));
#1985=CARTESIAN_POINT('',(-0.122573706507683,-0.177811056375503,0.002));
#1986=CARTESIAN_POINT('',(-0.119573706507683,-0.177811056375503,0.002));
#1987=CARTESIAN_POINT('',(-0.147573706507683,-0.177811056375503,0.002));
#1988=CARTESIAN_POINT('',(-0.147573706507683,-0.152811056375503,0.002));
#1989=CARTESIAN_POINT('',(-0.147573706507683,-0.152811056375503,0.002));
#1990=CARTESIAN_POINT('',(-0.144573706507683,-0.152811056375503,0.002));
#1991=CARTESIAN_POINT('',(-0.147573706507683,-0.177811056375503,0.002));
#1992=MECHANICAL_DESIGN_GEOMETRIC_PRESENTATION_REPRESENTATION('',(#1169),
#1993);
#1993=(
GEOMETRIC_REPRESENTATION_CONTEXT(3)
GLOBAL_UNCERTAINTY_ASSIGNED_CONTEXT((#1994))
GLOBAL_UNIT_ASSIGNED_CONTEXT((#1997,#1996,#1995))
REPRESENTATION_CONTEXT('baseplate','TOP_LEVEL_ASSEMBLY_PART')
);
#1994=UNCERTAINTY_MEASURE_WITH_UNIT(LENGTH_MEASURE(1.E-8),#1997,
'DISTANCE_ACCURACY_VALUE','Maximum Tolerance applied to model');
#1995=(
NAMED_UNIT(*)
SI_UNIT($,.STERADIAN.)
SOLID_ANGLE_UNIT()
);
#1996=(
NAMED_UNIT(*)
PLANE_ANGLE_UNIT()
SI_UNIT($,.RADIAN.)
);
#1997=(
LENGTH_UNIT()
NAMED_UNIT(*)
SI_UNIT($,.METRE.)
);
#1998=PRODUCT_DEFINITION_SHAPE('','',#1999);
#1999=PRODUCT_DEFINITION('','',#2001,#2000);
#2000=PRODUCT_DEFINITION_CONTEXT('',#2007,'design');
#2001=PRODUCT_DEFINITION_FORMATION_WITH_SPECIFIED_SOURCE('','',#2003,
 .NOT_KNOWN.);
#2002=PRODUCT_RELATED_PRODUCT_CATEGORY('','',(#2003));
#2003=PRODUCT('baseplate','baseplate','baseplate',(#2005));
#2004=PRODUCT_CATEGORY('','');
#2005=PRODUCT_CONTEXT('',#2007,'mechanical');
#2006=APPLICATION_PROTOCOL_DEFINITION('international standard',
'ap242_managed_model_based_3d_engineering',2020,#2007);
#2007=APPLICATION_CONTEXT('managed model based 3d engineering');
ENDSEC;
END-ISO-10303-21;
